G04 MADE WITH FRITZING*
G04 WWW.FRITZING.ORG*
G04 DOUBLE SIDED*
G04 HOLES PLATED*
G04 CONTOUR ON CENTER OF CONTOUR VECTOR*
%ASAXBY*%
%FSLAX23Y23*%
%MOIN*%
%OFA0B0*%
%SFA1.0B1.0*%
%ADD10C,0.008*%
%LNCONTOUR*%
G90*
G70*
G54D10*
X247Y2925D02*
X247Y2924D01*
X247Y2825D01*
X246Y2824D01*
X246Y2802D01*
X245Y2801D01*
X245Y2787D01*
X244Y2786D01*
X244Y2779D01*
X243Y2778D01*
X243Y2774D01*
X242Y2773D01*
X242Y2770D01*
X241Y2769D01*
X241Y2767D01*
X240Y2766D01*
X240Y2763D01*
X239Y2762D01*
X239Y2760D01*
X238Y2759D01*
X238Y2757D01*
X237Y2756D01*
X237Y2755D01*
X236Y2754D01*
X236Y2752D01*
X235Y2751D01*
X235Y2750D01*
X234Y2749D01*
X234Y2748D01*
X233Y2747D01*
X233Y2746D01*
X232Y2745D01*
X232Y2744D01*
X231Y2743D01*
X231Y2742D01*
X230Y2741D01*
X230Y2740D01*
X229Y2739D01*
X229Y2738D01*
X228Y2737D01*
X227Y2736D01*
X227Y2735D01*
X226Y2734D01*
X225Y2733D01*
X225Y2732D01*
X224Y2731D01*
X223Y2730D01*
X223Y2729D01*
X222Y2728D01*
X221Y2727D01*
X220Y2726D01*
X220Y2725D01*
X219Y2724D01*
X218Y2723D01*
X217Y2722D01*
X216Y2721D01*
X215Y2720D01*
X214Y2719D01*
X214Y2718D01*
X213Y2717D01*
X212Y2716D01*
X211Y2715D01*
X210Y2714D01*
X209Y2713D01*
X208Y2712D01*
X207Y2712D01*
X206Y2711D01*
X205Y2710D01*
X204Y2709D01*
X203Y2708D01*
X202Y2707D01*
X201Y2706D01*
X200Y2706D01*
X199Y2705D01*
X198Y2704D01*
X197Y2703D01*
X196Y2703D01*
X195Y2702D01*
X194Y2701D01*
X193Y2701D01*
X192Y2700D01*
X191Y2699D01*
X190Y2699D01*
X189Y2698D01*
X188Y2697D01*
X187Y2697D01*
X186Y2696D01*
X185Y2696D01*
X184Y2695D01*
X183Y2694D01*
X182Y2694D01*
X181Y2693D01*
X180Y2693D01*
X179Y2692D01*
X178Y2692D01*
X177Y2691D01*
X176Y2691D01*
X175Y2690D01*
X174Y2690D01*
X173Y2689D01*
X172Y2689D01*
X171Y2688D01*
X170Y2688D01*
X169Y2687D01*
X168Y2687D01*
X167Y2686D01*
X166Y2686D01*
X165Y2685D01*
X164Y2685D01*
X163Y2684D01*
X162Y2684D01*
X161Y2683D01*
X160Y2683D01*
X159Y2682D01*
X158Y2682D01*
X157Y2681D01*
X156Y2681D01*
X155Y2680D01*
X154Y2680D01*
X153Y2680D01*
X152Y2679D01*
X151Y2679D01*
X150Y2679D01*
X149Y2679D01*
X148Y2679D01*
X147Y2679D01*
X146Y2679D01*
X145Y2679D01*
X144Y2679D01*
X143Y2679D01*
X142Y2679D01*
X141Y2679D01*
X140Y2679D01*
X139Y2679D01*
X138Y2679D01*
X137Y2679D01*
X136Y2679D01*
X135Y2679D01*
X134Y2679D01*
X133Y2679D01*
X132Y2679D01*
X131Y2679D01*
X130Y2679D01*
X129Y2679D01*
X128Y2679D01*
X127Y2679D01*
X126Y2679D01*
X125Y2679D01*
X124Y2679D01*
X123Y2679D01*
X122Y2679D01*
X121Y2679D01*
X120Y2679D01*
X119Y2679D01*
X118Y2679D01*
X117Y2679D01*
X116Y2679D01*
X115Y2679D01*
X114Y2679D01*
X113Y2679D01*
X112Y2679D01*
X111Y2679D01*
X110Y2679D01*
X109Y2679D01*
X108Y2679D01*
X107Y2679D01*
X106Y2679D01*
X105Y2679D01*
X104Y2679D01*
X103Y2679D01*
X102Y2679D01*
X101Y2679D01*
X100Y2679D01*
X99Y2679D01*
X98Y2679D01*
X97Y2679D01*
X96Y2679D01*
X95Y2679D01*
X94Y2679D01*
X93Y2679D01*
X92Y2679D01*
X91Y2679D01*
X90Y2679D01*
X89Y2679D01*
X88Y2679D01*
X87Y2679D01*
X86Y2679D01*
X85Y2678D01*
X84Y2678D01*
X83Y2678D01*
X82Y2678D01*
X81Y2678D01*
X80Y2678D01*
X79Y2678D01*
X78Y2678D01*
X77Y2678D01*
X76Y2678D01*
X75Y2678D01*
X74Y2678D01*
X73Y2678D01*
X72Y2678D01*
X71Y2678D01*
X70Y2678D01*
X69Y2678D01*
X68Y2678D01*
X67Y2678D01*
X66Y2678D01*
X65Y2678D01*
X64Y2678D01*
X63Y2678D01*
X62Y2678D01*
X61Y2678D01*
X60Y2678D01*
X59Y2678D01*
X58Y2678D01*
X57Y2678D01*
X56Y2678D01*
X55Y2678D01*
X54Y2678D01*
X53Y2678D01*
X52Y2678D01*
X51Y2678D01*
X50Y2678D01*
X49Y2678D01*
X48Y2678D01*
X47Y2678D01*
X46Y2678D01*
X45Y2678D01*
X44Y2678D01*
X43Y2678D01*
X42Y2678D01*
X41Y2678D01*
X40Y2678D01*
X39Y2678D01*
X38Y2678D01*
X37Y2678D01*
X36Y2678D01*
X35Y2678D01*
X34Y2678D01*
X33Y2678D01*
X32Y2678D01*
X31Y2678D01*
X30Y2678D01*
X29Y2678D01*
X28Y2678D01*
X27Y2678D01*
X26Y2678D01*
X25Y2678D01*
X24Y2678D01*
X23Y2678D01*
X22Y2678D01*
X21Y2678D01*
X20Y2678D01*
X19Y2678D01*
X18Y2678D01*
X17Y2677D01*
X16Y2677D01*
X15Y2677D01*
X14Y2677D01*
X13Y2677D01*
X12Y2677D01*
X11Y2677D01*
X10Y2677D01*
X9Y2677D01*
X8Y2677D01*
X7Y2677D01*
X6Y2677D01*
X5Y2677D01*
X4Y2677D01*
X3Y2677D01*
X2Y2677D01*
X1Y2677D01*
X0Y2677D01*
X0Y386D01*
X1Y385D01*
X1Y144D01*
X2Y143D01*
X2Y66D01*
X3Y65D01*
X3Y36D01*
X4Y35D01*
X4Y23D01*
X5Y22D01*
X5Y18D01*
X6Y17D01*
X7Y16D01*
X7Y15D01*
X8Y14D01*
X9Y13D01*
X10Y12D01*
X10Y11D01*
X11Y10D01*
X12Y9D01*
X13Y9D01*
X14Y8D01*
X15Y7D01*
X16Y6D01*
X17Y6D01*
X18Y5D01*
X19Y5D01*
X20Y4D01*
X21Y4D01*
X22Y4D01*
X23Y4D01*
X24Y4D01*
X25Y4D01*
X26Y4D01*
X27Y4D01*
X28Y4D01*
X29Y4D01*
X30Y4D01*
X31Y4D01*
X32Y4D01*
X33Y4D01*
X34Y4D01*
X35Y4D01*
X36Y4D01*
X37Y3D01*
X38Y3D01*
X39Y3D01*
X40Y3D01*
X41Y3D01*
X42Y3D01*
X43Y3D01*
X44Y3D01*
X45Y3D01*
X46Y3D01*
X47Y3D01*
X48Y3D01*
X49Y3D01*
X50Y3D01*
X51Y3D01*
X52Y3D01*
X53Y3D01*
X54Y3D01*
X55Y3D01*
X56Y3D01*
X57Y3D01*
X58Y3D01*
X59Y3D01*
X60Y3D01*
X61Y3D01*
X62Y3D01*
X63Y3D01*
X64Y3D01*
X65Y3D01*
X66Y3D01*
X67Y3D01*
X68Y3D01*
X69Y3D01*
X70Y3D01*
X71Y3D01*
X72Y3D01*
X73Y3D01*
X74Y3D01*
X75Y3D01*
X76Y3D01*
X77Y3D01*
X78Y3D01*
X79Y3D01*
X80Y3D01*
X81Y3D01*
X82Y3D01*
X83Y3D01*
X84Y3D01*
X85Y3D01*
X86Y3D01*
X87Y3D01*
X88Y3D01*
X89Y3D01*
X90Y3D01*
X91Y3D01*
X92Y3D01*
X93Y3D01*
X94Y3D01*
X95Y3D01*
X96Y3D01*
X97Y2D01*
X98Y2D01*
X99Y2D01*
X100Y2D01*
X101Y2D01*
X102Y2D01*
X103Y2D01*
X104Y2D01*
X105Y2D01*
X106Y2D01*
X107Y2D01*
X108Y2D01*
X109Y2D01*
X110Y2D01*
X111Y2D01*
X112Y2D01*
X113Y2D01*
X114Y2D01*
X115Y2D01*
X116Y2D01*
X117Y2D01*
X118Y2D01*
X119Y2D01*
X120Y2D01*
X121Y2D01*
X122Y2D01*
X123Y2D01*
X124Y2D01*
X125Y2D01*
X126Y2D01*
X127Y2D01*
X128Y2D01*
X129Y2D01*
X130Y2D01*
X131Y2D01*
X132Y2D01*
X133Y2D01*
X134Y2D01*
X135Y2D01*
X136Y2D01*
X137Y2D01*
X138Y2D01*
X139Y2D01*
X140Y2D01*
X141Y2D01*
X142Y2D01*
X143Y2D01*
X144Y2D01*
X145Y2D01*
X146Y2D01*
X147Y2D01*
X148Y2D01*
X149Y2D01*
X150Y2D01*
X151Y2D01*
X152Y2D01*
X153Y2D01*
X154Y2D01*
X155Y2D01*
X156Y2D01*
X157Y2D01*
X158Y2D01*
X159Y2D01*
X160Y2D01*
X161Y2D01*
X162Y2D01*
X163Y2D01*
X164Y2D01*
X165Y2D01*
X166Y2D01*
X167Y2D01*
X168Y2D01*
X169Y2D01*
X170Y2D01*
X171Y2D01*
X172Y2D01*
X173Y2D01*
X174Y2D01*
X175Y2D01*
X176Y2D01*
X177Y2D01*
X178Y2D01*
X179Y2D01*
X180Y2D01*
X181Y2D01*
X182Y2D01*
X183Y2D01*
X184Y2D01*
X185Y2D01*
X186Y2D01*
X187Y2D01*
X188Y2D01*
X189Y2D01*
X190Y2D01*
X191Y2D01*
X192Y2D01*
X193Y2D01*
X194Y2D01*
X195Y2D01*
X196Y2D01*
X197Y2D01*
X198Y2D01*
X199Y2D01*
X200Y2D01*
X201Y2D01*
X202Y2D01*
X203Y2D01*
X204Y2D01*
X205Y2D01*
X206Y2D01*
X207Y2D01*
X208Y2D01*
X209Y2D01*
X210Y2D01*
X211Y2D01*
X212Y2D01*
X213Y2D01*
X214Y2D01*
X215Y2D01*
X216Y2D01*
X217Y2D01*
X218Y2D01*
X219Y2D01*
X220Y2D01*
X221Y2D01*
X222Y2D01*
X223Y2D01*
X224Y2D01*
X225Y2D01*
X226Y2D01*
X227Y2D01*
X228Y2D01*
X229Y2D01*
X230Y2D01*
X231Y2D01*
X232Y2D01*
X233Y2D01*
X234Y2D01*
X235Y2D01*
X236Y2D01*
X237Y2D01*
X238Y2D01*
X239Y2D01*
X240Y2D01*
X241Y2D01*
X242Y2D01*
X243Y2D01*
X244Y2D01*
X245Y2D01*
X246Y2D01*
X247Y2D01*
X248Y2D01*
X249Y2D01*
X250Y2D01*
X251Y2D01*
X252Y2D01*
X253Y2D01*
X254Y2D01*
X255Y2D01*
X256Y2D01*
X257Y2D01*
X258Y2D01*
X259Y2D01*
X260Y2D01*
X261Y2D01*
X262Y2D01*
X263Y2D01*
X264Y2D01*
X265Y2D01*
X266Y2D01*
X267Y2D01*
X268Y2D01*
X269Y2D01*
X270Y1D01*
X271Y1D01*
X272Y1D01*
X273Y1D01*
X274Y1D01*
X275Y1D01*
X276Y1D01*
X277Y1D01*
X278Y1D01*
X279Y1D01*
X280Y1D01*
X281Y1D01*
X282Y1D01*
X283Y1D01*
X284Y1D01*
X285Y1D01*
X286Y1D01*
X287Y1D01*
X288Y1D01*
X289Y1D01*
X290Y1D01*
X291Y1D01*
X292Y1D01*
X293Y1D01*
X294Y1D01*
X295Y1D01*
X296Y1D01*
X297Y1D01*
X298Y1D01*
X299Y1D01*
X300Y1D01*
X301Y1D01*
X302Y1D01*
X303Y1D01*
X304Y1D01*
X305Y1D01*
X306Y1D01*
X307Y1D01*
X308Y1D01*
X309Y1D01*
X310Y1D01*
X311Y1D01*
X312Y1D01*
X313Y1D01*
X314Y1D01*
X315Y1D01*
X316Y1D01*
X317Y1D01*
X318Y1D01*
X319Y1D01*
X320Y1D01*
X321Y1D01*
X322Y1D01*
X323Y1D01*
X324Y1D01*
X325Y1D01*
X326Y1D01*
X327Y1D01*
X328Y1D01*
X329Y1D01*
X330Y1D01*
X331Y1D01*
X332Y1D01*
X333Y1D01*
X334Y1D01*
X335Y1D01*
X336Y1D01*
X337Y1D01*
X338Y1D01*
X339Y1D01*
X340Y1D01*
X341Y1D01*
X342Y1D01*
X343Y1D01*
X344Y1D01*
X345Y1D01*
X346Y1D01*
X347Y1D01*
X348Y1D01*
X349Y1D01*
X350Y1D01*
X351Y1D01*
X352Y1D01*
X353Y1D01*
X354Y1D01*
X355Y1D01*
X356Y1D01*
X357Y1D01*
X358Y1D01*
X359Y1D01*
X360Y1D01*
X361Y1D01*
X362Y1D01*
X363Y1D01*
X364Y1D01*
X365Y1D01*
X366Y1D01*
X367Y1D01*
X368Y1D01*
X369Y1D01*
X370Y1D01*
X371Y1D01*
X372Y1D01*
X373Y1D01*
X374Y1D01*
X375Y1D01*
X376Y1D01*
X377Y1D01*
X378Y1D01*
X379Y1D01*
X380Y1D01*
X381Y1D01*
X382Y1D01*
X383Y1D01*
X384Y1D01*
X385Y1D01*
X386Y1D01*
X387Y1D01*
X388Y1D01*
X389Y1D01*
X390Y1D01*
X391Y1D01*
X392Y1D01*
X393Y1D01*
X394Y1D01*
X395Y1D01*
X396Y1D01*
X397Y1D01*
X398Y1D01*
X399Y1D01*
X400Y1D01*
X401Y1D01*
X402Y1D01*
X403Y1D01*
X404Y1D01*
X405Y1D01*
X406Y1D01*
X407Y1D01*
X408Y1D01*
X409Y1D01*
X410Y1D01*
X411Y1D01*
X412Y1D01*
X413Y1D01*
X414Y1D01*
X415Y1D01*
X416Y1D01*
X417Y1D01*
X418Y1D01*
X419Y1D01*
X420Y1D01*
X421Y1D01*
X422Y1D01*
X423Y1D01*
X424Y1D01*
X425Y1D01*
X426Y1D01*
X427Y1D01*
X428Y1D01*
X429Y1D01*
X430Y1D01*
X431Y1D01*
X432Y1D01*
X433Y1D01*
X434Y1D01*
X435Y1D01*
X436Y1D01*
X437Y1D01*
X438Y1D01*
X439Y1D01*
X440Y1D01*
X441Y1D01*
X442Y1D01*
X443Y1D01*
X444Y1D01*
X445Y1D01*
X446Y1D01*
X447Y1D01*
X448Y1D01*
X449Y1D01*
X450Y1D01*
X451Y1D01*
X452Y1D01*
X453Y1D01*
X454Y1D01*
X455Y1D01*
X456Y1D01*
X457Y1D01*
X458Y1D01*
X459Y1D01*
X460Y1D01*
X461Y1D01*
X462Y1D01*
X463Y1D01*
X464Y1D01*
X465Y1D01*
X466Y1D01*
X467Y1D01*
X468Y1D01*
X469Y1D01*
X470Y1D01*
X471Y1D01*
X472Y1D01*
X473Y1D01*
X474Y1D01*
X475Y1D01*
X476Y1D01*
X477Y1D01*
X478Y1D01*
X479Y1D01*
X480Y1D01*
X481Y1D01*
X482Y1D01*
X483Y1D01*
X484Y1D01*
X485Y1D01*
X486Y1D01*
X487Y1D01*
X488Y1D01*
X489Y1D01*
X490Y1D01*
X491Y1D01*
X492Y1D01*
X493Y1D01*
X494Y1D01*
X495Y1D01*
X496Y1D01*
X497Y1D01*
X498Y1D01*
X499Y1D01*
X500Y1D01*
X501Y1D01*
X502Y1D01*
X503Y1D01*
X504Y1D01*
X505Y1D01*
X506Y1D01*
X507Y1D01*
X508Y1D01*
X509Y1D01*
X510Y1D01*
X511Y1D01*
X512Y1D01*
X513Y1D01*
X514Y1D01*
X515Y1D01*
X516Y1D01*
X517Y1D01*
X518Y1D01*
X519Y1D01*
X520Y1D01*
X521Y1D01*
X522Y1D01*
X523Y1D01*
X524Y1D01*
X525Y1D01*
X526Y1D01*
X527Y1D01*
X528Y1D01*
X529Y1D01*
X530Y1D01*
X531Y1D01*
X532Y1D01*
X533Y1D01*
X534Y1D01*
X535Y1D01*
X536Y1D01*
X537Y1D01*
X538Y1D01*
X539Y1D01*
X540Y1D01*
X541Y1D01*
X542Y1D01*
X543Y1D01*
X544Y1D01*
X545Y1D01*
X546Y1D01*
X547Y1D01*
X548Y1D01*
X549Y1D01*
X550Y1D01*
X551Y1D01*
X552Y1D01*
X553Y1D01*
X554Y1D01*
X555Y1D01*
X556Y1D01*
X557Y1D01*
X558Y1D01*
X559Y1D01*
X560Y1D01*
X561Y1D01*
X562Y1D01*
X563Y1D01*
X564Y1D01*
X565Y1D01*
X566Y1D01*
X567Y1D01*
X568Y1D01*
X569Y1D01*
X570Y1D01*
X571Y1D01*
X572Y1D01*
X573Y1D01*
X574Y1D01*
X575Y1D01*
X576Y1D01*
X577Y1D01*
X578Y1D01*
X579Y1D01*
X580Y1D01*
X581Y1D01*
X582Y1D01*
X583Y1D01*
X584Y1D01*
X585Y1D01*
X586Y1D01*
X587Y1D01*
X588Y1D01*
X589Y1D01*
X590Y1D01*
X591Y1D01*
X592Y1D01*
X593Y1D01*
X594Y1D01*
X595Y1D01*
X596Y1D01*
X597Y1D01*
X598Y1D01*
X599Y1D01*
X600Y1D01*
X601Y1D01*
X602Y1D01*
X603Y1D01*
X604Y1D01*
X605Y1D01*
X606Y1D01*
X607Y1D01*
X608Y1D01*
X609Y1D01*
X610Y1D01*
X611Y1D01*
X612Y1D01*
X613Y1D01*
X614Y1D01*
X615Y1D01*
X616Y1D01*
X617Y1D01*
X618Y1D01*
X619Y1D01*
X620Y1D01*
X621Y1D01*
X622Y1D01*
X623Y1D01*
X624Y1D01*
X625Y1D01*
X626Y1D01*
X627Y1D01*
X628Y1D01*
X629Y1D01*
X630Y1D01*
X631Y1D01*
X632Y1D01*
X633Y1D01*
X634Y1D01*
X635Y1D01*
X636Y1D01*
X637Y1D01*
X638Y1D01*
X639Y1D01*
X640Y1D01*
X641Y1D01*
X642Y1D01*
X643Y1D01*
X644Y1D01*
X645Y1D01*
X646Y1D01*
X647Y1D01*
X648Y1D01*
X649Y1D01*
X650Y1D01*
X651Y1D01*
X652Y1D01*
X653Y1D01*
X654Y1D01*
X655Y1D01*
X656Y1D01*
X657Y1D01*
X658Y1D01*
X659Y1D01*
X660Y1D01*
X661Y1D01*
X662Y1D01*
X663Y1D01*
X664Y1D01*
X665Y1D01*
X666Y1D01*
X667Y1D01*
X668Y1D01*
X669Y1D01*
X670Y1D01*
X671Y1D01*
X672Y1D01*
X673Y1D01*
X674Y1D01*
X675Y1D01*
X676Y1D01*
X677Y1D01*
X678Y1D01*
X679Y1D01*
X680Y1D01*
X681Y1D01*
X682Y1D01*
X683Y1D01*
X684Y1D01*
X685Y1D01*
X686Y1D01*
X687Y1D01*
X688Y1D01*
X689Y1D01*
X690Y1D01*
X691Y1D01*
X692Y1D01*
X693Y1D01*
X694Y1D01*
X695Y1D01*
X696Y1D01*
X697Y1D01*
X698Y1D01*
X699Y1D01*
X700Y1D01*
X701Y1D01*
X702Y1D01*
X703Y1D01*
X704Y1D01*
X705Y1D01*
X706Y1D01*
X707Y1D01*
X708Y1D01*
X709Y1D01*
X710Y1D01*
X711Y1D01*
X712Y1D01*
X713Y1D01*
X714Y1D01*
X715Y1D01*
X716Y1D01*
X717Y1D01*
X718Y1D01*
X719Y1D01*
X720Y1D01*
X721Y1D01*
X722Y1D01*
X723Y1D01*
X724Y1D01*
X725Y1D01*
X726Y1D01*
X727Y1D01*
X728Y1D01*
X729Y1D01*
X730Y1D01*
X731Y1D01*
X732Y1D01*
X733Y1D01*
X734Y1D01*
X735Y1D01*
X736Y1D01*
X737Y1D01*
X738Y1D01*
X739Y1D01*
X740Y1D01*
X741Y1D01*
X742Y1D01*
X743Y1D01*
X744Y1D01*
X745Y1D01*
X746Y1D01*
X747Y1D01*
X748Y1D01*
X749Y1D01*
X750Y1D01*
X751Y1D01*
X752Y1D01*
X753Y1D01*
X754Y1D01*
X755Y1D01*
X756Y1D01*
X757Y1D01*
X758Y1D01*
X759Y1D01*
X760Y1D01*
X761Y1D01*
X762Y1D01*
X763Y1D01*
X764Y1D01*
X765Y1D01*
X766Y1D01*
X767Y1D01*
X768Y1D01*
X769Y1D01*
X770Y1D01*
X771Y1D01*
X772Y1D01*
X773Y1D01*
X774Y1D01*
X775Y1D01*
X776Y1D01*
X777Y1D01*
X778Y1D01*
X779Y1D01*
X780Y1D01*
X781Y1D01*
X782Y1D01*
X783Y1D01*
X784Y1D01*
X785Y1D01*
X786Y1D01*
X787Y1D01*
X788Y1D01*
X789Y1D01*
X790Y1D01*
X791Y1D01*
X792Y1D01*
X793Y1D01*
X794Y1D01*
X795Y1D01*
X796Y1D01*
X797Y1D01*
X798Y1D01*
X799Y1D01*
X800Y1D01*
X801Y1D01*
X802Y1D01*
X803Y1D01*
X804Y1D01*
X805Y1D01*
X806Y1D01*
X807Y1D01*
X808Y1D01*
X809Y1D01*
X810Y1D01*
X811Y1D01*
X812Y1D01*
X813Y1D01*
X814Y1D01*
X815Y1D01*
X816Y1D01*
X817Y1D01*
X818Y1D01*
X819Y1D01*
X820Y1D01*
X821Y1D01*
X822Y1D01*
X823Y1D01*
X824Y1D01*
X825Y1D01*
X826Y1D01*
X827Y1D01*
X828Y1D01*
X829Y1D01*
X830Y1D01*
X831Y1D01*
X832Y1D01*
X833Y1D01*
X834Y1D01*
X835Y1D01*
X836Y1D01*
X837Y1D01*
X838Y1D01*
X839Y1D01*
X840Y1D01*
X841Y1D01*
X842Y1D01*
X843Y1D01*
X844Y1D01*
X845Y1D01*
X846Y1D01*
X847Y1D01*
X848Y1D01*
X849Y1D01*
X850Y1D01*
X851Y1D01*
X852Y1D01*
X853Y1D01*
X854Y1D01*
X855Y1D01*
X856Y1D01*
X857Y1D01*
X858Y1D01*
X859Y1D01*
X860Y1D01*
X861Y1D01*
X862Y1D01*
X863Y1D01*
X864Y1D01*
X865Y1D01*
X866Y1D01*
X867Y1D01*
X868Y1D01*
X869Y1D01*
X870Y1D01*
X871Y1D01*
X872Y1D01*
X873Y1D01*
X874Y1D01*
X875Y1D01*
X876Y1D01*
X877Y1D01*
X878Y1D01*
X879Y1D01*
X880Y1D01*
X881Y1D01*
X882Y1D01*
X883Y1D01*
X884Y1D01*
X885Y1D01*
X886Y1D01*
X887Y1D01*
X888Y1D01*
X889Y1D01*
X890Y1D01*
X891Y1D01*
X892Y1D01*
X893Y1D01*
X894Y1D01*
X895Y1D01*
X896Y1D01*
X897Y1D01*
X898Y1D01*
X899Y1D01*
X900Y1D01*
X901Y1D01*
X902Y1D01*
X903Y1D01*
X904Y1D01*
X905Y1D01*
X906Y1D01*
X907Y1D01*
X908Y1D01*
X909Y1D01*
X910Y1D01*
X911Y1D01*
X912Y1D01*
X913Y1D01*
X914Y1D01*
X915Y1D01*
X916Y1D01*
X917Y1D01*
X918Y1D01*
X919Y1D01*
X920Y1D01*
X921Y1D01*
X922Y1D01*
X923Y1D01*
X924Y1D01*
X925Y1D01*
X926Y1D01*
X927Y1D01*
X928Y1D01*
X929Y1D01*
X930Y1D01*
X931Y1D01*
X932Y1D01*
X933Y1D01*
X934Y1D01*
X935Y1D01*
X936Y1D01*
X937Y1D01*
X938Y1D01*
X939Y1D01*
X940Y1D01*
X941Y1D01*
X942Y1D01*
X943Y1D01*
X944Y1D01*
X945Y1D01*
X946Y1D01*
X947Y1D01*
X948Y1D01*
X949Y1D01*
X950Y1D01*
X951Y1D01*
X952Y1D01*
X953Y1D01*
X954Y1D01*
X955Y1D01*
X956Y1D01*
X957Y1D01*
X958Y1D01*
X959Y1D01*
X960Y1D01*
X961Y1D01*
X962Y1D01*
X963Y1D01*
X964Y1D01*
X965Y1D01*
X966Y1D01*
X967Y1D01*
X968Y1D01*
X969Y1D01*
X970Y1D01*
X971Y1D01*
X972Y1D01*
X973Y1D01*
X974Y1D01*
X975Y1D01*
X976Y1D01*
X977Y1D01*
X978Y1D01*
X979Y1D01*
X980Y1D01*
X981Y1D01*
X982Y1D01*
X983Y1D01*
X984Y1D01*
X985Y1D01*
X986Y1D01*
X987Y1D01*
X988Y1D01*
X989Y1D01*
X990Y1D01*
X991Y1D01*
X992Y1D01*
X993Y1D01*
X994Y1D01*
X995Y1D01*
X996Y1D01*
X997Y1D01*
X998Y1D01*
X999Y1D01*
X1000Y1D01*
X1001Y1D01*
X1002Y1D01*
X1003Y1D01*
X1004Y1D01*
X1005Y1D01*
X1006Y1D01*
X1007Y1D01*
X1008Y1D01*
X1009Y1D01*
X1010Y1D01*
X1011Y1D01*
X1012Y1D01*
X1013Y1D01*
X1014Y1D01*
X1015Y1D01*
X1016Y1D01*
X1017Y1D01*
X1018Y1D01*
X1019Y1D01*
X1020Y1D01*
X1021Y1D01*
X1022Y1D01*
X1023Y1D01*
X1024Y1D01*
X1025Y1D01*
X1026Y1D01*
X1027Y1D01*
X1028Y1D01*
X1029Y1D01*
X1030Y1D01*
X1031Y1D01*
X1032Y1D01*
X1033Y1D01*
X1034Y1D01*
X1035Y1D01*
X1036Y1D01*
X1037Y1D01*
X1038Y1D01*
X1039Y1D01*
X1040Y1D01*
X1041Y1D01*
X1042Y1D01*
X1043Y1D01*
X1044Y1D01*
X1045Y1D01*
X1046Y1D01*
X1047Y1D01*
X1048Y1D01*
X1049Y1D01*
X1050Y1D01*
X1051Y1D01*
X1052Y1D01*
X1053Y1D01*
X1054Y1D01*
X1055Y1D01*
X1056Y1D01*
X1057Y1D01*
X1058Y1D01*
X1059Y1D01*
X1060Y1D01*
X1061Y1D01*
X1062Y1D01*
X1063Y1D01*
X1064Y1D01*
X1065Y1D01*
X1066Y1D01*
X1067Y1D01*
X1068Y1D01*
X1069Y1D01*
X1070Y1D01*
X1071Y1D01*
X1072Y1D01*
X1073Y1D01*
X1074Y1D01*
X1075Y1D01*
X1076Y1D01*
X1077Y1D01*
X1078Y1D01*
X1079Y1D01*
X1080Y1D01*
X1081Y1D01*
X1082Y1D01*
X1083Y1D01*
X1084Y1D01*
X1085Y1D01*
X1086Y1D01*
X1087Y1D01*
X1088Y1D01*
X1089Y1D01*
X1089Y14D01*
X1090Y15D01*
X1090Y78D01*
X1091Y79D01*
X1091Y143D01*
X1092Y144D01*
X1092Y159D01*
X1093Y160D01*
X1093Y161D01*
X1094Y162D01*
X1094Y163D01*
X1095Y164D01*
X1096Y165D01*
X1096Y166D01*
X1097Y167D01*
X1097Y168D01*
X1098Y169D01*
X1098Y170D01*
X1099Y171D01*
X1099Y172D01*
X1100Y173D01*
X1100Y174D01*
X1101Y175D01*
X1101Y176D01*
X1102Y177D01*
X1102Y178D01*
X1103Y179D01*
X1103Y180D01*
X1104Y181D01*
X1105Y182D01*
X1105Y183D01*
X1106Y184D01*
X1106Y185D01*
X1107Y186D01*
X1107Y187D01*
X1108Y188D01*
X1109Y189D01*
X1109Y190D01*
X1110Y191D01*
X1111Y192D01*
X1111Y193D01*
X1112Y194D01*
X1113Y195D01*
X1114Y196D01*
X1114Y197D01*
X1115Y198D01*
X1116Y199D01*
X1117Y200D01*
X1118Y201D01*
X1118Y202D01*
X1119Y203D01*
X1120Y204D01*
X1121Y205D01*
X1122Y206D01*
X1123Y207D01*
X1124Y208D01*
X1125Y209D01*
X1126Y210D01*
X1127Y211D01*
X1128Y212D01*
X1128Y213D01*
X1129Y214D01*
X1130Y214D01*
X1131Y215D01*
X1132Y216D01*
X1133Y217D01*
X1134Y218D01*
X1135Y219D01*
X1136Y220D01*
X1137Y221D01*
X1138Y222D01*
X1139Y222D01*
X1140Y223D01*
X1141Y224D01*
X1142Y225D01*
X1143Y226D01*
X1144Y226D01*
X1145Y227D01*
X1146Y228D01*
X1147Y229D01*
X1148Y229D01*
X1149Y230D01*
X1150Y231D01*
X1151Y231D01*
X1152Y232D01*
X1153Y233D01*
X1154Y233D01*
X1155Y234D01*
X1156Y234D01*
X1157Y235D01*
X1158Y235D01*
X1159Y236D01*
X1160Y237D01*
X1161Y237D01*
X1162Y238D01*
X1163Y238D01*
X1164Y239D01*
X1165Y239D01*
X1166Y240D01*
X1167Y240D01*
X1168Y240D01*
X1169Y241D01*
X1170Y241D01*
X1171Y242D01*
X1172Y242D01*
X1173Y242D01*
X1174Y243D01*
X1175Y243D01*
X1176Y243D01*
X1177Y243D01*
X1178Y243D01*
X1179Y244D01*
X1180Y244D01*
X1181Y244D01*
X1182Y244D01*
X1183Y244D01*
X1184Y245D01*
X1185Y245D01*
X1186Y245D01*
X1187Y245D01*
X1188Y245D01*
X1189Y245D01*
X1190Y245D01*
X1191Y245D01*
X1192Y245D01*
X1193Y246D01*
X1194Y246D01*
X1195Y246D01*
X1196Y246D01*
X1197Y246D01*
X1198Y246D01*
X1199Y246D01*
X1200Y246D01*
X1201Y246D01*
X1202Y246D01*
X1203Y246D01*
X1204Y246D01*
X1205Y246D01*
X1206Y246D01*
X1207Y246D01*
X1208Y246D01*
X1209Y246D01*
X1210Y246D01*
X1211Y246D01*
X1212Y247D01*
X1213Y247D01*
X1214Y247D01*
X1215Y247D01*
X1216Y247D01*
X1217Y247D01*
X1218Y247D01*
X1219Y247D01*
X1220Y247D01*
X1221Y247D01*
X1222Y247D01*
X1223Y247D01*
X1224Y247D01*
X1225Y247D01*
X1226Y247D01*
X1227Y247D01*
X1228Y247D01*
X1229Y247D01*
X1230Y247D01*
X1231Y247D01*
X1232Y247D01*
X1233Y247D01*
X1234Y247D01*
X1235Y247D01*
X1236Y247D01*
X1237Y247D01*
X1238Y247D01*
X1239Y247D01*
X1240Y247D01*
X1241Y247D01*
X1242Y247D01*
X1243Y247D01*
X1244Y247D01*
X1245Y247D01*
X1246Y247D01*
X1247Y247D01*
X1248Y247D01*
X1249Y247D01*
X1250Y247D01*
X1251Y247D01*
X1252Y247D01*
X1253Y247D01*
X1254Y247D01*
X1255Y247D01*
X1256Y247D01*
X1257Y248D01*
X1258Y248D01*
X1259Y248D01*
X1260Y248D01*
X1261Y248D01*
X1262Y248D01*
X1263Y248D01*
X1264Y248D01*
X1265Y248D01*
X1266Y248D01*
X1267Y248D01*
X1268Y248D01*
X1269Y248D01*
X1270Y248D01*
X1271Y248D01*
X1272Y248D01*
X1273Y248D01*
X1274Y248D01*
X1275Y248D01*
X1276Y248D01*
X1277Y248D01*
X1278Y248D01*
X1279Y248D01*
X1280Y248D01*
X1281Y248D01*
X1282Y248D01*
X1283Y248D01*
X1284Y248D01*
X1285Y248D01*
X1286Y248D01*
X1287Y248D01*
X1288Y248D01*
X1289Y248D01*
X1290Y248D01*
X1291Y248D01*
X1292Y248D01*
X1293Y248D01*
X1294Y248D01*
X1295Y248D01*
X1296Y248D01*
X1297Y248D01*
X1298Y248D01*
X1299Y248D01*
X1300Y248D01*
X1301Y248D01*
X1302Y248D01*
X1303Y248D01*
X1304Y248D01*
X1305Y248D01*
X1306Y248D01*
X1307Y248D01*
X1308Y248D01*
X1309Y248D01*
X1310Y248D01*
X1311Y248D01*
X1312Y248D01*
X1313Y248D01*
X1314Y248D01*
X1315Y248D01*
X1316Y248D01*
X1317Y248D01*
X1318Y248D01*
X1319Y248D01*
X1320Y248D01*
X1321Y249D01*
X1322Y249D01*
X1323Y249D01*
X1324Y249D01*
X1325Y249D01*
X1326Y249D01*
X1327Y249D01*
X1328Y249D01*
X1329Y249D01*
X1330Y249D01*
X1331Y249D01*
X1332Y249D01*
X1333Y249D01*
X1334Y249D01*
X1335Y249D01*
X1336Y249D01*
X1337Y249D01*
X1337Y2532D01*
X1336Y2533D01*
X1336Y2780D01*
X1335Y2781D01*
X1335Y2860D01*
X1334Y2861D01*
X1334Y2890D01*
X1333Y2891D01*
X1333Y2904D01*
X1332Y2905D01*
X1332Y2908D01*
X1331Y2909D01*
X1330Y2910D01*
X1330Y2911D01*
X1329Y2912D01*
X1328Y2913D01*
X1328Y2914D01*
X1327Y2915D01*
X1326Y2916D01*
X1325Y2917D01*
X1324Y2918D01*
X1323Y2919D01*
X1322Y2920D01*
X1321Y2921D01*
X1320Y2921D01*
X1319Y2922D01*
X1318Y2922D01*
X1317Y2922D01*
X1316Y2922D01*
X1315Y2922D01*
X1314Y2922D01*
X1313Y2922D01*
X1312Y2922D01*
X1311Y2922D01*
X1310Y2922D01*
X1309Y2922D01*
X1308Y2922D01*
X1307Y2922D01*
X1306Y2922D01*
X1305Y2922D01*
X1304Y2922D01*
X1303Y2922D01*
X1302Y2922D01*
X1301Y2922D01*
X1300Y2923D01*
X1299Y2923D01*
X1298Y2923D01*
X1297Y2923D01*
X1296Y2923D01*
X1295Y2923D01*
X1294Y2923D01*
X1293Y2923D01*
X1292Y2923D01*
X1291Y2923D01*
X1290Y2923D01*
X1289Y2923D01*
X1288Y2923D01*
X1287Y2923D01*
X1286Y2923D01*
X1285Y2923D01*
X1284Y2923D01*
X1283Y2923D01*
X1282Y2923D01*
X1281Y2923D01*
X1280Y2923D01*
X1279Y2923D01*
X1278Y2923D01*
X1277Y2923D01*
X1276Y2923D01*
X1275Y2923D01*
X1274Y2923D01*
X1273Y2923D01*
X1272Y2923D01*
X1271Y2923D01*
X1270Y2923D01*
X1269Y2923D01*
X1268Y2923D01*
X1267Y2923D01*
X1266Y2923D01*
X1265Y2923D01*
X1264Y2923D01*
X1263Y2923D01*
X1262Y2923D01*
X1261Y2923D01*
X1260Y2923D01*
X1259Y2923D01*
X1258Y2923D01*
X1257Y2923D01*
X1256Y2923D01*
X1255Y2923D01*
X1254Y2923D01*
X1253Y2923D01*
X1252Y2923D01*
X1251Y2923D01*
X1250Y2923D01*
X1249Y2923D01*
X1248Y2924D01*
X1247Y2924D01*
X1246Y2924D01*
X1245Y2924D01*
X1244Y2924D01*
X1243Y2924D01*
X1242Y2924D01*
X1241Y2924D01*
X1240Y2924D01*
X1239Y2924D01*
X1238Y2924D01*
X1237Y2924D01*
X1236Y2924D01*
X1235Y2924D01*
X1234Y2924D01*
X1233Y2924D01*
X1232Y2924D01*
X1231Y2924D01*
X1230Y2924D01*
X1229Y2924D01*
X1228Y2924D01*
X1227Y2924D01*
X1226Y2924D01*
X1225Y2924D01*
X1224Y2924D01*
X1223Y2924D01*
X1222Y2924D01*
X1221Y2924D01*
X1220Y2924D01*
X1219Y2924D01*
X1218Y2924D01*
X1217Y2924D01*
X1216Y2924D01*
X1215Y2924D01*
X1214Y2924D01*
X1213Y2924D01*
X1212Y2924D01*
X1211Y2924D01*
X1210Y2924D01*
X1209Y2924D01*
X1208Y2924D01*
X1207Y2924D01*
X1206Y2924D01*
X1205Y2924D01*
X1204Y2924D01*
X1203Y2924D01*
X1202Y2924D01*
X1201Y2924D01*
X1200Y2924D01*
X1199Y2924D01*
X1198Y2924D01*
X1197Y2924D01*
X1196Y2924D01*
X1195Y2924D01*
X1194Y2924D01*
X1193Y2924D01*
X1192Y2924D01*
X1191Y2924D01*
X1190Y2924D01*
X1189Y2924D01*
X1188Y2924D01*
X1187Y2924D01*
X1186Y2924D01*
X1185Y2924D01*
X1184Y2924D01*
X1183Y2924D01*
X1182Y2924D01*
X1181Y2924D01*
X1180Y2924D01*
X1179Y2924D01*
X1178Y2924D01*
X1177Y2924D01*
X1176Y2924D01*
X1175Y2924D01*
X1174Y2924D01*
X1173Y2924D01*
X1172Y2924D01*
X1171Y2924D01*
X1170Y2924D01*
X1169Y2924D01*
X1168Y2924D01*
X1167Y2924D01*
X1166Y2924D01*
X1165Y2924D01*
X1164Y2924D01*
X1163Y2924D01*
X1162Y2924D01*
X1161Y2924D01*
X1160Y2924D01*
X1159Y2924D01*
X1158Y2924D01*
X1157Y2924D01*
X1156Y2924D01*
X1155Y2924D01*
X1154Y2924D01*
X1153Y2924D01*
X1152Y2924D01*
X1151Y2924D01*
X1150Y2924D01*
X1149Y2924D01*
X1148Y2924D01*
X1147Y2924D01*
X1146Y2924D01*
X1145Y2924D01*
X1144Y2924D01*
X1143Y2924D01*
X1142Y2924D01*
X1141Y2924D01*
X1140Y2924D01*
X1139Y2924D01*
X1138Y2924D01*
X1137Y2924D01*
X1136Y2924D01*
X1135Y2924D01*
X1134Y2924D01*
X1133Y2924D01*
X1132Y2924D01*
X1131Y2924D01*
X1130Y2924D01*
X1129Y2924D01*
X1128Y2924D01*
X1127Y2924D01*
X1126Y2924D01*
X1125Y2924D01*
X1124Y2924D01*
X1123Y2924D01*
X1122Y2924D01*
X1121Y2924D01*
X1120Y2924D01*
X1119Y2924D01*
X1118Y2924D01*
X1117Y2924D01*
X1116Y2924D01*
X1115Y2924D01*
X1114Y2924D01*
X1113Y2924D01*
X1112Y2924D01*
X1111Y2924D01*
X1110Y2924D01*
X1109Y2924D01*
X1108Y2924D01*
X1107Y2924D01*
X1106Y2924D01*
X1105Y2924D01*
X1104Y2924D01*
X1103Y2924D01*
X1102Y2924D01*
X1101Y2924D01*
X1100Y2924D01*
X1099Y2924D01*
X1098Y2924D01*
X1097Y2924D01*
X1096Y2924D01*
X1095Y2924D01*
X1094Y2924D01*
X1093Y2924D01*
X1092Y2924D01*
X1091Y2924D01*
X1090Y2924D01*
X1089Y2924D01*
X1088Y2924D01*
X1087Y2924D01*
X1086Y2925D01*
X1085Y2925D01*
X1084Y2925D01*
X1083Y2925D01*
X1082Y2925D01*
X1081Y2925D01*
X1080Y2925D01*
X1079Y2925D01*
X1078Y2925D01*
X1077Y2925D01*
X1076Y2925D01*
X1075Y2925D01*
X1074Y2925D01*
X1073Y2925D01*
X1072Y2925D01*
X1071Y2925D01*
X1070Y2925D01*
X1069Y2925D01*
X1068Y2925D01*
X1067Y2925D01*
X1066Y2925D01*
X1065Y2925D01*
X1064Y2925D01*
X1063Y2925D01*
X1062Y2925D01*
X1061Y2925D01*
X1060Y2925D01*
X1059Y2925D01*
X1058Y2925D01*
X1057Y2925D01*
X1056Y2925D01*
X1055Y2925D01*
X1054Y2925D01*
X1053Y2925D01*
X1052Y2925D01*
X1051Y2925D01*
X1050Y2925D01*
X1049Y2925D01*
X1048Y2925D01*
X1047Y2925D01*
X1046Y2925D01*
X1045Y2925D01*
X1044Y2925D01*
X1043Y2925D01*
X1042Y2925D01*
X1041Y2925D01*
X1040Y2925D01*
X1039Y2925D01*
X1038Y2925D01*
X1037Y2925D01*
X1036Y2925D01*
X1035Y2925D01*
X1034Y2925D01*
X1033Y2925D01*
X1032Y2925D01*
X1031Y2925D01*
X1030Y2925D01*
X1029Y2925D01*
X1028Y2925D01*
X1027Y2925D01*
X1026Y2925D01*
X1025Y2925D01*
X1024Y2925D01*
X1023Y2925D01*
X1022Y2925D01*
X1021Y2925D01*
X1020Y2925D01*
X1019Y2925D01*
X1018Y2925D01*
X1017Y2925D01*
X1016Y2925D01*
X1015Y2925D01*
X1014Y2925D01*
X1013Y2925D01*
X1012Y2925D01*
X1011Y2925D01*
X1010Y2925D01*
X1009Y2925D01*
X1008Y2925D01*
X1007Y2925D01*
X1006Y2925D01*
X1005Y2925D01*
X1004Y2925D01*
X1003Y2925D01*
X1002Y2925D01*
X1001Y2925D01*
X1000Y2925D01*
X999Y2925D01*
X998Y2925D01*
X997Y2925D01*
X996Y2925D01*
X995Y2925D01*
X994Y2925D01*
X993Y2925D01*
X992Y2925D01*
X991Y2925D01*
X990Y2925D01*
X989Y2925D01*
X988Y2925D01*
X987Y2925D01*
X986Y2925D01*
X985Y2925D01*
X984Y2925D01*
X983Y2925D01*
X982Y2925D01*
X981Y2925D01*
X980Y2925D01*
X979Y2925D01*
X978Y2925D01*
X977Y2925D01*
X976Y2925D01*
X975Y2925D01*
X974Y2925D01*
X973Y2925D01*
X972Y2925D01*
X971Y2925D01*
X970Y2925D01*
X969Y2925D01*
X968Y2925D01*
X967Y2925D01*
X966Y2925D01*
X965Y2925D01*
X964Y2925D01*
X963Y2925D01*
X962Y2925D01*
X961Y2925D01*
X960Y2925D01*
X959Y2925D01*
X958Y2925D01*
X957Y2925D01*
X956Y2925D01*
X955Y2925D01*
X954Y2925D01*
X953Y2925D01*
X952Y2925D01*
X951Y2925D01*
X950Y2925D01*
X949Y2925D01*
X948Y2925D01*
X947Y2925D01*
X946Y2925D01*
X945Y2925D01*
X944Y2925D01*
X943Y2925D01*
X942Y2925D01*
X941Y2925D01*
X940Y2925D01*
X939Y2925D01*
X938Y2925D01*
X937Y2925D01*
X936Y2925D01*
X935Y2925D01*
X934Y2925D01*
X933Y2925D01*
X932Y2925D01*
X931Y2925D01*
X930Y2925D01*
X929Y2925D01*
X928Y2925D01*
X927Y2925D01*
X926Y2925D01*
X925Y2925D01*
X924Y2925D01*
X923Y2925D01*
X922Y2925D01*
X921Y2925D01*
X920Y2925D01*
X919Y2925D01*
X918Y2925D01*
X917Y2925D01*
X916Y2925D01*
X915Y2925D01*
X914Y2925D01*
X913Y2925D01*
X912Y2925D01*
X911Y2925D01*
X910Y2925D01*
X909Y2925D01*
X908Y2925D01*
X907Y2925D01*
X906Y2925D01*
X905Y2925D01*
X904Y2925D01*
X903Y2925D01*
X902Y2925D01*
X901Y2925D01*
X900Y2925D01*
X899Y2925D01*
X898Y2925D01*
X897Y2925D01*
X896Y2925D01*
X895Y2925D01*
X894Y2925D01*
X893Y2925D01*
X892Y2925D01*
X891Y2925D01*
X890Y2925D01*
X889Y2925D01*
X888Y2925D01*
X887Y2925D01*
X886Y2925D01*
X885Y2925D01*
X884Y2925D01*
X883Y2925D01*
X882Y2925D01*
X881Y2925D01*
X880Y2925D01*
X879Y2925D01*
X878Y2925D01*
X877Y2925D01*
X876Y2925D01*
X875Y2925D01*
X874Y2925D01*
X873Y2925D01*
X872Y2925D01*
X871Y2925D01*
X870Y2925D01*
X869Y2925D01*
X868Y2925D01*
X867Y2925D01*
X866Y2925D01*
X865Y2925D01*
X864Y2925D01*
X863Y2925D01*
X862Y2925D01*
X861Y2925D01*
X860Y2925D01*
X859Y2925D01*
X858Y2925D01*
X857Y2925D01*
X856Y2925D01*
X855Y2925D01*
X854Y2925D01*
X853Y2925D01*
X852Y2925D01*
X851Y2925D01*
X850Y2925D01*
X849Y2925D01*
X848Y2925D01*
X847Y2925D01*
X846Y2925D01*
X845Y2925D01*
X844Y2925D01*
X843Y2925D01*
X842Y2925D01*
X841Y2925D01*
X840Y2925D01*
X839Y2925D01*
X838Y2925D01*
X837Y2925D01*
X836Y2925D01*
X835Y2925D01*
X834Y2925D01*
X833Y2925D01*
X832Y2925D01*
X831Y2925D01*
X830Y2925D01*
X829Y2925D01*
X828Y2925D01*
X827Y2925D01*
X826Y2925D01*
X825Y2925D01*
X824Y2925D01*
X823Y2925D01*
X822Y2925D01*
X821Y2925D01*
X820Y2925D01*
X819Y2925D01*
X818Y2925D01*
X817Y2925D01*
X816Y2925D01*
X815Y2925D01*
X814Y2925D01*
X813Y2925D01*
X812Y2925D01*
X811Y2925D01*
X810Y2925D01*
X809Y2925D01*
X808Y2925D01*
X807Y2925D01*
X806Y2925D01*
X805Y2925D01*
X804Y2925D01*
X803Y2925D01*
X802Y2925D01*
X801Y2925D01*
X800Y2925D01*
X799Y2925D01*
X798Y2925D01*
X797Y2925D01*
X796Y2925D01*
X795Y2925D01*
X794Y2925D01*
X793Y2925D01*
X792Y2925D01*
X791Y2925D01*
X790Y2925D01*
X789Y2925D01*
X788Y2925D01*
X787Y2925D01*
X786Y2925D01*
X785Y2925D01*
X784Y2925D01*
X783Y2925D01*
X782Y2925D01*
X781Y2925D01*
X780Y2925D01*
X779Y2925D01*
X778Y2925D01*
X777Y2925D01*
X776Y2925D01*
X775Y2925D01*
X774Y2925D01*
X773Y2925D01*
X772Y2925D01*
X771Y2925D01*
X770Y2925D01*
X769Y2925D01*
X768Y2925D01*
X767Y2925D01*
X766Y2925D01*
X765Y2925D01*
X764Y2925D01*
X763Y2925D01*
X762Y2925D01*
X761Y2925D01*
X760Y2925D01*
X759Y2925D01*
X758Y2925D01*
X757Y2925D01*
X756Y2925D01*
X755Y2925D01*
X754Y2925D01*
X753Y2925D01*
X752Y2925D01*
X751Y2925D01*
X750Y2925D01*
X749Y2925D01*
X748Y2925D01*
X747Y2925D01*
X746Y2925D01*
X745Y2925D01*
X744Y2925D01*
X743Y2925D01*
X742Y2925D01*
X741Y2925D01*
X740Y2925D01*
X739Y2925D01*
X738Y2925D01*
X737Y2925D01*
X736Y2925D01*
X735Y2925D01*
X734Y2925D01*
X733Y2925D01*
X732Y2925D01*
X731Y2925D01*
X730Y2925D01*
X729Y2925D01*
X728Y2925D01*
X727Y2925D01*
X726Y2925D01*
X725Y2925D01*
X724Y2925D01*
X723Y2925D01*
X722Y2925D01*
X721Y2925D01*
X720Y2925D01*
X719Y2925D01*
X718Y2925D01*
X717Y2925D01*
X716Y2925D01*
X715Y2925D01*
X714Y2925D01*
X713Y2925D01*
X712Y2925D01*
X711Y2925D01*
X710Y2925D01*
X709Y2925D01*
X708Y2925D01*
X707Y2925D01*
X706Y2925D01*
X705Y2925D01*
X704Y2925D01*
X703Y2925D01*
X702Y2925D01*
X701Y2925D01*
X700Y2925D01*
X699Y2925D01*
X698Y2925D01*
X697Y2925D01*
X696Y2925D01*
X695Y2925D01*
X694Y2925D01*
X693Y2925D01*
X692Y2925D01*
X691Y2925D01*
X690Y2925D01*
X689Y2925D01*
X688Y2925D01*
X687Y2925D01*
X686Y2925D01*
X685Y2925D01*
X684Y2925D01*
X683Y2925D01*
X682Y2925D01*
X681Y2925D01*
X680Y2925D01*
X679Y2925D01*
X678Y2925D01*
X677Y2925D01*
X676Y2925D01*
X675Y2925D01*
X674Y2925D01*
X673Y2925D01*
X672Y2925D01*
X671Y2925D01*
X670Y2925D01*
X669Y2925D01*
X668Y2925D01*
X667Y2925D01*
X666Y2925D01*
X665Y2925D01*
X664Y2925D01*
X663Y2925D01*
X662Y2925D01*
X661Y2925D01*
X660Y2925D01*
X659Y2925D01*
X658Y2925D01*
X657Y2925D01*
X656Y2925D01*
X655Y2925D01*
X654Y2925D01*
X653Y2925D01*
X652Y2925D01*
X651Y2925D01*
X650Y2925D01*
X649Y2925D01*
X648Y2925D01*
X647Y2925D01*
X646Y2925D01*
X645Y2925D01*
X644Y2925D01*
X643Y2925D01*
X642Y2925D01*
X641Y2925D01*
X640Y2925D01*
X639Y2925D01*
X638Y2925D01*
X637Y2925D01*
X636Y2925D01*
X635Y2925D01*
X634Y2925D01*
X633Y2925D01*
X632Y2925D01*
X631Y2925D01*
X630Y2925D01*
X629Y2925D01*
X628Y2925D01*
X627Y2925D01*
X626Y2925D01*
X625Y2925D01*
X624Y2925D01*
X623Y2925D01*
X622Y2925D01*
X621Y2925D01*
X620Y2925D01*
X619Y2925D01*
X618Y2925D01*
X617Y2925D01*
X616Y2925D01*
X615Y2925D01*
X614Y2925D01*
X613Y2925D01*
X612Y2925D01*
X611Y2925D01*
X610Y2925D01*
X609Y2925D01*
X608Y2925D01*
X607Y2925D01*
X606Y2925D01*
X605Y2925D01*
X604Y2925D01*
X603Y2925D01*
X602Y2925D01*
X601Y2925D01*
X600Y2925D01*
X599Y2925D01*
X598Y2925D01*
X597Y2925D01*
X596Y2925D01*
X595Y2925D01*
X594Y2925D01*
X593Y2925D01*
X592Y2925D01*
X591Y2925D01*
X590Y2925D01*
X589Y2925D01*
X588Y2925D01*
X587Y2925D01*
X586Y2925D01*
X585Y2925D01*
X584Y2925D01*
X583Y2925D01*
X582Y2925D01*
X581Y2925D01*
X580Y2925D01*
X579Y2925D01*
X578Y2925D01*
X577Y2925D01*
X576Y2925D01*
X575Y2925D01*
X574Y2925D01*
X573Y2925D01*
X572Y2925D01*
X571Y2925D01*
X570Y2925D01*
X569Y2925D01*
X568Y2925D01*
X567Y2925D01*
X566Y2925D01*
X565Y2925D01*
X564Y2925D01*
X563Y2925D01*
X562Y2925D01*
X561Y2925D01*
X560Y2925D01*
X559Y2925D01*
X558Y2925D01*
X557Y2925D01*
X556Y2925D01*
X555Y2925D01*
X554Y2925D01*
X553Y2925D01*
X552Y2925D01*
X551Y2925D01*
X550Y2925D01*
X549Y2925D01*
X548Y2925D01*
X547Y2925D01*
X546Y2925D01*
X545Y2925D01*
X544Y2925D01*
X543Y2925D01*
X542Y2925D01*
X541Y2925D01*
X540Y2925D01*
X539Y2925D01*
X538Y2925D01*
X537Y2925D01*
X536Y2925D01*
X535Y2925D01*
X534Y2925D01*
X533Y2925D01*
X532Y2925D01*
X531Y2925D01*
X530Y2925D01*
X529Y2925D01*
X528Y2925D01*
X527Y2925D01*
X526Y2925D01*
X525Y2925D01*
X524Y2925D01*
X523Y2925D01*
X522Y2925D01*
X521Y2925D01*
X520Y2925D01*
X519Y2925D01*
X518Y2925D01*
X517Y2925D01*
X516Y2925D01*
X515Y2925D01*
X514Y2925D01*
X513Y2925D01*
X512Y2925D01*
X511Y2925D01*
X510Y2925D01*
X509Y2925D01*
X508Y2925D01*
X507Y2925D01*
X506Y2925D01*
X505Y2925D01*
X504Y2925D01*
X503Y2925D01*
X502Y2925D01*
X501Y2925D01*
X500Y2925D01*
X499Y2925D01*
X498Y2925D01*
X497Y2925D01*
X496Y2925D01*
X495Y2925D01*
X494Y2925D01*
X493Y2925D01*
X492Y2925D01*
X491Y2925D01*
X490Y2925D01*
X489Y2925D01*
X488Y2925D01*
X487Y2925D01*
X486Y2925D01*
X485Y2925D01*
X484Y2925D01*
X483Y2925D01*
X482Y2925D01*
X481Y2925D01*
X480Y2925D01*
X479Y2925D01*
X478Y2925D01*
X477Y2925D01*
X476Y2925D01*
X475Y2925D01*
X474Y2925D01*
X473Y2925D01*
X472Y2925D01*
X471Y2925D01*
X470Y2925D01*
X469Y2925D01*
X468Y2925D01*
X467Y2925D01*
X466Y2925D01*
X465Y2925D01*
X464Y2925D01*
X463Y2925D01*
X462Y2925D01*
X461Y2925D01*
X460Y2925D01*
X459Y2925D01*
X458Y2925D01*
X457Y2925D01*
X456Y2925D01*
X455Y2925D01*
X454Y2925D01*
X453Y2925D01*
X452Y2925D01*
X451Y2925D01*
X450Y2925D01*
X449Y2925D01*
X448Y2925D01*
X447Y2925D01*
X446Y2925D01*
X445Y2925D01*
X444Y2925D01*
X443Y2925D01*
X442Y2925D01*
X441Y2925D01*
X440Y2925D01*
X439Y2925D01*
X438Y2925D01*
X437Y2925D01*
X436Y2925D01*
X435Y2925D01*
X434Y2925D01*
X433Y2925D01*
X432Y2925D01*
X431Y2925D01*
X430Y2925D01*
X429Y2925D01*
X428Y2925D01*
X427Y2925D01*
X426Y2925D01*
X425Y2925D01*
X424Y2925D01*
X423Y2925D01*
X422Y2925D01*
X421Y2925D01*
X420Y2925D01*
X419Y2925D01*
X418Y2925D01*
X417Y2925D01*
X416Y2925D01*
X415Y2925D01*
X414Y2925D01*
X413Y2925D01*
X412Y2925D01*
X411Y2925D01*
X410Y2925D01*
X409Y2925D01*
X408Y2925D01*
X407Y2925D01*
X406Y2925D01*
X405Y2925D01*
X404Y2925D01*
X403Y2925D01*
X402Y2925D01*
X401Y2925D01*
X400Y2925D01*
X399Y2925D01*
X398Y2925D01*
X397Y2925D01*
X396Y2925D01*
X395Y2925D01*
X394Y2925D01*
X393Y2925D01*
X392Y2925D01*
X391Y2925D01*
X390Y2925D01*
X389Y2925D01*
X388Y2925D01*
X387Y2925D01*
X386Y2925D01*
X385Y2925D01*
X384Y2925D01*
X383Y2925D01*
X382Y2925D01*
X381Y2925D01*
X380Y2925D01*
X379Y2925D01*
X378Y2925D01*
X377Y2925D01*
X376Y2925D01*
X375Y2925D01*
X374Y2925D01*
X373Y2925D01*
X372Y2925D01*
X371Y2925D01*
X370Y2925D01*
X369Y2925D01*
X368Y2925D01*
X367Y2925D01*
X366Y2925D01*
X365Y2925D01*
X364Y2925D01*
X363Y2925D01*
X362Y2925D01*
X361Y2925D01*
X360Y2925D01*
X359Y2925D01*
X358Y2925D01*
X357Y2925D01*
X356Y2925D01*
X355Y2925D01*
X354Y2925D01*
X353Y2925D01*
X352Y2925D01*
X351Y2925D01*
X350Y2925D01*
X349Y2925D01*
X348Y2925D01*
X347Y2925D01*
X346Y2925D01*
X345Y2925D01*
X344Y2925D01*
X343Y2925D01*
X342Y2925D01*
X341Y2925D01*
X340Y2925D01*
X339Y2925D01*
X338Y2925D01*
X337Y2925D01*
X336Y2925D01*
X335Y2925D01*
X334Y2925D01*
X333Y2925D01*
X332Y2925D01*
X331Y2925D01*
X330Y2925D01*
X329Y2925D01*
X328Y2925D01*
X327Y2925D01*
X326Y2925D01*
X325Y2925D01*
X324Y2925D01*
X323Y2925D01*
X322Y2925D01*
X321Y2925D01*
X320Y2925D01*
X319Y2925D01*
X318Y2925D01*
X317Y2925D01*
X316Y2925D01*
X315Y2925D01*
X314Y2925D01*
X313Y2925D01*
X312Y2925D01*
X311Y2925D01*
X310Y2925D01*
X309Y2925D01*
X308Y2925D01*
X307Y2925D01*
X306Y2925D01*
X305Y2925D01*
X304Y2925D01*
X303Y2925D01*
X302Y2925D01*
X301Y2925D01*
X300Y2925D01*
X299Y2925D01*
X298Y2925D01*
X297Y2925D01*
X296Y2925D01*
X295Y2925D01*
X294Y2925D01*
X293Y2925D01*
X292Y2925D01*
X291Y2925D01*
X290Y2925D01*
X289Y2925D01*
X288Y2925D01*
X287Y2925D01*
X286Y2925D01*
X285Y2925D01*
X284Y2925D01*
X283Y2925D01*
X282Y2925D01*
X281Y2925D01*
X280Y2925D01*
X279Y2925D01*
X278Y2925D01*
X277Y2925D01*
X276Y2925D01*
X275Y2925D01*
X274Y2925D01*
X273Y2925D01*
X272Y2925D01*
X271Y2925D01*
X270Y2925D01*
X269Y2925D01*
X268Y2925D01*
X267Y2925D01*
X266Y2925D01*
X265Y2925D01*
X264Y2925D01*
X263Y2925D01*
X262Y2925D01*
X261Y2925D01*
X260Y2925D01*
X259Y2925D01*
X258Y2925D01*
X257Y2925D01*
X256Y2925D01*
X255Y2925D01*
X254Y2925D01*
X253Y2925D01*
X252Y2925D01*
X251Y2925D01*
X250Y2925D01*
X249Y2925D01*
X248Y2925D01*
X247Y2925D01*
D02*
X98Y723D02*
X99Y723D01*
X100Y723D01*
X101Y723D01*
X102Y723D01*
X103Y723D01*
X104Y723D01*
X105Y723D01*
X106Y723D01*
X107Y723D01*
X108Y723D01*
X109Y722D01*
X110Y722D01*
X111Y722D01*
X112Y722D01*
X113Y722D01*
X114Y722D01*
X115Y721D01*
X116Y721D01*
X117Y721D01*
X118Y720D01*
X119Y720D01*
X120Y720D01*
X121Y719D01*
X122Y719D01*
X123Y718D01*
X124Y718D01*
X125Y717D01*
X126Y717D01*
X127Y716D01*
X128Y716D01*
X129Y715D01*
X130Y715D01*
X131Y714D01*
X132Y714D01*
X133Y713D01*
X134Y712D01*
X135Y712D01*
X136Y711D01*
X137Y710D01*
X138Y710D01*
X139Y709D01*
X140Y708D01*
X141Y707D01*
X142Y706D01*
X143Y705D01*
X144Y705D01*
X145Y704D01*
X145Y703D01*
X146Y702D01*
X147Y701D01*
X148Y700D01*
X149Y699D01*
X149Y698D01*
X150Y697D01*
X150Y696D01*
X151Y695D01*
X151Y692D01*
X152Y691D01*
X152Y687D01*
X153Y686D01*
X153Y678D01*
X154Y677D01*
X154Y661D01*
X153Y660D01*
X153Y654D01*
X152Y653D01*
X152Y650D01*
X151Y649D01*
X151Y648D01*
X150Y647D01*
X150Y645D01*
X149Y644D01*
X149Y643D01*
X148Y642D01*
X147Y641D01*
X147Y640D01*
X146Y639D01*
X145Y638D01*
X145Y637D01*
X144Y636D01*
X143Y635D01*
X142Y634D01*
X141Y633D01*
X140Y632D01*
X139Y631D01*
X138Y631D01*
X137Y630D01*
X136Y629D01*
X135Y628D01*
X134Y628D01*
X133Y627D01*
X132Y626D01*
X131Y626D01*
X130Y625D01*
X129Y625D01*
X128Y624D01*
X127Y624D01*
X126Y623D01*
X125Y623D01*
X124Y622D01*
X123Y622D01*
X122Y622D01*
X121Y621D01*
X120Y621D01*
X119Y621D01*
X118Y620D01*
X117Y620D01*
X116Y620D01*
X115Y620D01*
X114Y619D01*
X113Y619D01*
X112Y619D01*
X111Y619D01*
X110Y619D01*
X109Y619D01*
X108Y619D01*
X107Y619D01*
X106Y619D01*
X105Y618D01*
X104Y619D01*
X103Y619D01*
X102Y619D01*
X101Y619D01*
X100Y619D01*
X99Y619D01*
X98Y619D01*
X97Y619D01*
X96Y619D01*
X95Y619D01*
X94Y619D01*
X93Y620D01*
X92Y620D01*
X91Y620D01*
X90Y620D01*
X89Y621D01*
X88Y621D01*
X87Y621D01*
X86Y622D01*
X85Y622D01*
X84Y622D01*
X83Y623D01*
X82Y623D01*
X81Y624D01*
X80Y624D01*
X79Y625D01*
X78Y625D01*
X77Y626D01*
X76Y626D01*
X75Y627D01*
X74Y628D01*
X73Y628D01*
X72Y629D01*
X71Y630D01*
X70Y630D01*
X69Y631D01*
X68Y632D01*
X67Y633D01*
X66Y634D01*
X65Y635D01*
X64Y636D01*
X63Y637D01*
X63Y638D01*
X62Y639D01*
X61Y640D01*
X60Y641D01*
X60Y642D01*
X59Y643D01*
X58Y644D01*
X58Y645D01*
X57Y646D01*
X57Y647D01*
X56Y648D01*
X56Y649D01*
X55Y650D01*
X55Y652D01*
X54Y653D01*
X54Y654D01*
X53Y655D01*
X53Y657D01*
X52Y658D01*
X52Y661D01*
X51Y662D01*
X51Y665D01*
X50Y666D01*
X50Y675D01*
X51Y676D01*
X51Y680D01*
X52Y681D01*
X52Y683D01*
X53Y684D01*
X53Y686D01*
X54Y687D01*
X54Y689D01*
X55Y690D01*
X55Y691D01*
X56Y692D01*
X56Y693D01*
X57Y694D01*
X57Y695D01*
X58Y696D01*
X59Y697D01*
X59Y698D01*
X60Y699D01*
X61Y700D01*
X61Y701D01*
X62Y702D01*
X63Y703D01*
X64Y704D01*
X65Y705D01*
X66Y706D01*
X67Y707D01*
X67Y708D01*
X68Y708D01*
X69Y709D01*
X70Y710D01*
X71Y711D01*
X72Y712D01*
X73Y713D01*
X74Y713D01*
X75Y714D01*
X76Y715D01*
X77Y715D01*
X78Y716D01*
X79Y716D01*
X80Y717D01*
X81Y717D01*
X82Y718D01*
X83Y718D01*
X84Y719D01*
X85Y719D01*
X86Y720D01*
X87Y720D01*
X88Y720D01*
X89Y721D01*
X90Y721D01*
X91Y721D01*
X92Y721D01*
X93Y722D01*
X94Y722D01*
X95Y722D01*
X96Y722D01*
X97Y722D01*
X98Y723D01*
D02*
G04 End of contour*
M02*