G04 MADE WITH FRITZING*
G04 WWW.FRITZING.ORG*
G04 DOUBLE SIDED*
G04 HOLES PLATED*
G04 CONTOUR ON CENTER OF CONTOUR VECTOR*
%ASAXBY*%
%FSLAX23Y23*%
%MOIN*%
%OFA0B0*%
%SFA1.0B1.0*%
%ADD10C,0.075000*%
%ADD11C,0.047859*%
%ADD12C,0.051181*%
%ADD13C,0.039370*%
%ADD14C,0.062992*%
%ADD15C,0.073889*%
%ADD16R,0.051181X0.051181*%
%ADD17C,0.032000*%
%ADD18C,0.012000*%
%ADD19C,0.024000*%
%ADD20C,0.048000*%
%LNCOPPER0*%
G90*
G70*
G54D10*
X1200Y1439D03*
X1218Y2809D03*
G54D11*
X1101Y1470D03*
X204Y1670D03*
X204Y1570D03*
X204Y1470D03*
X204Y1370D03*
X204Y1271D03*
X1101Y1570D03*
X1101Y1670D03*
X1101Y1370D03*
X204Y1171D03*
X204Y1071D03*
X204Y971D03*
X204Y871D03*
X204Y771D03*
X204Y672D03*
X204Y572D03*
X204Y472D03*
X204Y372D03*
X204Y272D03*
X1101Y971D03*
X1101Y871D03*
X1101Y771D03*
X1101Y672D03*
X1101Y572D03*
X1101Y472D03*
X1101Y372D03*
X1101Y272D03*
X1101Y1271D03*
X1101Y1171D03*
X1101Y1071D03*
G54D12*
X701Y1020D03*
X401Y1020D03*
X701Y920D03*
X401Y920D03*
X701Y820D03*
X401Y820D03*
X701Y720D03*
X401Y720D03*
X701Y620D03*
X401Y620D03*
X701Y520D03*
X401Y520D03*
X701Y420D03*
X401Y420D03*
X701Y320D03*
X401Y320D03*
X701Y1020D03*
X401Y1020D03*
X701Y920D03*
X401Y920D03*
X701Y820D03*
X401Y820D03*
X701Y720D03*
X401Y720D03*
X701Y620D03*
X401Y620D03*
X701Y520D03*
X401Y520D03*
X701Y420D03*
X401Y420D03*
X701Y320D03*
X401Y320D03*
G54D13*
X901Y2470D03*
X501Y2270D03*
G54D14*
X201Y1670D03*
X201Y1570D03*
X201Y1470D03*
X201Y1370D03*
X201Y1270D03*
X201Y1170D03*
X201Y1070D03*
X201Y970D03*
X201Y870D03*
X201Y770D03*
X201Y670D03*
X201Y570D03*
X201Y470D03*
X201Y370D03*
X201Y270D03*
X1101Y270D03*
X1101Y370D03*
X1101Y470D03*
X1101Y570D03*
X1101Y670D03*
X1101Y770D03*
X1101Y870D03*
X1101Y970D03*
X1101Y1070D03*
X1101Y1170D03*
X1101Y2420D03*
X1101Y1270D03*
X1101Y2520D03*
X1101Y1370D03*
X251Y2370D03*
X1101Y2620D03*
X1101Y1470D03*
X251Y2470D03*
X1101Y2720D03*
X1101Y1570D03*
X251Y2570D03*
X1101Y2820D03*
X1101Y1670D03*
G54D10*
X401Y1320D03*
X684Y1603D03*
X651Y1370D03*
X934Y1653D03*
X601Y2070D03*
X301Y2070D03*
G54D15*
X1001Y1920D03*
X901Y1920D03*
X801Y1920D03*
X701Y1920D03*
G54D13*
X101Y2070D03*
G54D14*
X251Y2270D03*
G54D16*
X701Y1020D03*
X701Y1020D03*
G54D17*
X394Y1050D02*
X396Y1041D01*
D02*
X396Y1041D02*
X636Y1329D01*
D02*
X636Y1329D02*
X639Y1338D01*
D02*
X300Y319D02*
X371Y320D01*
D02*
X300Y370D02*
X300Y319D01*
D02*
X238Y370D02*
X300Y370D01*
D02*
X700Y1768D02*
X687Y1637D01*
D02*
X701Y1880D02*
X700Y1768D01*
D02*
X679Y1569D02*
X656Y1404D01*
G54D18*
D02*
X1002Y870D02*
X951Y670D01*
D02*
X951Y670D02*
X902Y170D01*
D02*
X902Y170D02*
X600Y169D01*
D02*
X600Y169D02*
X551Y421D01*
D02*
X551Y421D02*
X450Y621D01*
D02*
X450Y621D02*
X421Y620D01*
D02*
X1085Y871D02*
X1002Y870D01*
D02*
X1000Y670D02*
X1050Y771D01*
D02*
X1050Y771D02*
X1085Y771D01*
D02*
X949Y118D02*
X1000Y670D01*
D02*
X502Y421D02*
X551Y120D01*
D02*
X450Y519D02*
X502Y421D01*
D02*
X551Y120D02*
X949Y118D01*
D02*
X421Y520D02*
X450Y519D01*
D02*
X1000Y70D02*
X1052Y670D01*
D02*
X1052Y670D02*
X1085Y671D01*
D02*
X502Y71D02*
X1000Y70D01*
D02*
X421Y420D02*
X450Y421D01*
D02*
X450Y421D02*
X502Y71D01*
D02*
X600Y421D02*
X450Y719D01*
D02*
X901Y670D02*
X850Y221D01*
D02*
X653Y221D02*
X600Y421D01*
D02*
X850Y221D02*
X653Y221D01*
D02*
X951Y970D02*
X901Y670D01*
D02*
X450Y719D02*
X421Y720D01*
D02*
X1085Y971D02*
X951Y970D01*
D02*
X952Y1371D02*
X936Y1630D01*
D02*
X1002Y1271D02*
X952Y1371D01*
D02*
X1102Y1272D02*
X1002Y1271D01*
D02*
X1110Y1285D02*
X1102Y1272D01*
D02*
X914Y2473D02*
X1077Y2514D01*
D02*
X201Y2120D02*
X204Y1687D01*
D02*
X489Y2264D02*
X201Y2120D01*
D02*
X1250Y2119D02*
X353Y2570D01*
D02*
X1251Y1621D02*
X1250Y2119D01*
D02*
X1201Y1520D02*
X1251Y1621D01*
D02*
X1116Y1478D02*
X1201Y1520D01*
D02*
X1200Y1620D02*
X1151Y1569D01*
D02*
X1151Y1569D02*
X1118Y1570D01*
D02*
X1200Y2069D02*
X1200Y1620D01*
D02*
X277Y2470D02*
X353Y2471D01*
D02*
X917Y1668D02*
X800Y1770D01*
D02*
X800Y1770D02*
X801Y1891D01*
D02*
X353Y2471D02*
X1200Y2069D01*
D02*
X353Y2570D02*
X277Y2570D01*
G54D17*
D02*
X300Y821D02*
X300Y771D01*
D02*
X300Y771D02*
X232Y771D01*
D02*
X371Y820D02*
X300Y821D01*
G54D19*
D02*
X551Y2820D02*
X1070Y2820D01*
D02*
X252Y2671D02*
X551Y2820D01*
D02*
X149Y2620D02*
X252Y2671D01*
D02*
X103Y2089D02*
X149Y2620D01*
G54D18*
D02*
X401Y1343D02*
X400Y1770D01*
D02*
X400Y1770D02*
X309Y2048D01*
G54D20*
D02*
X401Y956D02*
X401Y984D01*
G36*
X1236Y2165D02*
X1236Y2145D01*
X1240Y2145D01*
X1240Y2143D01*
X1244Y2143D01*
X1244Y2141D01*
X1248Y2141D01*
X1248Y2139D01*
X1252Y2139D01*
X1252Y2137D01*
X1256Y2137D01*
X1256Y2135D01*
X1260Y2135D01*
X1260Y2133D01*
X1262Y2133D01*
X1262Y2131D01*
X1264Y2131D01*
X1264Y2129D01*
X1266Y2129D01*
X1266Y2125D01*
X1268Y2125D01*
X1268Y1613D01*
X1266Y1613D01*
X1266Y1609D01*
X1264Y1609D01*
X1264Y1605D01*
X1262Y1605D01*
X1262Y1601D01*
X1260Y1601D01*
X1260Y1597D01*
X1258Y1597D01*
X1258Y1593D01*
X1256Y1593D01*
X1256Y1589D01*
X1254Y1589D01*
X1254Y1585D01*
X1252Y1585D01*
X1252Y1581D01*
X1250Y1581D01*
X1250Y1577D01*
X1248Y1577D01*
X1248Y1573D01*
X1246Y1573D01*
X1246Y1569D01*
X1244Y1569D01*
X1244Y1565D01*
X1242Y1565D01*
X1242Y1561D01*
X1240Y1561D01*
X1240Y1557D01*
X1238Y1557D01*
X1238Y1553D01*
X1236Y1553D01*
X1236Y1549D01*
X1234Y1549D01*
X1234Y1545D01*
X1232Y1545D01*
X1232Y1541D01*
X1230Y1541D01*
X1230Y1537D01*
X1228Y1537D01*
X1228Y1533D01*
X1226Y1533D01*
X1226Y1529D01*
X1224Y1529D01*
X1224Y1525D01*
X1222Y1525D01*
X1222Y1521D01*
X1220Y1521D01*
X1220Y1515D01*
X1218Y1515D01*
X1218Y1511D01*
X1216Y1511D01*
X1216Y1509D01*
X1214Y1509D01*
X1214Y1507D01*
X1212Y1507D01*
X1212Y1505D01*
X1208Y1505D01*
X1208Y1503D01*
X1204Y1503D01*
X1204Y1501D01*
X1200Y1501D01*
X1200Y1499D01*
X1196Y1499D01*
X1196Y1497D01*
X1192Y1497D01*
X1192Y1495D01*
X1188Y1495D01*
X1188Y1493D01*
X1184Y1493D01*
X1184Y1491D01*
X1180Y1491D01*
X1180Y1489D01*
X1178Y1489D01*
X1178Y1487D01*
X1174Y1487D01*
X1174Y1485D01*
X1170Y1485D01*
X1170Y1483D01*
X1166Y1483D01*
X1166Y1481D01*
X1162Y1481D01*
X1162Y1479D01*
X1158Y1479D01*
X1158Y1477D01*
X1154Y1477D01*
X1154Y1475D01*
X1150Y1475D01*
X1150Y1473D01*
X1146Y1473D01*
X1146Y1471D01*
X1144Y1471D01*
X1144Y1459D01*
X1142Y1459D01*
X1142Y1453D01*
X1140Y1453D01*
X1140Y1449D01*
X1138Y1449D01*
X1138Y1445D01*
X1136Y1445D01*
X1136Y1443D01*
X1134Y1443D01*
X1134Y1441D01*
X1132Y1441D01*
X1132Y1439D01*
X1130Y1439D01*
X1130Y1437D01*
X1128Y1437D01*
X1128Y1435D01*
X1126Y1435D01*
X1126Y1433D01*
X1122Y1433D01*
X1122Y1431D01*
X1118Y1431D01*
X1118Y1409D01*
X1122Y1409D01*
X1122Y1407D01*
X1126Y1407D01*
X1126Y1405D01*
X1128Y1405D01*
X1128Y1403D01*
X1130Y1403D01*
X1130Y1401D01*
X1132Y1401D01*
X1132Y1399D01*
X1134Y1399D01*
X1134Y1397D01*
X1136Y1397D01*
X1136Y1395D01*
X1138Y1395D01*
X1138Y1391D01*
X1140Y1391D01*
X1140Y1387D01*
X1142Y1387D01*
X1142Y1381D01*
X1144Y1381D01*
X1144Y1359D01*
X1142Y1359D01*
X1142Y1353D01*
X1140Y1353D01*
X1140Y1349D01*
X1138Y1349D01*
X1138Y1345D01*
X1136Y1345D01*
X1136Y1343D01*
X1134Y1343D01*
X1134Y1341D01*
X1132Y1341D01*
X1132Y1339D01*
X1130Y1339D01*
X1130Y1337D01*
X1128Y1337D01*
X1128Y1335D01*
X1126Y1335D01*
X1126Y1333D01*
X1122Y1333D01*
X1122Y1331D01*
X1118Y1331D01*
X1118Y1309D01*
X1122Y1309D01*
X1122Y1307D01*
X1126Y1307D01*
X1126Y1305D01*
X1128Y1305D01*
X1128Y1303D01*
X1130Y1303D01*
X1130Y1301D01*
X1132Y1301D01*
X1132Y1299D01*
X1134Y1299D01*
X1134Y1297D01*
X1136Y1297D01*
X1136Y1295D01*
X1138Y1295D01*
X1138Y1291D01*
X1140Y1291D01*
X1140Y1287D01*
X1142Y1287D01*
X1142Y1281D01*
X1144Y1281D01*
X1144Y1259D01*
X1142Y1259D01*
X1142Y1253D01*
X1140Y1253D01*
X1140Y1249D01*
X1138Y1249D01*
X1138Y1245D01*
X1136Y1245D01*
X1136Y1243D01*
X1134Y1243D01*
X1134Y1241D01*
X1132Y1241D01*
X1132Y1239D01*
X1130Y1239D01*
X1130Y1237D01*
X1128Y1237D01*
X1128Y1235D01*
X1126Y1235D01*
X1126Y1233D01*
X1122Y1233D01*
X1122Y1231D01*
X1118Y1231D01*
X1118Y1209D01*
X1122Y1209D01*
X1122Y1207D01*
X1126Y1207D01*
X1126Y1205D01*
X1128Y1205D01*
X1128Y1203D01*
X1130Y1203D01*
X1130Y1201D01*
X1132Y1201D01*
X1132Y1199D01*
X1134Y1199D01*
X1134Y1197D01*
X1136Y1197D01*
X1136Y1195D01*
X1138Y1195D01*
X1138Y1191D01*
X1140Y1191D01*
X1140Y1187D01*
X1142Y1187D01*
X1142Y1181D01*
X1144Y1181D01*
X1144Y1159D01*
X1142Y1159D01*
X1142Y1153D01*
X1140Y1153D01*
X1140Y1149D01*
X1138Y1149D01*
X1138Y1145D01*
X1136Y1145D01*
X1136Y1143D01*
X1134Y1143D01*
X1134Y1141D01*
X1132Y1141D01*
X1132Y1139D01*
X1130Y1139D01*
X1130Y1137D01*
X1128Y1137D01*
X1128Y1135D01*
X1126Y1135D01*
X1126Y1133D01*
X1122Y1133D01*
X1122Y1131D01*
X1118Y1131D01*
X1118Y1109D01*
X1122Y1109D01*
X1122Y1107D01*
X1126Y1107D01*
X1126Y1105D01*
X1128Y1105D01*
X1128Y1103D01*
X1130Y1103D01*
X1130Y1101D01*
X1132Y1101D01*
X1132Y1099D01*
X1134Y1099D01*
X1134Y1097D01*
X1136Y1097D01*
X1136Y1095D01*
X1138Y1095D01*
X1138Y1091D01*
X1140Y1091D01*
X1140Y1087D01*
X1142Y1087D01*
X1142Y1081D01*
X1144Y1081D01*
X1144Y1059D01*
X1142Y1059D01*
X1142Y1053D01*
X1140Y1053D01*
X1140Y1049D01*
X1138Y1049D01*
X1138Y1045D01*
X1136Y1045D01*
X1136Y1043D01*
X1134Y1043D01*
X1134Y1041D01*
X1132Y1041D01*
X1132Y1039D01*
X1130Y1039D01*
X1130Y1037D01*
X1128Y1037D01*
X1128Y1035D01*
X1126Y1035D01*
X1126Y1033D01*
X1122Y1033D01*
X1122Y1031D01*
X1118Y1031D01*
X1118Y1009D01*
X1122Y1009D01*
X1122Y1007D01*
X1126Y1007D01*
X1126Y1005D01*
X1128Y1005D01*
X1128Y1003D01*
X1130Y1003D01*
X1130Y1001D01*
X1132Y1001D01*
X1132Y999D01*
X1134Y999D01*
X1134Y997D01*
X1136Y997D01*
X1136Y995D01*
X1138Y995D01*
X1138Y991D01*
X1140Y991D01*
X1140Y987D01*
X1142Y987D01*
X1142Y981D01*
X1144Y981D01*
X1144Y959D01*
X1142Y959D01*
X1142Y953D01*
X1140Y953D01*
X1140Y949D01*
X1138Y949D01*
X1138Y945D01*
X1136Y945D01*
X1136Y943D01*
X1134Y943D01*
X1134Y941D01*
X1132Y941D01*
X1132Y939D01*
X1130Y939D01*
X1130Y937D01*
X1128Y937D01*
X1128Y935D01*
X1126Y935D01*
X1126Y933D01*
X1122Y933D01*
X1122Y931D01*
X1118Y931D01*
X1118Y909D01*
X1122Y909D01*
X1122Y907D01*
X1126Y907D01*
X1126Y905D01*
X1128Y905D01*
X1128Y903D01*
X1130Y903D01*
X1130Y901D01*
X1132Y901D01*
X1132Y899D01*
X1134Y899D01*
X1134Y897D01*
X1136Y897D01*
X1136Y895D01*
X1138Y895D01*
X1138Y891D01*
X1140Y891D01*
X1140Y887D01*
X1142Y887D01*
X1142Y881D01*
X1144Y881D01*
X1144Y859D01*
X1142Y859D01*
X1142Y853D01*
X1140Y853D01*
X1140Y849D01*
X1138Y849D01*
X1138Y845D01*
X1136Y845D01*
X1136Y843D01*
X1134Y843D01*
X1134Y841D01*
X1132Y841D01*
X1132Y839D01*
X1130Y839D01*
X1130Y837D01*
X1128Y837D01*
X1128Y835D01*
X1126Y835D01*
X1126Y833D01*
X1122Y833D01*
X1122Y831D01*
X1118Y831D01*
X1118Y809D01*
X1122Y809D01*
X1122Y807D01*
X1126Y807D01*
X1126Y805D01*
X1128Y805D01*
X1128Y803D01*
X1130Y803D01*
X1130Y801D01*
X1132Y801D01*
X1132Y799D01*
X1134Y799D01*
X1134Y797D01*
X1136Y797D01*
X1136Y795D01*
X1138Y795D01*
X1138Y791D01*
X1140Y791D01*
X1140Y787D01*
X1142Y787D01*
X1142Y781D01*
X1144Y781D01*
X1144Y759D01*
X1142Y759D01*
X1142Y753D01*
X1140Y753D01*
X1140Y749D01*
X1138Y749D01*
X1138Y745D01*
X1136Y745D01*
X1136Y743D01*
X1134Y743D01*
X1134Y741D01*
X1132Y741D01*
X1132Y739D01*
X1130Y739D01*
X1130Y737D01*
X1128Y737D01*
X1128Y735D01*
X1126Y735D01*
X1126Y733D01*
X1122Y733D01*
X1122Y731D01*
X1118Y731D01*
X1118Y709D01*
X1122Y709D01*
X1122Y707D01*
X1126Y707D01*
X1126Y705D01*
X1128Y705D01*
X1128Y703D01*
X1130Y703D01*
X1130Y701D01*
X1132Y701D01*
X1132Y699D01*
X1134Y699D01*
X1134Y697D01*
X1136Y697D01*
X1136Y695D01*
X1138Y695D01*
X1138Y691D01*
X1140Y691D01*
X1140Y687D01*
X1142Y687D01*
X1142Y681D01*
X1144Y681D01*
X1144Y659D01*
X1142Y659D01*
X1142Y653D01*
X1140Y653D01*
X1140Y649D01*
X1138Y649D01*
X1138Y645D01*
X1136Y645D01*
X1136Y643D01*
X1134Y643D01*
X1134Y641D01*
X1132Y641D01*
X1132Y639D01*
X1130Y639D01*
X1130Y637D01*
X1128Y637D01*
X1128Y635D01*
X1126Y635D01*
X1126Y633D01*
X1122Y633D01*
X1122Y631D01*
X1118Y631D01*
X1118Y609D01*
X1122Y609D01*
X1122Y607D01*
X1126Y607D01*
X1126Y605D01*
X1128Y605D01*
X1128Y603D01*
X1130Y603D01*
X1130Y601D01*
X1132Y601D01*
X1132Y599D01*
X1134Y599D01*
X1134Y597D01*
X1136Y597D01*
X1136Y595D01*
X1138Y595D01*
X1138Y591D01*
X1140Y591D01*
X1140Y587D01*
X1142Y587D01*
X1142Y581D01*
X1144Y581D01*
X1144Y559D01*
X1142Y559D01*
X1142Y553D01*
X1140Y553D01*
X1140Y549D01*
X1138Y549D01*
X1138Y545D01*
X1136Y545D01*
X1136Y543D01*
X1134Y543D01*
X1134Y541D01*
X1132Y541D01*
X1132Y539D01*
X1130Y539D01*
X1130Y537D01*
X1128Y537D01*
X1128Y535D01*
X1126Y535D01*
X1126Y533D01*
X1122Y533D01*
X1122Y531D01*
X1118Y531D01*
X1118Y509D01*
X1122Y509D01*
X1122Y507D01*
X1126Y507D01*
X1126Y505D01*
X1128Y505D01*
X1128Y503D01*
X1130Y503D01*
X1130Y501D01*
X1132Y501D01*
X1132Y499D01*
X1134Y499D01*
X1134Y497D01*
X1136Y497D01*
X1136Y495D01*
X1138Y495D01*
X1138Y491D01*
X1140Y491D01*
X1140Y487D01*
X1142Y487D01*
X1142Y481D01*
X1144Y481D01*
X1144Y459D01*
X1142Y459D01*
X1142Y453D01*
X1140Y453D01*
X1140Y449D01*
X1138Y449D01*
X1138Y445D01*
X1136Y445D01*
X1136Y443D01*
X1134Y443D01*
X1134Y441D01*
X1132Y441D01*
X1132Y439D01*
X1130Y439D01*
X1130Y437D01*
X1128Y437D01*
X1128Y435D01*
X1126Y435D01*
X1126Y433D01*
X1122Y433D01*
X1122Y431D01*
X1118Y431D01*
X1118Y409D01*
X1122Y409D01*
X1122Y407D01*
X1126Y407D01*
X1126Y405D01*
X1128Y405D01*
X1128Y403D01*
X1130Y403D01*
X1130Y401D01*
X1132Y401D01*
X1132Y399D01*
X1134Y399D01*
X1134Y397D01*
X1136Y397D01*
X1136Y395D01*
X1138Y395D01*
X1138Y391D01*
X1140Y391D01*
X1140Y387D01*
X1142Y387D01*
X1142Y381D01*
X1144Y381D01*
X1144Y359D01*
X1142Y359D01*
X1142Y353D01*
X1140Y353D01*
X1140Y349D01*
X1138Y349D01*
X1138Y345D01*
X1136Y345D01*
X1136Y343D01*
X1134Y343D01*
X1134Y341D01*
X1132Y341D01*
X1132Y339D01*
X1130Y339D01*
X1130Y337D01*
X1128Y337D01*
X1128Y335D01*
X1126Y335D01*
X1126Y333D01*
X1122Y333D01*
X1122Y331D01*
X1118Y331D01*
X1118Y309D01*
X1122Y309D01*
X1122Y307D01*
X1126Y307D01*
X1126Y305D01*
X1128Y305D01*
X1128Y303D01*
X1130Y303D01*
X1130Y301D01*
X1132Y301D01*
X1132Y299D01*
X1134Y299D01*
X1134Y297D01*
X1136Y297D01*
X1136Y295D01*
X1138Y295D01*
X1138Y291D01*
X1140Y291D01*
X1140Y287D01*
X1142Y287D01*
X1142Y285D01*
X1202Y285D01*
X1202Y287D01*
X1298Y287D01*
X1298Y2165D01*
X1236Y2165D01*
G37*
D02*
G36*
X288Y2885D02*
X288Y2863D01*
X1112Y2863D01*
X1112Y2861D01*
X1118Y2861D01*
X1118Y2859D01*
X1122Y2859D01*
X1122Y2857D01*
X1126Y2857D01*
X1126Y2855D01*
X1128Y2855D01*
X1128Y2853D01*
X1130Y2853D01*
X1130Y2851D01*
X1132Y2851D01*
X1132Y2849D01*
X1134Y2849D01*
X1134Y2847D01*
X1136Y2847D01*
X1136Y2845D01*
X1138Y2845D01*
X1138Y2841D01*
X1140Y2841D01*
X1140Y2837D01*
X1142Y2837D01*
X1142Y2831D01*
X1144Y2831D01*
X1144Y2809D01*
X1142Y2809D01*
X1142Y2803D01*
X1140Y2803D01*
X1140Y2799D01*
X1138Y2799D01*
X1138Y2795D01*
X1136Y2795D01*
X1136Y2793D01*
X1134Y2793D01*
X1134Y2791D01*
X1132Y2791D01*
X1132Y2789D01*
X1130Y2789D01*
X1130Y2787D01*
X1128Y2787D01*
X1128Y2785D01*
X1126Y2785D01*
X1126Y2783D01*
X1122Y2783D01*
X1122Y2781D01*
X1118Y2781D01*
X1118Y2759D01*
X1122Y2759D01*
X1122Y2757D01*
X1126Y2757D01*
X1126Y2755D01*
X1128Y2755D01*
X1128Y2753D01*
X1130Y2753D01*
X1130Y2751D01*
X1132Y2751D01*
X1132Y2749D01*
X1134Y2749D01*
X1134Y2747D01*
X1136Y2747D01*
X1136Y2745D01*
X1138Y2745D01*
X1138Y2741D01*
X1140Y2741D01*
X1140Y2737D01*
X1142Y2737D01*
X1142Y2731D01*
X1144Y2731D01*
X1144Y2709D01*
X1142Y2709D01*
X1142Y2703D01*
X1140Y2703D01*
X1140Y2699D01*
X1138Y2699D01*
X1138Y2695D01*
X1136Y2695D01*
X1136Y2693D01*
X1134Y2693D01*
X1134Y2691D01*
X1132Y2691D01*
X1132Y2689D01*
X1130Y2689D01*
X1130Y2687D01*
X1128Y2687D01*
X1128Y2685D01*
X1126Y2685D01*
X1126Y2683D01*
X1122Y2683D01*
X1122Y2681D01*
X1118Y2681D01*
X1118Y2659D01*
X1122Y2659D01*
X1122Y2657D01*
X1126Y2657D01*
X1126Y2655D01*
X1128Y2655D01*
X1128Y2653D01*
X1130Y2653D01*
X1130Y2651D01*
X1132Y2651D01*
X1132Y2649D01*
X1134Y2649D01*
X1134Y2647D01*
X1136Y2647D01*
X1136Y2645D01*
X1138Y2645D01*
X1138Y2641D01*
X1140Y2641D01*
X1140Y2637D01*
X1142Y2637D01*
X1142Y2631D01*
X1144Y2631D01*
X1144Y2609D01*
X1142Y2609D01*
X1142Y2603D01*
X1140Y2603D01*
X1140Y2599D01*
X1138Y2599D01*
X1138Y2595D01*
X1136Y2595D01*
X1136Y2593D01*
X1134Y2593D01*
X1134Y2591D01*
X1132Y2591D01*
X1132Y2589D01*
X1130Y2589D01*
X1130Y2587D01*
X1128Y2587D01*
X1128Y2585D01*
X1126Y2585D01*
X1126Y2583D01*
X1122Y2583D01*
X1122Y2581D01*
X1118Y2581D01*
X1118Y2559D01*
X1122Y2559D01*
X1122Y2557D01*
X1126Y2557D01*
X1126Y2555D01*
X1128Y2555D01*
X1128Y2553D01*
X1130Y2553D01*
X1130Y2551D01*
X1132Y2551D01*
X1132Y2549D01*
X1134Y2549D01*
X1134Y2547D01*
X1136Y2547D01*
X1136Y2545D01*
X1138Y2545D01*
X1138Y2541D01*
X1140Y2541D01*
X1140Y2537D01*
X1142Y2537D01*
X1142Y2531D01*
X1144Y2531D01*
X1144Y2509D01*
X1142Y2509D01*
X1142Y2503D01*
X1140Y2503D01*
X1140Y2499D01*
X1138Y2499D01*
X1138Y2495D01*
X1136Y2495D01*
X1136Y2493D01*
X1134Y2493D01*
X1134Y2491D01*
X1132Y2491D01*
X1132Y2489D01*
X1130Y2489D01*
X1130Y2487D01*
X1128Y2487D01*
X1128Y2485D01*
X1126Y2485D01*
X1126Y2483D01*
X1122Y2483D01*
X1122Y2481D01*
X1118Y2481D01*
X1118Y2459D01*
X1122Y2459D01*
X1122Y2457D01*
X1126Y2457D01*
X1126Y2455D01*
X1128Y2455D01*
X1128Y2453D01*
X1130Y2453D01*
X1130Y2451D01*
X1132Y2451D01*
X1132Y2449D01*
X1134Y2449D01*
X1134Y2447D01*
X1136Y2447D01*
X1136Y2445D01*
X1138Y2445D01*
X1138Y2441D01*
X1140Y2441D01*
X1140Y2437D01*
X1142Y2437D01*
X1142Y2431D01*
X1144Y2431D01*
X1144Y2409D01*
X1142Y2409D01*
X1142Y2403D01*
X1140Y2403D01*
X1140Y2399D01*
X1138Y2399D01*
X1138Y2395D01*
X1136Y2395D01*
X1136Y2393D01*
X1134Y2393D01*
X1134Y2391D01*
X1132Y2391D01*
X1132Y2389D01*
X1130Y2389D01*
X1130Y2387D01*
X1128Y2387D01*
X1128Y2385D01*
X1126Y2385D01*
X1126Y2383D01*
X1122Y2383D01*
X1122Y2381D01*
X1118Y2381D01*
X1118Y2379D01*
X1112Y2379D01*
X1112Y2377D01*
X1298Y2377D01*
X1298Y2779D01*
X1296Y2779D01*
X1296Y2857D01*
X1294Y2857D01*
X1294Y2869D01*
X1292Y2869D01*
X1292Y2871D01*
X1290Y2871D01*
X1290Y2875D01*
X1288Y2875D01*
X1288Y2877D01*
X1286Y2877D01*
X1286Y2879D01*
X1284Y2879D01*
X1284Y2881D01*
X1274Y2881D01*
X1274Y2883D01*
X1154Y2883D01*
X1154Y2885D01*
X288Y2885D01*
G37*
D02*
G36*
X288Y2863D02*
X288Y2795D01*
X286Y2795D01*
X286Y2751D01*
X284Y2751D01*
X284Y2735D01*
X282Y2735D01*
X282Y2723D01*
X304Y2723D01*
X304Y2725D01*
X308Y2725D01*
X308Y2727D01*
X312Y2727D01*
X312Y2729D01*
X316Y2729D01*
X316Y2731D01*
X320Y2731D01*
X320Y2733D01*
X324Y2733D01*
X324Y2735D01*
X328Y2735D01*
X328Y2737D01*
X332Y2737D01*
X332Y2739D01*
X336Y2739D01*
X336Y2741D01*
X340Y2741D01*
X340Y2743D01*
X344Y2743D01*
X344Y2745D01*
X350Y2745D01*
X350Y2747D01*
X354Y2747D01*
X354Y2749D01*
X358Y2749D01*
X358Y2751D01*
X362Y2751D01*
X362Y2753D01*
X366Y2753D01*
X366Y2755D01*
X370Y2755D01*
X370Y2757D01*
X374Y2757D01*
X374Y2759D01*
X378Y2759D01*
X378Y2761D01*
X382Y2761D01*
X382Y2763D01*
X386Y2763D01*
X386Y2765D01*
X390Y2765D01*
X390Y2767D01*
X394Y2767D01*
X394Y2769D01*
X398Y2769D01*
X398Y2771D01*
X402Y2771D01*
X402Y2773D01*
X406Y2773D01*
X406Y2775D01*
X410Y2775D01*
X410Y2777D01*
X414Y2777D01*
X414Y2779D01*
X418Y2779D01*
X418Y2781D01*
X422Y2781D01*
X422Y2783D01*
X426Y2783D01*
X426Y2785D01*
X430Y2785D01*
X430Y2787D01*
X434Y2787D01*
X434Y2789D01*
X438Y2789D01*
X438Y2791D01*
X442Y2791D01*
X442Y2793D01*
X446Y2793D01*
X446Y2795D01*
X450Y2795D01*
X450Y2797D01*
X454Y2797D01*
X454Y2799D01*
X458Y2799D01*
X458Y2801D01*
X462Y2801D01*
X462Y2803D01*
X466Y2803D01*
X466Y2805D01*
X470Y2805D01*
X470Y2807D01*
X474Y2807D01*
X474Y2809D01*
X478Y2809D01*
X478Y2811D01*
X482Y2811D01*
X482Y2813D01*
X486Y2813D01*
X486Y2815D01*
X490Y2815D01*
X490Y2817D01*
X494Y2817D01*
X494Y2819D01*
X498Y2819D01*
X498Y2821D01*
X502Y2821D01*
X502Y2823D01*
X506Y2823D01*
X506Y2825D01*
X510Y2825D01*
X510Y2827D01*
X514Y2827D01*
X514Y2829D01*
X518Y2829D01*
X518Y2831D01*
X522Y2831D01*
X522Y2833D01*
X526Y2833D01*
X526Y2835D01*
X530Y2835D01*
X530Y2837D01*
X534Y2837D01*
X534Y2839D01*
X538Y2839D01*
X538Y2841D01*
X544Y2841D01*
X544Y2843D01*
X1066Y2843D01*
X1066Y2847D01*
X1068Y2847D01*
X1068Y2849D01*
X1070Y2849D01*
X1070Y2851D01*
X1072Y2851D01*
X1072Y2853D01*
X1074Y2853D01*
X1074Y2855D01*
X1078Y2855D01*
X1078Y2857D01*
X1082Y2857D01*
X1082Y2859D01*
X1084Y2859D01*
X1084Y2861D01*
X1092Y2861D01*
X1092Y2863D01*
X288Y2863D01*
G37*
D02*
G36*
X554Y2795D02*
X554Y2793D01*
X550Y2793D01*
X550Y2791D01*
X546Y2791D01*
X546Y2789D01*
X542Y2789D01*
X542Y2787D01*
X538Y2787D01*
X538Y2785D01*
X534Y2785D01*
X534Y2783D01*
X530Y2783D01*
X530Y2781D01*
X526Y2781D01*
X526Y2779D01*
X522Y2779D01*
X522Y2777D01*
X518Y2777D01*
X518Y2775D01*
X514Y2775D01*
X514Y2773D01*
X510Y2773D01*
X510Y2771D01*
X506Y2771D01*
X506Y2769D01*
X502Y2769D01*
X502Y2767D01*
X498Y2767D01*
X498Y2765D01*
X494Y2765D01*
X494Y2763D01*
X490Y2763D01*
X490Y2761D01*
X486Y2761D01*
X486Y2759D01*
X482Y2759D01*
X482Y2757D01*
X478Y2757D01*
X478Y2755D01*
X474Y2755D01*
X474Y2753D01*
X470Y2753D01*
X470Y2751D01*
X466Y2751D01*
X466Y2749D01*
X462Y2749D01*
X462Y2747D01*
X458Y2747D01*
X458Y2745D01*
X454Y2745D01*
X454Y2743D01*
X450Y2743D01*
X450Y2741D01*
X446Y2741D01*
X446Y2739D01*
X440Y2739D01*
X440Y2737D01*
X436Y2737D01*
X436Y2735D01*
X432Y2735D01*
X432Y2733D01*
X428Y2733D01*
X428Y2731D01*
X424Y2731D01*
X424Y2729D01*
X420Y2729D01*
X420Y2727D01*
X416Y2727D01*
X416Y2725D01*
X412Y2725D01*
X412Y2723D01*
X408Y2723D01*
X408Y2721D01*
X404Y2721D01*
X404Y2719D01*
X400Y2719D01*
X400Y2717D01*
X396Y2717D01*
X396Y2715D01*
X392Y2715D01*
X392Y2713D01*
X388Y2713D01*
X388Y2711D01*
X384Y2711D01*
X384Y2709D01*
X380Y2709D01*
X380Y2707D01*
X376Y2707D01*
X376Y2705D01*
X372Y2705D01*
X372Y2703D01*
X368Y2703D01*
X368Y2701D01*
X364Y2701D01*
X364Y2699D01*
X360Y2699D01*
X360Y2697D01*
X356Y2697D01*
X356Y2695D01*
X352Y2695D01*
X352Y2693D01*
X348Y2693D01*
X348Y2691D01*
X344Y2691D01*
X344Y2689D01*
X340Y2689D01*
X340Y2687D01*
X336Y2687D01*
X336Y2685D01*
X332Y2685D01*
X332Y2683D01*
X328Y2683D01*
X328Y2681D01*
X324Y2681D01*
X324Y2679D01*
X320Y2679D01*
X320Y2677D01*
X316Y2677D01*
X316Y2675D01*
X312Y2675D01*
X312Y2673D01*
X308Y2673D01*
X308Y2671D01*
X304Y2671D01*
X304Y2669D01*
X300Y2669D01*
X300Y2667D01*
X296Y2667D01*
X296Y2665D01*
X292Y2665D01*
X292Y2663D01*
X288Y2663D01*
X288Y2661D01*
X284Y2661D01*
X284Y2659D01*
X280Y2659D01*
X280Y2657D01*
X276Y2657D01*
X276Y2655D01*
X272Y2655D01*
X272Y2653D01*
X268Y2653D01*
X268Y2651D01*
X264Y2651D01*
X264Y2649D01*
X260Y2649D01*
X260Y2647D01*
X256Y2647D01*
X256Y2645D01*
X252Y2645D01*
X252Y2643D01*
X248Y2643D01*
X248Y2641D01*
X244Y2641D01*
X244Y2639D01*
X240Y2639D01*
X240Y2637D01*
X236Y2637D01*
X236Y2635D01*
X232Y2635D01*
X232Y2633D01*
X228Y2633D01*
X228Y2631D01*
X224Y2631D01*
X224Y2629D01*
X220Y2629D01*
X220Y2627D01*
X216Y2627D01*
X216Y2625D01*
X212Y2625D01*
X212Y2623D01*
X208Y2623D01*
X208Y2621D01*
X204Y2621D01*
X204Y2619D01*
X200Y2619D01*
X200Y2617D01*
X196Y2617D01*
X196Y2615D01*
X192Y2615D01*
X192Y2613D01*
X262Y2613D01*
X262Y2611D01*
X268Y2611D01*
X268Y2609D01*
X272Y2609D01*
X272Y2607D01*
X276Y2607D01*
X276Y2605D01*
X278Y2605D01*
X278Y2603D01*
X280Y2603D01*
X280Y2601D01*
X282Y2601D01*
X282Y2599D01*
X284Y2599D01*
X284Y2597D01*
X286Y2597D01*
X286Y2595D01*
X288Y2595D01*
X288Y2591D01*
X290Y2591D01*
X290Y2587D01*
X362Y2587D01*
X362Y2585D01*
X366Y2585D01*
X366Y2583D01*
X370Y2583D01*
X370Y2581D01*
X374Y2581D01*
X374Y2579D01*
X378Y2579D01*
X378Y2577D01*
X382Y2577D01*
X382Y2575D01*
X386Y2575D01*
X386Y2573D01*
X390Y2573D01*
X390Y2571D01*
X394Y2571D01*
X394Y2569D01*
X396Y2569D01*
X396Y2567D01*
X400Y2567D01*
X400Y2565D01*
X404Y2565D01*
X404Y2563D01*
X408Y2563D01*
X408Y2561D01*
X412Y2561D01*
X412Y2559D01*
X416Y2559D01*
X416Y2557D01*
X420Y2557D01*
X420Y2555D01*
X424Y2555D01*
X424Y2553D01*
X428Y2553D01*
X428Y2551D01*
X432Y2551D01*
X432Y2549D01*
X436Y2549D01*
X436Y2547D01*
X440Y2547D01*
X440Y2545D01*
X444Y2545D01*
X444Y2543D01*
X448Y2543D01*
X448Y2541D01*
X452Y2541D01*
X452Y2539D01*
X456Y2539D01*
X456Y2537D01*
X460Y2537D01*
X460Y2535D01*
X464Y2535D01*
X464Y2533D01*
X468Y2533D01*
X468Y2531D01*
X472Y2531D01*
X472Y2529D01*
X476Y2529D01*
X476Y2527D01*
X480Y2527D01*
X480Y2525D01*
X484Y2525D01*
X484Y2523D01*
X488Y2523D01*
X488Y2521D01*
X492Y2521D01*
X492Y2519D01*
X496Y2519D01*
X496Y2517D01*
X500Y2517D01*
X500Y2515D01*
X504Y2515D01*
X504Y2513D01*
X508Y2513D01*
X508Y2511D01*
X512Y2511D01*
X512Y2509D01*
X516Y2509D01*
X516Y2507D01*
X520Y2507D01*
X520Y2505D01*
X524Y2505D01*
X524Y2503D01*
X528Y2503D01*
X528Y2501D01*
X910Y2501D01*
X910Y2499D01*
X916Y2499D01*
X916Y2497D01*
X940Y2497D01*
X940Y2499D01*
X948Y2499D01*
X948Y2501D01*
X956Y2501D01*
X956Y2503D01*
X964Y2503D01*
X964Y2505D01*
X972Y2505D01*
X972Y2507D01*
X980Y2507D01*
X980Y2509D01*
X988Y2509D01*
X988Y2511D01*
X996Y2511D01*
X996Y2513D01*
X1004Y2513D01*
X1004Y2515D01*
X1012Y2515D01*
X1012Y2517D01*
X1020Y2517D01*
X1020Y2519D01*
X1028Y2519D01*
X1028Y2521D01*
X1036Y2521D01*
X1036Y2523D01*
X1044Y2523D01*
X1044Y2525D01*
X1052Y2525D01*
X1052Y2527D01*
X1058Y2527D01*
X1058Y2529D01*
X1060Y2529D01*
X1060Y2535D01*
X1062Y2535D01*
X1062Y2539D01*
X1064Y2539D01*
X1064Y2543D01*
X1066Y2543D01*
X1066Y2547D01*
X1068Y2547D01*
X1068Y2549D01*
X1070Y2549D01*
X1070Y2551D01*
X1072Y2551D01*
X1072Y2553D01*
X1074Y2553D01*
X1074Y2555D01*
X1078Y2555D01*
X1078Y2557D01*
X1082Y2557D01*
X1082Y2559D01*
X1084Y2559D01*
X1084Y2581D01*
X1080Y2581D01*
X1080Y2583D01*
X1076Y2583D01*
X1076Y2585D01*
X1074Y2585D01*
X1074Y2587D01*
X1072Y2587D01*
X1072Y2589D01*
X1070Y2589D01*
X1070Y2591D01*
X1068Y2591D01*
X1068Y2593D01*
X1066Y2593D01*
X1066Y2597D01*
X1064Y2597D01*
X1064Y2599D01*
X1062Y2599D01*
X1062Y2603D01*
X1060Y2603D01*
X1060Y2611D01*
X1058Y2611D01*
X1058Y2629D01*
X1060Y2629D01*
X1060Y2635D01*
X1062Y2635D01*
X1062Y2639D01*
X1064Y2639D01*
X1064Y2643D01*
X1066Y2643D01*
X1066Y2647D01*
X1068Y2647D01*
X1068Y2649D01*
X1070Y2649D01*
X1070Y2651D01*
X1072Y2651D01*
X1072Y2653D01*
X1074Y2653D01*
X1074Y2655D01*
X1078Y2655D01*
X1078Y2657D01*
X1082Y2657D01*
X1082Y2659D01*
X1084Y2659D01*
X1084Y2681D01*
X1080Y2681D01*
X1080Y2683D01*
X1076Y2683D01*
X1076Y2685D01*
X1074Y2685D01*
X1074Y2687D01*
X1072Y2687D01*
X1072Y2689D01*
X1070Y2689D01*
X1070Y2691D01*
X1068Y2691D01*
X1068Y2693D01*
X1066Y2693D01*
X1066Y2697D01*
X1064Y2697D01*
X1064Y2699D01*
X1062Y2699D01*
X1062Y2703D01*
X1060Y2703D01*
X1060Y2711D01*
X1058Y2711D01*
X1058Y2729D01*
X1060Y2729D01*
X1060Y2735D01*
X1062Y2735D01*
X1062Y2739D01*
X1064Y2739D01*
X1064Y2743D01*
X1066Y2743D01*
X1066Y2747D01*
X1068Y2747D01*
X1068Y2749D01*
X1070Y2749D01*
X1070Y2751D01*
X1072Y2751D01*
X1072Y2753D01*
X1074Y2753D01*
X1074Y2755D01*
X1078Y2755D01*
X1078Y2757D01*
X1082Y2757D01*
X1082Y2759D01*
X1084Y2759D01*
X1084Y2781D01*
X1080Y2781D01*
X1080Y2783D01*
X1076Y2783D01*
X1076Y2785D01*
X1074Y2785D01*
X1074Y2787D01*
X1072Y2787D01*
X1072Y2789D01*
X1070Y2789D01*
X1070Y2791D01*
X1068Y2791D01*
X1068Y2793D01*
X1066Y2793D01*
X1066Y2795D01*
X554Y2795D01*
G37*
D02*
G36*
X92Y2639D02*
X92Y2637D01*
X40Y2637D01*
X40Y2039D01*
X90Y2039D01*
X90Y2041D01*
X86Y2041D01*
X86Y2043D01*
X84Y2043D01*
X84Y2045D01*
X80Y2045D01*
X80Y2047D01*
X78Y2047D01*
X78Y2049D01*
X76Y2049D01*
X76Y2053D01*
X74Y2053D01*
X74Y2055D01*
X72Y2055D01*
X72Y2061D01*
X70Y2061D01*
X70Y2079D01*
X72Y2079D01*
X72Y2083D01*
X74Y2083D01*
X74Y2087D01*
X76Y2087D01*
X76Y2089D01*
X78Y2089D01*
X78Y2093D01*
X80Y2093D01*
X80Y2113D01*
X82Y2113D01*
X82Y2137D01*
X84Y2137D01*
X84Y2159D01*
X86Y2159D01*
X86Y2181D01*
X88Y2181D01*
X88Y2205D01*
X90Y2205D01*
X90Y2227D01*
X92Y2227D01*
X92Y2251D01*
X94Y2251D01*
X94Y2273D01*
X96Y2273D01*
X96Y2297D01*
X98Y2297D01*
X98Y2319D01*
X100Y2319D01*
X100Y2343D01*
X102Y2343D01*
X102Y2365D01*
X104Y2365D01*
X104Y2389D01*
X106Y2389D01*
X106Y2411D01*
X108Y2411D01*
X108Y2433D01*
X110Y2433D01*
X110Y2457D01*
X112Y2457D01*
X112Y2479D01*
X114Y2479D01*
X114Y2503D01*
X116Y2503D01*
X116Y2525D01*
X118Y2525D01*
X118Y2549D01*
X120Y2549D01*
X120Y2571D01*
X122Y2571D01*
X122Y2595D01*
X124Y2595D01*
X124Y2617D01*
X126Y2617D01*
X126Y2639D01*
X92Y2639D01*
G37*
D02*
G36*
X188Y2613D02*
X188Y2611D01*
X184Y2611D01*
X184Y2609D01*
X180Y2609D01*
X180Y2607D01*
X176Y2607D01*
X176Y2605D01*
X172Y2605D01*
X172Y2591D01*
X170Y2591D01*
X170Y2569D01*
X168Y2569D01*
X168Y2545D01*
X166Y2545D01*
X166Y2523D01*
X164Y2523D01*
X164Y2501D01*
X162Y2501D01*
X162Y2477D01*
X160Y2477D01*
X160Y2455D01*
X158Y2455D01*
X158Y2431D01*
X156Y2431D01*
X156Y2409D01*
X154Y2409D01*
X154Y2385D01*
X152Y2385D01*
X152Y2363D01*
X150Y2363D01*
X150Y2339D01*
X148Y2339D01*
X148Y2317D01*
X146Y2317D01*
X146Y2295D01*
X144Y2295D01*
X144Y2271D01*
X142Y2271D01*
X142Y2249D01*
X140Y2249D01*
X140Y2227D01*
X240Y2227D01*
X240Y2229D01*
X234Y2229D01*
X234Y2231D01*
X230Y2231D01*
X230Y2233D01*
X226Y2233D01*
X226Y2235D01*
X224Y2235D01*
X224Y2237D01*
X222Y2237D01*
X222Y2239D01*
X220Y2239D01*
X220Y2241D01*
X218Y2241D01*
X218Y2243D01*
X216Y2243D01*
X216Y2247D01*
X214Y2247D01*
X214Y2249D01*
X212Y2249D01*
X212Y2253D01*
X210Y2253D01*
X210Y2261D01*
X208Y2261D01*
X208Y2279D01*
X210Y2279D01*
X210Y2285D01*
X212Y2285D01*
X212Y2289D01*
X214Y2289D01*
X214Y2293D01*
X216Y2293D01*
X216Y2297D01*
X218Y2297D01*
X218Y2299D01*
X220Y2299D01*
X220Y2301D01*
X222Y2301D01*
X222Y2303D01*
X224Y2303D01*
X224Y2305D01*
X228Y2305D01*
X228Y2307D01*
X232Y2307D01*
X232Y2309D01*
X234Y2309D01*
X234Y2331D01*
X230Y2331D01*
X230Y2333D01*
X226Y2333D01*
X226Y2335D01*
X224Y2335D01*
X224Y2337D01*
X222Y2337D01*
X222Y2339D01*
X220Y2339D01*
X220Y2341D01*
X218Y2341D01*
X218Y2343D01*
X216Y2343D01*
X216Y2347D01*
X214Y2347D01*
X214Y2349D01*
X212Y2349D01*
X212Y2353D01*
X210Y2353D01*
X210Y2361D01*
X208Y2361D01*
X208Y2379D01*
X210Y2379D01*
X210Y2385D01*
X212Y2385D01*
X212Y2389D01*
X214Y2389D01*
X214Y2393D01*
X216Y2393D01*
X216Y2397D01*
X218Y2397D01*
X218Y2399D01*
X220Y2399D01*
X220Y2401D01*
X222Y2401D01*
X222Y2403D01*
X224Y2403D01*
X224Y2405D01*
X228Y2405D01*
X228Y2407D01*
X232Y2407D01*
X232Y2409D01*
X234Y2409D01*
X234Y2431D01*
X230Y2431D01*
X230Y2433D01*
X226Y2433D01*
X226Y2435D01*
X224Y2435D01*
X224Y2437D01*
X222Y2437D01*
X222Y2439D01*
X220Y2439D01*
X220Y2441D01*
X218Y2441D01*
X218Y2443D01*
X216Y2443D01*
X216Y2447D01*
X214Y2447D01*
X214Y2449D01*
X212Y2449D01*
X212Y2453D01*
X210Y2453D01*
X210Y2461D01*
X208Y2461D01*
X208Y2479D01*
X210Y2479D01*
X210Y2485D01*
X212Y2485D01*
X212Y2489D01*
X214Y2489D01*
X214Y2493D01*
X216Y2493D01*
X216Y2497D01*
X218Y2497D01*
X218Y2499D01*
X220Y2499D01*
X220Y2501D01*
X222Y2501D01*
X222Y2503D01*
X224Y2503D01*
X224Y2505D01*
X228Y2505D01*
X228Y2507D01*
X232Y2507D01*
X232Y2509D01*
X234Y2509D01*
X234Y2531D01*
X230Y2531D01*
X230Y2533D01*
X226Y2533D01*
X226Y2535D01*
X224Y2535D01*
X224Y2537D01*
X222Y2537D01*
X222Y2539D01*
X220Y2539D01*
X220Y2541D01*
X218Y2541D01*
X218Y2543D01*
X216Y2543D01*
X216Y2547D01*
X214Y2547D01*
X214Y2549D01*
X212Y2549D01*
X212Y2553D01*
X210Y2553D01*
X210Y2561D01*
X208Y2561D01*
X208Y2579D01*
X210Y2579D01*
X210Y2585D01*
X212Y2585D01*
X212Y2589D01*
X214Y2589D01*
X214Y2593D01*
X216Y2593D01*
X216Y2597D01*
X218Y2597D01*
X218Y2599D01*
X220Y2599D01*
X220Y2601D01*
X222Y2601D01*
X222Y2603D01*
X224Y2603D01*
X224Y2605D01*
X228Y2605D01*
X228Y2607D01*
X232Y2607D01*
X232Y2609D01*
X234Y2609D01*
X234Y2611D01*
X242Y2611D01*
X242Y2613D01*
X188Y2613D01*
G37*
D02*
G36*
X532Y2501D02*
X532Y2499D01*
X536Y2499D01*
X536Y2497D01*
X540Y2497D01*
X540Y2495D01*
X544Y2495D01*
X544Y2493D01*
X548Y2493D01*
X548Y2491D01*
X552Y2491D01*
X552Y2489D01*
X556Y2489D01*
X556Y2487D01*
X560Y2487D01*
X560Y2485D01*
X564Y2485D01*
X564Y2483D01*
X568Y2483D01*
X568Y2481D01*
X572Y2481D01*
X572Y2479D01*
X576Y2479D01*
X576Y2477D01*
X580Y2477D01*
X580Y2475D01*
X584Y2475D01*
X584Y2473D01*
X588Y2473D01*
X588Y2471D01*
X592Y2471D01*
X592Y2469D01*
X596Y2469D01*
X596Y2467D01*
X600Y2467D01*
X600Y2465D01*
X604Y2465D01*
X604Y2463D01*
X608Y2463D01*
X608Y2461D01*
X612Y2461D01*
X612Y2459D01*
X616Y2459D01*
X616Y2457D01*
X620Y2457D01*
X620Y2455D01*
X624Y2455D01*
X624Y2453D01*
X628Y2453D01*
X628Y2451D01*
X632Y2451D01*
X632Y2449D01*
X636Y2449D01*
X636Y2447D01*
X640Y2447D01*
X640Y2445D01*
X644Y2445D01*
X644Y2443D01*
X648Y2443D01*
X648Y2441D01*
X652Y2441D01*
X652Y2439D01*
X890Y2439D01*
X890Y2441D01*
X886Y2441D01*
X886Y2443D01*
X884Y2443D01*
X884Y2445D01*
X880Y2445D01*
X880Y2447D01*
X878Y2447D01*
X878Y2449D01*
X876Y2449D01*
X876Y2453D01*
X874Y2453D01*
X874Y2455D01*
X872Y2455D01*
X872Y2461D01*
X870Y2461D01*
X870Y2479D01*
X872Y2479D01*
X872Y2483D01*
X874Y2483D01*
X874Y2487D01*
X876Y2487D01*
X876Y2489D01*
X878Y2489D01*
X878Y2493D01*
X882Y2493D01*
X882Y2495D01*
X884Y2495D01*
X884Y2497D01*
X888Y2497D01*
X888Y2499D01*
X892Y2499D01*
X892Y2501D01*
X532Y2501D01*
G37*
D02*
G36*
X1048Y2489D02*
X1048Y2487D01*
X1040Y2487D01*
X1040Y2485D01*
X1032Y2485D01*
X1032Y2483D01*
X1024Y2483D01*
X1024Y2481D01*
X1016Y2481D01*
X1016Y2479D01*
X1008Y2479D01*
X1008Y2477D01*
X1000Y2477D01*
X1000Y2475D01*
X992Y2475D01*
X992Y2473D01*
X984Y2473D01*
X984Y2471D01*
X976Y2471D01*
X976Y2469D01*
X968Y2469D01*
X968Y2467D01*
X960Y2467D01*
X960Y2465D01*
X952Y2465D01*
X952Y2463D01*
X944Y2463D01*
X944Y2461D01*
X936Y2461D01*
X936Y2459D01*
X930Y2459D01*
X930Y2455D01*
X928Y2455D01*
X928Y2451D01*
X926Y2451D01*
X926Y2449D01*
X924Y2449D01*
X924Y2447D01*
X922Y2447D01*
X922Y2445D01*
X920Y2445D01*
X920Y2443D01*
X916Y2443D01*
X916Y2441D01*
X912Y2441D01*
X912Y2439D01*
X1064Y2439D01*
X1064Y2443D01*
X1066Y2443D01*
X1066Y2447D01*
X1068Y2447D01*
X1068Y2449D01*
X1070Y2449D01*
X1070Y2451D01*
X1072Y2451D01*
X1072Y2453D01*
X1074Y2453D01*
X1074Y2455D01*
X1078Y2455D01*
X1078Y2457D01*
X1082Y2457D01*
X1082Y2459D01*
X1084Y2459D01*
X1084Y2481D01*
X1080Y2481D01*
X1080Y2483D01*
X1076Y2483D01*
X1076Y2485D01*
X1074Y2485D01*
X1074Y2487D01*
X1072Y2487D01*
X1072Y2489D01*
X1048Y2489D01*
G37*
D02*
G36*
X290Y2453D02*
X290Y2449D01*
X288Y2449D01*
X288Y2445D01*
X286Y2445D01*
X286Y2443D01*
X284Y2443D01*
X284Y2441D01*
X282Y2441D01*
X282Y2439D01*
X280Y2439D01*
X280Y2437D01*
X278Y2437D01*
X278Y2435D01*
X276Y2435D01*
X276Y2433D01*
X272Y2433D01*
X272Y2431D01*
X268Y2431D01*
X268Y2409D01*
X272Y2409D01*
X272Y2407D01*
X276Y2407D01*
X276Y2405D01*
X278Y2405D01*
X278Y2403D01*
X280Y2403D01*
X280Y2401D01*
X282Y2401D01*
X282Y2399D01*
X284Y2399D01*
X284Y2397D01*
X286Y2397D01*
X286Y2395D01*
X288Y2395D01*
X288Y2391D01*
X290Y2391D01*
X290Y2387D01*
X292Y2387D01*
X292Y2381D01*
X294Y2381D01*
X294Y2359D01*
X292Y2359D01*
X292Y2353D01*
X290Y2353D01*
X290Y2349D01*
X288Y2349D01*
X288Y2345D01*
X286Y2345D01*
X286Y2343D01*
X284Y2343D01*
X284Y2341D01*
X282Y2341D01*
X282Y2339D01*
X280Y2339D01*
X280Y2337D01*
X278Y2337D01*
X278Y2335D01*
X276Y2335D01*
X276Y2333D01*
X272Y2333D01*
X272Y2331D01*
X268Y2331D01*
X268Y2309D01*
X272Y2309D01*
X272Y2307D01*
X276Y2307D01*
X276Y2305D01*
X278Y2305D01*
X278Y2303D01*
X280Y2303D01*
X280Y2301D01*
X510Y2301D01*
X510Y2299D01*
X516Y2299D01*
X516Y2297D01*
X518Y2297D01*
X518Y2295D01*
X522Y2295D01*
X522Y2293D01*
X524Y2293D01*
X524Y2291D01*
X526Y2291D01*
X526Y2289D01*
X528Y2289D01*
X528Y2285D01*
X530Y2285D01*
X530Y2281D01*
X532Y2281D01*
X532Y2259D01*
X530Y2259D01*
X530Y2255D01*
X528Y2255D01*
X528Y2251D01*
X526Y2251D01*
X526Y2249D01*
X524Y2249D01*
X524Y2247D01*
X522Y2247D01*
X522Y2245D01*
X520Y2245D01*
X520Y2243D01*
X516Y2243D01*
X516Y2241D01*
X512Y2241D01*
X512Y2239D01*
X478Y2239D01*
X478Y2237D01*
X474Y2237D01*
X474Y2235D01*
X470Y2235D01*
X470Y2233D01*
X466Y2233D01*
X466Y2231D01*
X462Y2231D01*
X462Y2229D01*
X458Y2229D01*
X458Y2227D01*
X454Y2227D01*
X454Y2225D01*
X450Y2225D01*
X450Y2223D01*
X446Y2223D01*
X446Y2221D01*
X442Y2221D01*
X442Y2219D01*
X438Y2219D01*
X438Y2217D01*
X434Y2217D01*
X434Y2215D01*
X430Y2215D01*
X430Y2213D01*
X426Y2213D01*
X426Y2211D01*
X422Y2211D01*
X422Y2209D01*
X418Y2209D01*
X418Y2207D01*
X414Y2207D01*
X414Y2205D01*
X410Y2205D01*
X410Y2203D01*
X406Y2203D01*
X406Y2201D01*
X402Y2201D01*
X402Y2199D01*
X398Y2199D01*
X398Y2197D01*
X394Y2197D01*
X394Y2195D01*
X390Y2195D01*
X390Y2193D01*
X386Y2193D01*
X386Y2191D01*
X382Y2191D01*
X382Y2189D01*
X378Y2189D01*
X378Y2187D01*
X374Y2187D01*
X374Y2185D01*
X370Y2185D01*
X370Y2183D01*
X366Y2183D01*
X366Y2181D01*
X362Y2181D01*
X362Y2179D01*
X358Y2179D01*
X358Y2177D01*
X354Y2177D01*
X354Y2175D01*
X350Y2175D01*
X350Y2173D01*
X346Y2173D01*
X346Y2171D01*
X342Y2171D01*
X342Y2169D01*
X338Y2169D01*
X338Y2167D01*
X334Y2167D01*
X334Y2165D01*
X330Y2165D01*
X330Y2163D01*
X326Y2163D01*
X326Y2161D01*
X322Y2161D01*
X322Y2159D01*
X318Y2159D01*
X318Y2157D01*
X314Y2157D01*
X314Y2155D01*
X310Y2155D01*
X310Y2153D01*
X306Y2153D01*
X306Y2151D01*
X302Y2151D01*
X302Y2149D01*
X298Y2149D01*
X298Y2147D01*
X294Y2147D01*
X294Y2145D01*
X290Y2145D01*
X290Y2143D01*
X286Y2143D01*
X286Y2141D01*
X282Y2141D01*
X282Y2139D01*
X278Y2139D01*
X278Y2137D01*
X274Y2137D01*
X274Y2135D01*
X270Y2135D01*
X270Y2133D01*
X266Y2133D01*
X266Y2131D01*
X262Y2131D01*
X262Y2129D01*
X258Y2129D01*
X258Y2127D01*
X254Y2127D01*
X254Y2125D01*
X250Y2125D01*
X250Y2123D01*
X246Y2123D01*
X246Y2121D01*
X242Y2121D01*
X242Y2119D01*
X612Y2119D01*
X612Y2117D01*
X618Y2117D01*
X618Y2115D01*
X624Y2115D01*
X624Y2113D01*
X626Y2113D01*
X626Y2111D01*
X630Y2111D01*
X630Y2109D01*
X632Y2109D01*
X632Y2107D01*
X634Y2107D01*
X634Y2105D01*
X636Y2105D01*
X636Y2103D01*
X638Y2103D01*
X638Y2101D01*
X640Y2101D01*
X640Y2099D01*
X642Y2099D01*
X642Y2097D01*
X644Y2097D01*
X644Y2093D01*
X646Y2093D01*
X646Y2089D01*
X648Y2089D01*
X648Y2081D01*
X650Y2081D01*
X650Y2057D01*
X648Y2057D01*
X648Y2051D01*
X646Y2051D01*
X646Y2047D01*
X644Y2047D01*
X644Y2043D01*
X642Y2043D01*
X642Y2041D01*
X640Y2041D01*
X640Y2039D01*
X638Y2039D01*
X638Y2035D01*
X636Y2035D01*
X636Y2033D01*
X632Y2033D01*
X632Y2031D01*
X630Y2031D01*
X630Y2029D01*
X628Y2029D01*
X628Y2027D01*
X624Y2027D01*
X624Y2025D01*
X620Y2025D01*
X620Y2023D01*
X614Y2023D01*
X614Y2021D01*
X1182Y2021D01*
X1182Y2059D01*
X1176Y2059D01*
X1176Y2061D01*
X1172Y2061D01*
X1172Y2063D01*
X1168Y2063D01*
X1168Y2065D01*
X1164Y2065D01*
X1164Y2067D01*
X1160Y2067D01*
X1160Y2069D01*
X1156Y2069D01*
X1156Y2071D01*
X1152Y2071D01*
X1152Y2073D01*
X1148Y2073D01*
X1148Y2075D01*
X1144Y2075D01*
X1144Y2077D01*
X1138Y2077D01*
X1138Y2079D01*
X1134Y2079D01*
X1134Y2081D01*
X1130Y2081D01*
X1130Y2083D01*
X1126Y2083D01*
X1126Y2085D01*
X1122Y2085D01*
X1122Y2087D01*
X1118Y2087D01*
X1118Y2089D01*
X1114Y2089D01*
X1114Y2091D01*
X1110Y2091D01*
X1110Y2093D01*
X1106Y2093D01*
X1106Y2095D01*
X1102Y2095D01*
X1102Y2097D01*
X1096Y2097D01*
X1096Y2099D01*
X1092Y2099D01*
X1092Y2101D01*
X1088Y2101D01*
X1088Y2103D01*
X1084Y2103D01*
X1084Y2105D01*
X1080Y2105D01*
X1080Y2107D01*
X1076Y2107D01*
X1076Y2109D01*
X1072Y2109D01*
X1072Y2111D01*
X1068Y2111D01*
X1068Y2113D01*
X1064Y2113D01*
X1064Y2115D01*
X1058Y2115D01*
X1058Y2117D01*
X1054Y2117D01*
X1054Y2119D01*
X1050Y2119D01*
X1050Y2121D01*
X1046Y2121D01*
X1046Y2123D01*
X1042Y2123D01*
X1042Y2125D01*
X1038Y2125D01*
X1038Y2127D01*
X1034Y2127D01*
X1034Y2129D01*
X1030Y2129D01*
X1030Y2131D01*
X1026Y2131D01*
X1026Y2133D01*
X1020Y2133D01*
X1020Y2135D01*
X1016Y2135D01*
X1016Y2137D01*
X1012Y2137D01*
X1012Y2139D01*
X1008Y2139D01*
X1008Y2141D01*
X1004Y2141D01*
X1004Y2143D01*
X1000Y2143D01*
X1000Y2145D01*
X996Y2145D01*
X996Y2147D01*
X992Y2147D01*
X992Y2149D01*
X988Y2149D01*
X988Y2151D01*
X982Y2151D01*
X982Y2153D01*
X978Y2153D01*
X978Y2155D01*
X974Y2155D01*
X974Y2157D01*
X970Y2157D01*
X970Y2159D01*
X966Y2159D01*
X966Y2161D01*
X962Y2161D01*
X962Y2163D01*
X958Y2163D01*
X958Y2165D01*
X954Y2165D01*
X954Y2167D01*
X950Y2167D01*
X950Y2169D01*
X944Y2169D01*
X944Y2171D01*
X940Y2171D01*
X940Y2173D01*
X936Y2173D01*
X936Y2175D01*
X932Y2175D01*
X932Y2177D01*
X928Y2177D01*
X928Y2179D01*
X924Y2179D01*
X924Y2181D01*
X920Y2181D01*
X920Y2183D01*
X916Y2183D01*
X916Y2185D01*
X912Y2185D01*
X912Y2187D01*
X906Y2187D01*
X906Y2189D01*
X902Y2189D01*
X902Y2191D01*
X898Y2191D01*
X898Y2193D01*
X894Y2193D01*
X894Y2195D01*
X890Y2195D01*
X890Y2197D01*
X886Y2197D01*
X886Y2199D01*
X882Y2199D01*
X882Y2201D01*
X878Y2201D01*
X878Y2203D01*
X874Y2203D01*
X874Y2205D01*
X870Y2205D01*
X870Y2207D01*
X864Y2207D01*
X864Y2209D01*
X860Y2209D01*
X860Y2211D01*
X856Y2211D01*
X856Y2213D01*
X852Y2213D01*
X852Y2215D01*
X848Y2215D01*
X848Y2217D01*
X844Y2217D01*
X844Y2219D01*
X840Y2219D01*
X840Y2221D01*
X836Y2221D01*
X836Y2223D01*
X832Y2223D01*
X832Y2225D01*
X826Y2225D01*
X826Y2227D01*
X822Y2227D01*
X822Y2229D01*
X818Y2229D01*
X818Y2231D01*
X814Y2231D01*
X814Y2233D01*
X810Y2233D01*
X810Y2235D01*
X806Y2235D01*
X806Y2237D01*
X802Y2237D01*
X802Y2239D01*
X798Y2239D01*
X798Y2241D01*
X794Y2241D01*
X794Y2243D01*
X788Y2243D01*
X788Y2245D01*
X784Y2245D01*
X784Y2247D01*
X780Y2247D01*
X780Y2249D01*
X776Y2249D01*
X776Y2251D01*
X772Y2251D01*
X772Y2253D01*
X768Y2253D01*
X768Y2255D01*
X764Y2255D01*
X764Y2257D01*
X760Y2257D01*
X760Y2259D01*
X756Y2259D01*
X756Y2261D01*
X750Y2261D01*
X750Y2263D01*
X746Y2263D01*
X746Y2265D01*
X742Y2265D01*
X742Y2267D01*
X738Y2267D01*
X738Y2269D01*
X734Y2269D01*
X734Y2271D01*
X730Y2271D01*
X730Y2273D01*
X726Y2273D01*
X726Y2275D01*
X722Y2275D01*
X722Y2277D01*
X718Y2277D01*
X718Y2279D01*
X712Y2279D01*
X712Y2281D01*
X708Y2281D01*
X708Y2283D01*
X704Y2283D01*
X704Y2285D01*
X700Y2285D01*
X700Y2287D01*
X696Y2287D01*
X696Y2289D01*
X692Y2289D01*
X692Y2291D01*
X688Y2291D01*
X688Y2293D01*
X684Y2293D01*
X684Y2295D01*
X680Y2295D01*
X680Y2297D01*
X676Y2297D01*
X676Y2299D01*
X670Y2299D01*
X670Y2301D01*
X666Y2301D01*
X666Y2303D01*
X662Y2303D01*
X662Y2305D01*
X658Y2305D01*
X658Y2307D01*
X654Y2307D01*
X654Y2309D01*
X650Y2309D01*
X650Y2311D01*
X646Y2311D01*
X646Y2313D01*
X642Y2313D01*
X642Y2315D01*
X638Y2315D01*
X638Y2317D01*
X632Y2317D01*
X632Y2319D01*
X628Y2319D01*
X628Y2321D01*
X624Y2321D01*
X624Y2323D01*
X620Y2323D01*
X620Y2325D01*
X616Y2325D01*
X616Y2327D01*
X612Y2327D01*
X612Y2329D01*
X608Y2329D01*
X608Y2331D01*
X604Y2331D01*
X604Y2333D01*
X600Y2333D01*
X600Y2335D01*
X594Y2335D01*
X594Y2337D01*
X590Y2337D01*
X590Y2339D01*
X586Y2339D01*
X586Y2341D01*
X582Y2341D01*
X582Y2343D01*
X578Y2343D01*
X578Y2345D01*
X574Y2345D01*
X574Y2347D01*
X570Y2347D01*
X570Y2349D01*
X566Y2349D01*
X566Y2351D01*
X562Y2351D01*
X562Y2353D01*
X556Y2353D01*
X556Y2355D01*
X552Y2355D01*
X552Y2357D01*
X548Y2357D01*
X548Y2359D01*
X544Y2359D01*
X544Y2361D01*
X540Y2361D01*
X540Y2363D01*
X536Y2363D01*
X536Y2365D01*
X532Y2365D01*
X532Y2367D01*
X528Y2367D01*
X528Y2369D01*
X524Y2369D01*
X524Y2371D01*
X518Y2371D01*
X518Y2373D01*
X514Y2373D01*
X514Y2375D01*
X510Y2375D01*
X510Y2377D01*
X506Y2377D01*
X506Y2379D01*
X502Y2379D01*
X502Y2381D01*
X498Y2381D01*
X498Y2383D01*
X494Y2383D01*
X494Y2385D01*
X490Y2385D01*
X490Y2387D01*
X486Y2387D01*
X486Y2389D01*
X480Y2389D01*
X480Y2391D01*
X476Y2391D01*
X476Y2393D01*
X472Y2393D01*
X472Y2395D01*
X468Y2395D01*
X468Y2397D01*
X464Y2397D01*
X464Y2399D01*
X460Y2399D01*
X460Y2401D01*
X456Y2401D01*
X456Y2403D01*
X452Y2403D01*
X452Y2405D01*
X448Y2405D01*
X448Y2407D01*
X444Y2407D01*
X444Y2409D01*
X438Y2409D01*
X438Y2411D01*
X434Y2411D01*
X434Y2413D01*
X430Y2413D01*
X430Y2415D01*
X426Y2415D01*
X426Y2417D01*
X422Y2417D01*
X422Y2419D01*
X418Y2419D01*
X418Y2421D01*
X414Y2421D01*
X414Y2423D01*
X410Y2423D01*
X410Y2425D01*
X406Y2425D01*
X406Y2427D01*
X400Y2427D01*
X400Y2429D01*
X396Y2429D01*
X396Y2431D01*
X392Y2431D01*
X392Y2433D01*
X388Y2433D01*
X388Y2435D01*
X384Y2435D01*
X384Y2437D01*
X380Y2437D01*
X380Y2439D01*
X376Y2439D01*
X376Y2441D01*
X372Y2441D01*
X372Y2443D01*
X368Y2443D01*
X368Y2445D01*
X362Y2445D01*
X362Y2447D01*
X358Y2447D01*
X358Y2449D01*
X354Y2449D01*
X354Y2451D01*
X350Y2451D01*
X350Y2453D01*
X290Y2453D01*
G37*
D02*
G36*
X656Y2439D02*
X656Y2437D01*
X1062Y2437D01*
X1062Y2439D01*
X656Y2439D01*
G37*
D02*
G36*
X656Y2439D02*
X656Y2437D01*
X1062Y2437D01*
X1062Y2439D01*
X656Y2439D01*
G37*
D02*
G36*
X660Y2437D02*
X660Y2435D01*
X664Y2435D01*
X664Y2433D01*
X668Y2433D01*
X668Y2431D01*
X672Y2431D01*
X672Y2429D01*
X676Y2429D01*
X676Y2427D01*
X680Y2427D01*
X680Y2425D01*
X684Y2425D01*
X684Y2423D01*
X688Y2423D01*
X688Y2421D01*
X692Y2421D01*
X692Y2419D01*
X696Y2419D01*
X696Y2417D01*
X700Y2417D01*
X700Y2415D01*
X704Y2415D01*
X704Y2413D01*
X708Y2413D01*
X708Y2411D01*
X712Y2411D01*
X712Y2409D01*
X716Y2409D01*
X716Y2407D01*
X720Y2407D01*
X720Y2405D01*
X724Y2405D01*
X724Y2403D01*
X728Y2403D01*
X728Y2401D01*
X732Y2401D01*
X732Y2399D01*
X736Y2399D01*
X736Y2397D01*
X740Y2397D01*
X740Y2395D01*
X744Y2395D01*
X744Y2393D01*
X748Y2393D01*
X748Y2391D01*
X752Y2391D01*
X752Y2389D01*
X756Y2389D01*
X756Y2387D01*
X760Y2387D01*
X760Y2385D01*
X764Y2385D01*
X764Y2383D01*
X768Y2383D01*
X768Y2381D01*
X772Y2381D01*
X772Y2379D01*
X774Y2379D01*
X774Y2377D01*
X1090Y2377D01*
X1090Y2379D01*
X1084Y2379D01*
X1084Y2381D01*
X1080Y2381D01*
X1080Y2383D01*
X1076Y2383D01*
X1076Y2385D01*
X1074Y2385D01*
X1074Y2387D01*
X1072Y2387D01*
X1072Y2389D01*
X1070Y2389D01*
X1070Y2391D01*
X1068Y2391D01*
X1068Y2393D01*
X1066Y2393D01*
X1066Y2397D01*
X1064Y2397D01*
X1064Y2399D01*
X1062Y2399D01*
X1062Y2403D01*
X1060Y2403D01*
X1060Y2411D01*
X1058Y2411D01*
X1058Y2429D01*
X1060Y2429D01*
X1060Y2435D01*
X1062Y2435D01*
X1062Y2437D01*
X660Y2437D01*
G37*
D02*
G36*
X778Y2377D02*
X778Y2375D01*
X1298Y2375D01*
X1298Y2377D01*
X778Y2377D01*
G37*
D02*
G36*
X778Y2377D02*
X778Y2375D01*
X1298Y2375D01*
X1298Y2377D01*
X778Y2377D01*
G37*
D02*
G36*
X782Y2375D02*
X782Y2373D01*
X786Y2373D01*
X786Y2371D01*
X790Y2371D01*
X790Y2369D01*
X794Y2369D01*
X794Y2367D01*
X798Y2367D01*
X798Y2365D01*
X802Y2365D01*
X802Y2363D01*
X806Y2363D01*
X806Y2361D01*
X810Y2361D01*
X810Y2359D01*
X814Y2359D01*
X814Y2357D01*
X818Y2357D01*
X818Y2355D01*
X822Y2355D01*
X822Y2353D01*
X826Y2353D01*
X826Y2351D01*
X1278Y2351D01*
X1278Y2349D01*
X1298Y2349D01*
X1298Y2375D01*
X782Y2375D01*
G37*
D02*
G36*
X830Y2351D02*
X830Y2349D01*
X834Y2349D01*
X834Y2347D01*
X838Y2347D01*
X838Y2345D01*
X842Y2345D01*
X842Y2343D01*
X846Y2343D01*
X846Y2341D01*
X850Y2341D01*
X850Y2339D01*
X854Y2339D01*
X854Y2337D01*
X858Y2337D01*
X858Y2335D01*
X862Y2335D01*
X862Y2333D01*
X866Y2333D01*
X866Y2331D01*
X870Y2331D01*
X870Y2329D01*
X874Y2329D01*
X874Y2327D01*
X878Y2327D01*
X878Y2325D01*
X882Y2325D01*
X882Y2323D01*
X886Y2323D01*
X886Y2321D01*
X890Y2321D01*
X890Y2319D01*
X894Y2319D01*
X894Y2317D01*
X898Y2317D01*
X898Y2315D01*
X902Y2315D01*
X902Y2313D01*
X906Y2313D01*
X906Y2311D01*
X910Y2311D01*
X910Y2309D01*
X914Y2309D01*
X914Y2307D01*
X918Y2307D01*
X918Y2305D01*
X922Y2305D01*
X922Y2303D01*
X926Y2303D01*
X926Y2301D01*
X930Y2301D01*
X930Y2299D01*
X934Y2299D01*
X934Y2297D01*
X938Y2297D01*
X938Y2295D01*
X942Y2295D01*
X942Y2293D01*
X946Y2293D01*
X946Y2291D01*
X950Y2291D01*
X950Y2289D01*
X954Y2289D01*
X954Y2287D01*
X958Y2287D01*
X958Y2285D01*
X962Y2285D01*
X962Y2283D01*
X966Y2283D01*
X966Y2281D01*
X970Y2281D01*
X970Y2279D01*
X974Y2279D01*
X974Y2277D01*
X978Y2277D01*
X978Y2275D01*
X982Y2275D01*
X982Y2273D01*
X986Y2273D01*
X986Y2271D01*
X990Y2271D01*
X990Y2269D01*
X994Y2269D01*
X994Y2267D01*
X998Y2267D01*
X998Y2265D01*
X1002Y2265D01*
X1002Y2263D01*
X1006Y2263D01*
X1006Y2261D01*
X1010Y2261D01*
X1010Y2259D01*
X1014Y2259D01*
X1014Y2257D01*
X1018Y2257D01*
X1018Y2255D01*
X1022Y2255D01*
X1022Y2253D01*
X1026Y2253D01*
X1026Y2251D01*
X1030Y2251D01*
X1030Y2249D01*
X1034Y2249D01*
X1034Y2247D01*
X1038Y2247D01*
X1038Y2245D01*
X1042Y2245D01*
X1042Y2243D01*
X1046Y2243D01*
X1046Y2241D01*
X1050Y2241D01*
X1050Y2239D01*
X1054Y2239D01*
X1054Y2237D01*
X1058Y2237D01*
X1058Y2235D01*
X1062Y2235D01*
X1062Y2233D01*
X1066Y2233D01*
X1066Y2231D01*
X1070Y2231D01*
X1070Y2229D01*
X1074Y2229D01*
X1074Y2227D01*
X1078Y2227D01*
X1078Y2225D01*
X1082Y2225D01*
X1082Y2223D01*
X1086Y2223D01*
X1086Y2221D01*
X1090Y2221D01*
X1090Y2219D01*
X1094Y2219D01*
X1094Y2217D01*
X1098Y2217D01*
X1098Y2215D01*
X1102Y2215D01*
X1102Y2213D01*
X1106Y2213D01*
X1106Y2211D01*
X1110Y2211D01*
X1110Y2209D01*
X1114Y2209D01*
X1114Y2207D01*
X1118Y2207D01*
X1118Y2205D01*
X1122Y2205D01*
X1122Y2203D01*
X1142Y2203D01*
X1142Y2309D01*
X1144Y2309D01*
X1144Y2317D01*
X1146Y2317D01*
X1146Y2321D01*
X1148Y2321D01*
X1148Y2325D01*
X1150Y2325D01*
X1150Y2327D01*
X1152Y2327D01*
X1152Y2329D01*
X1154Y2329D01*
X1154Y2331D01*
X1156Y2331D01*
X1156Y2333D01*
X1158Y2333D01*
X1158Y2335D01*
X1160Y2335D01*
X1160Y2337D01*
X1164Y2337D01*
X1164Y2339D01*
X1166Y2339D01*
X1166Y2341D01*
X1170Y2341D01*
X1170Y2343D01*
X1174Y2343D01*
X1174Y2345D01*
X1178Y2345D01*
X1178Y2347D01*
X1184Y2347D01*
X1184Y2349D01*
X1194Y2349D01*
X1194Y2351D01*
X830Y2351D01*
G37*
D02*
G36*
X282Y2301D02*
X282Y2299D01*
X284Y2299D01*
X284Y2297D01*
X286Y2297D01*
X286Y2295D01*
X288Y2295D01*
X288Y2291D01*
X290Y2291D01*
X290Y2287D01*
X292Y2287D01*
X292Y2281D01*
X294Y2281D01*
X294Y2259D01*
X292Y2259D01*
X292Y2253D01*
X290Y2253D01*
X290Y2249D01*
X288Y2249D01*
X288Y2245D01*
X286Y2245D01*
X286Y2243D01*
X284Y2243D01*
X284Y2241D01*
X282Y2241D01*
X282Y2239D01*
X280Y2239D01*
X280Y2237D01*
X278Y2237D01*
X278Y2235D01*
X276Y2235D01*
X276Y2233D01*
X272Y2233D01*
X272Y2231D01*
X268Y2231D01*
X268Y2229D01*
X262Y2229D01*
X262Y2227D01*
X378Y2227D01*
X378Y2229D01*
X382Y2229D01*
X382Y2231D01*
X386Y2231D01*
X386Y2233D01*
X390Y2233D01*
X390Y2235D01*
X394Y2235D01*
X394Y2237D01*
X398Y2237D01*
X398Y2239D01*
X402Y2239D01*
X402Y2241D01*
X406Y2241D01*
X406Y2243D01*
X410Y2243D01*
X410Y2245D01*
X414Y2245D01*
X414Y2247D01*
X418Y2247D01*
X418Y2249D01*
X422Y2249D01*
X422Y2251D01*
X426Y2251D01*
X426Y2253D01*
X430Y2253D01*
X430Y2255D01*
X434Y2255D01*
X434Y2257D01*
X438Y2257D01*
X438Y2259D01*
X442Y2259D01*
X442Y2261D01*
X446Y2261D01*
X446Y2263D01*
X450Y2263D01*
X450Y2265D01*
X454Y2265D01*
X454Y2267D01*
X458Y2267D01*
X458Y2269D01*
X462Y2269D01*
X462Y2271D01*
X466Y2271D01*
X466Y2273D01*
X470Y2273D01*
X470Y2279D01*
X472Y2279D01*
X472Y2283D01*
X474Y2283D01*
X474Y2287D01*
X476Y2287D01*
X476Y2289D01*
X478Y2289D01*
X478Y2293D01*
X482Y2293D01*
X482Y2295D01*
X484Y2295D01*
X484Y2297D01*
X488Y2297D01*
X488Y2299D01*
X492Y2299D01*
X492Y2301D01*
X282Y2301D01*
G37*
D02*
G36*
X140Y2227D02*
X140Y2225D01*
X374Y2225D01*
X374Y2227D01*
X140Y2227D01*
G37*
D02*
G36*
X140Y2227D02*
X140Y2225D01*
X374Y2225D01*
X374Y2227D01*
X140Y2227D01*
G37*
D02*
G36*
X138Y2225D02*
X138Y2203D01*
X136Y2203D01*
X136Y2179D01*
X134Y2179D01*
X134Y2157D01*
X132Y2157D01*
X132Y2133D01*
X130Y2133D01*
X130Y2111D01*
X128Y2111D01*
X128Y2085D01*
X130Y2085D01*
X130Y2081D01*
X132Y2081D01*
X132Y2059D01*
X130Y2059D01*
X130Y2055D01*
X128Y2055D01*
X128Y2051D01*
X126Y2051D01*
X126Y2049D01*
X124Y2049D01*
X124Y2047D01*
X122Y2047D01*
X122Y2045D01*
X120Y2045D01*
X120Y2043D01*
X116Y2043D01*
X116Y2041D01*
X112Y2041D01*
X112Y2039D01*
X184Y2039D01*
X184Y2127D01*
X186Y2127D01*
X186Y2131D01*
X188Y2131D01*
X188Y2133D01*
X190Y2133D01*
X190Y2135D01*
X194Y2135D01*
X194Y2137D01*
X198Y2137D01*
X198Y2139D01*
X202Y2139D01*
X202Y2141D01*
X206Y2141D01*
X206Y2143D01*
X210Y2143D01*
X210Y2145D01*
X214Y2145D01*
X214Y2147D01*
X218Y2147D01*
X218Y2149D01*
X222Y2149D01*
X222Y2151D01*
X226Y2151D01*
X226Y2153D01*
X230Y2153D01*
X230Y2155D01*
X234Y2155D01*
X234Y2157D01*
X238Y2157D01*
X238Y2159D01*
X242Y2159D01*
X242Y2161D01*
X246Y2161D01*
X246Y2163D01*
X250Y2163D01*
X250Y2165D01*
X254Y2165D01*
X254Y2167D01*
X258Y2167D01*
X258Y2169D01*
X262Y2169D01*
X262Y2171D01*
X266Y2171D01*
X266Y2173D01*
X270Y2173D01*
X270Y2175D01*
X274Y2175D01*
X274Y2177D01*
X278Y2177D01*
X278Y2179D01*
X282Y2179D01*
X282Y2181D01*
X286Y2181D01*
X286Y2183D01*
X290Y2183D01*
X290Y2185D01*
X294Y2185D01*
X294Y2187D01*
X298Y2187D01*
X298Y2189D01*
X302Y2189D01*
X302Y2191D01*
X306Y2191D01*
X306Y2193D01*
X310Y2193D01*
X310Y2195D01*
X314Y2195D01*
X314Y2197D01*
X318Y2197D01*
X318Y2199D01*
X322Y2199D01*
X322Y2201D01*
X326Y2201D01*
X326Y2203D01*
X330Y2203D01*
X330Y2205D01*
X334Y2205D01*
X334Y2207D01*
X338Y2207D01*
X338Y2209D01*
X342Y2209D01*
X342Y2211D01*
X346Y2211D01*
X346Y2213D01*
X350Y2213D01*
X350Y2215D01*
X354Y2215D01*
X354Y2217D01*
X358Y2217D01*
X358Y2219D01*
X362Y2219D01*
X362Y2221D01*
X366Y2221D01*
X366Y2223D01*
X370Y2223D01*
X370Y2225D01*
X138Y2225D01*
G37*
D02*
G36*
X238Y2119D02*
X238Y2117D01*
X234Y2117D01*
X234Y2115D01*
X230Y2115D01*
X230Y2113D01*
X226Y2113D01*
X226Y2111D01*
X222Y2111D01*
X222Y2109D01*
X220Y2109D01*
X220Y1827D01*
X222Y1827D01*
X222Y1707D01*
X226Y1707D01*
X226Y1705D01*
X228Y1705D01*
X228Y1703D01*
X230Y1703D01*
X230Y1701D01*
X232Y1701D01*
X232Y1699D01*
X234Y1699D01*
X234Y1697D01*
X236Y1697D01*
X236Y1695D01*
X238Y1695D01*
X238Y1691D01*
X240Y1691D01*
X240Y1687D01*
X242Y1687D01*
X242Y1681D01*
X244Y1681D01*
X244Y1659D01*
X242Y1659D01*
X242Y1653D01*
X240Y1653D01*
X240Y1649D01*
X238Y1649D01*
X238Y1645D01*
X236Y1645D01*
X236Y1643D01*
X234Y1643D01*
X234Y1641D01*
X232Y1641D01*
X232Y1639D01*
X230Y1639D01*
X230Y1637D01*
X228Y1637D01*
X228Y1635D01*
X226Y1635D01*
X226Y1633D01*
X222Y1633D01*
X222Y1631D01*
X218Y1631D01*
X218Y1609D01*
X222Y1609D01*
X222Y1607D01*
X226Y1607D01*
X226Y1605D01*
X228Y1605D01*
X228Y1603D01*
X230Y1603D01*
X230Y1601D01*
X232Y1601D01*
X232Y1599D01*
X234Y1599D01*
X234Y1597D01*
X236Y1597D01*
X236Y1595D01*
X238Y1595D01*
X238Y1591D01*
X240Y1591D01*
X240Y1587D01*
X242Y1587D01*
X242Y1581D01*
X244Y1581D01*
X244Y1559D01*
X242Y1559D01*
X242Y1553D01*
X240Y1553D01*
X240Y1549D01*
X238Y1549D01*
X238Y1545D01*
X236Y1545D01*
X236Y1543D01*
X234Y1543D01*
X234Y1541D01*
X232Y1541D01*
X232Y1539D01*
X230Y1539D01*
X230Y1537D01*
X228Y1537D01*
X228Y1535D01*
X226Y1535D01*
X226Y1533D01*
X222Y1533D01*
X222Y1531D01*
X218Y1531D01*
X218Y1509D01*
X222Y1509D01*
X222Y1507D01*
X226Y1507D01*
X226Y1505D01*
X228Y1505D01*
X228Y1503D01*
X230Y1503D01*
X230Y1501D01*
X232Y1501D01*
X232Y1499D01*
X234Y1499D01*
X234Y1497D01*
X236Y1497D01*
X236Y1495D01*
X238Y1495D01*
X238Y1491D01*
X240Y1491D01*
X240Y1487D01*
X242Y1487D01*
X242Y1481D01*
X244Y1481D01*
X244Y1459D01*
X242Y1459D01*
X242Y1453D01*
X240Y1453D01*
X240Y1449D01*
X238Y1449D01*
X238Y1445D01*
X236Y1445D01*
X236Y1443D01*
X234Y1443D01*
X234Y1441D01*
X232Y1441D01*
X232Y1439D01*
X230Y1439D01*
X230Y1437D01*
X228Y1437D01*
X228Y1435D01*
X226Y1435D01*
X226Y1433D01*
X222Y1433D01*
X222Y1431D01*
X218Y1431D01*
X218Y1409D01*
X222Y1409D01*
X222Y1407D01*
X226Y1407D01*
X226Y1405D01*
X228Y1405D01*
X228Y1403D01*
X230Y1403D01*
X230Y1401D01*
X232Y1401D01*
X232Y1399D01*
X234Y1399D01*
X234Y1397D01*
X236Y1397D01*
X236Y1395D01*
X238Y1395D01*
X238Y1391D01*
X240Y1391D01*
X240Y1387D01*
X242Y1387D01*
X242Y1381D01*
X244Y1381D01*
X244Y1359D01*
X242Y1359D01*
X242Y1353D01*
X240Y1353D01*
X240Y1349D01*
X238Y1349D01*
X238Y1345D01*
X236Y1345D01*
X236Y1343D01*
X234Y1343D01*
X234Y1341D01*
X232Y1341D01*
X232Y1339D01*
X230Y1339D01*
X230Y1337D01*
X228Y1337D01*
X228Y1335D01*
X226Y1335D01*
X226Y1333D01*
X222Y1333D01*
X222Y1331D01*
X218Y1331D01*
X218Y1309D01*
X222Y1309D01*
X222Y1307D01*
X226Y1307D01*
X226Y1305D01*
X228Y1305D01*
X228Y1303D01*
X230Y1303D01*
X230Y1301D01*
X232Y1301D01*
X232Y1299D01*
X234Y1299D01*
X234Y1297D01*
X236Y1297D01*
X236Y1295D01*
X238Y1295D01*
X238Y1291D01*
X240Y1291D01*
X240Y1287D01*
X242Y1287D01*
X242Y1281D01*
X244Y1281D01*
X244Y1271D01*
X390Y1271D01*
X390Y1273D01*
X382Y1273D01*
X382Y1275D01*
X378Y1275D01*
X378Y1277D01*
X376Y1277D01*
X376Y1279D01*
X372Y1279D01*
X372Y1281D01*
X370Y1281D01*
X370Y1283D01*
X368Y1283D01*
X368Y1285D01*
X366Y1285D01*
X366Y1287D01*
X364Y1287D01*
X364Y1289D01*
X362Y1289D01*
X362Y1291D01*
X360Y1291D01*
X360Y1295D01*
X358Y1295D01*
X358Y1299D01*
X356Y1299D01*
X356Y1303D01*
X354Y1303D01*
X354Y1309D01*
X352Y1309D01*
X352Y1329D01*
X354Y1329D01*
X354Y1337D01*
X356Y1337D01*
X356Y1341D01*
X358Y1341D01*
X358Y1345D01*
X360Y1345D01*
X360Y1349D01*
X362Y1349D01*
X362Y1351D01*
X364Y1351D01*
X364Y1353D01*
X366Y1353D01*
X366Y1355D01*
X368Y1355D01*
X368Y1357D01*
X370Y1357D01*
X370Y1359D01*
X372Y1359D01*
X372Y1361D01*
X376Y1361D01*
X376Y1363D01*
X380Y1363D01*
X380Y1365D01*
X384Y1365D01*
X384Y1427D01*
X382Y1427D01*
X382Y1771D01*
X380Y1771D01*
X380Y1777D01*
X378Y1777D01*
X378Y1783D01*
X376Y1783D01*
X376Y1789D01*
X374Y1789D01*
X374Y1795D01*
X372Y1795D01*
X372Y1801D01*
X370Y1801D01*
X370Y1807D01*
X368Y1807D01*
X368Y1813D01*
X366Y1813D01*
X366Y1819D01*
X364Y1819D01*
X364Y1825D01*
X362Y1825D01*
X362Y1831D01*
X360Y1831D01*
X360Y1837D01*
X358Y1837D01*
X358Y1843D01*
X356Y1843D01*
X356Y1849D01*
X354Y1849D01*
X354Y1855D01*
X352Y1855D01*
X352Y1861D01*
X350Y1861D01*
X350Y1867D01*
X348Y1867D01*
X348Y1873D01*
X346Y1873D01*
X346Y1879D01*
X344Y1879D01*
X344Y1885D01*
X342Y1885D01*
X342Y1891D01*
X340Y1891D01*
X340Y1899D01*
X338Y1899D01*
X338Y1905D01*
X336Y1905D01*
X336Y1911D01*
X334Y1911D01*
X334Y1917D01*
X332Y1917D01*
X332Y1923D01*
X330Y1923D01*
X330Y1929D01*
X328Y1929D01*
X328Y1935D01*
X326Y1935D01*
X326Y1941D01*
X324Y1941D01*
X324Y1947D01*
X322Y1947D01*
X322Y1953D01*
X320Y1953D01*
X320Y1959D01*
X318Y1959D01*
X318Y1965D01*
X316Y1965D01*
X316Y1971D01*
X314Y1971D01*
X314Y1977D01*
X312Y1977D01*
X312Y1983D01*
X310Y1983D01*
X310Y1989D01*
X308Y1989D01*
X308Y1995D01*
X306Y1995D01*
X306Y2001D01*
X304Y2001D01*
X304Y2007D01*
X302Y2007D01*
X302Y2013D01*
X300Y2013D01*
X300Y2019D01*
X298Y2019D01*
X298Y2021D01*
X290Y2021D01*
X290Y2023D01*
X282Y2023D01*
X282Y2025D01*
X278Y2025D01*
X278Y2027D01*
X276Y2027D01*
X276Y2029D01*
X272Y2029D01*
X272Y2031D01*
X270Y2031D01*
X270Y2033D01*
X268Y2033D01*
X268Y2035D01*
X266Y2035D01*
X266Y2037D01*
X264Y2037D01*
X264Y2039D01*
X262Y2039D01*
X262Y2041D01*
X260Y2041D01*
X260Y2045D01*
X258Y2045D01*
X258Y2049D01*
X256Y2049D01*
X256Y2053D01*
X254Y2053D01*
X254Y2059D01*
X252Y2059D01*
X252Y2081D01*
X254Y2081D01*
X254Y2087D01*
X256Y2087D01*
X256Y2091D01*
X258Y2091D01*
X258Y2095D01*
X260Y2095D01*
X260Y2099D01*
X262Y2099D01*
X262Y2101D01*
X264Y2101D01*
X264Y2103D01*
X266Y2103D01*
X266Y2105D01*
X268Y2105D01*
X268Y2107D01*
X270Y2107D01*
X270Y2109D01*
X272Y2109D01*
X272Y2111D01*
X276Y2111D01*
X276Y2113D01*
X280Y2113D01*
X280Y2115D01*
X284Y2115D01*
X284Y2117D01*
X290Y2117D01*
X290Y2119D01*
X238Y2119D01*
G37*
D02*
G36*
X312Y2119D02*
X312Y2117D01*
X318Y2117D01*
X318Y2115D01*
X324Y2115D01*
X324Y2113D01*
X326Y2113D01*
X326Y2111D01*
X330Y2111D01*
X330Y2109D01*
X332Y2109D01*
X332Y2107D01*
X334Y2107D01*
X334Y2105D01*
X336Y2105D01*
X336Y2103D01*
X338Y2103D01*
X338Y2101D01*
X340Y2101D01*
X340Y2099D01*
X342Y2099D01*
X342Y2097D01*
X344Y2097D01*
X344Y2093D01*
X346Y2093D01*
X346Y2089D01*
X348Y2089D01*
X348Y2081D01*
X350Y2081D01*
X350Y2057D01*
X348Y2057D01*
X348Y2051D01*
X346Y2051D01*
X346Y2047D01*
X344Y2047D01*
X344Y2043D01*
X342Y2043D01*
X342Y2041D01*
X340Y2041D01*
X340Y2039D01*
X338Y2039D01*
X338Y2021D01*
X590Y2021D01*
X590Y2023D01*
X582Y2023D01*
X582Y2025D01*
X578Y2025D01*
X578Y2027D01*
X576Y2027D01*
X576Y2029D01*
X572Y2029D01*
X572Y2031D01*
X570Y2031D01*
X570Y2033D01*
X568Y2033D01*
X568Y2035D01*
X566Y2035D01*
X566Y2037D01*
X564Y2037D01*
X564Y2039D01*
X562Y2039D01*
X562Y2041D01*
X560Y2041D01*
X560Y2045D01*
X558Y2045D01*
X558Y2049D01*
X556Y2049D01*
X556Y2053D01*
X554Y2053D01*
X554Y2059D01*
X552Y2059D01*
X552Y2081D01*
X554Y2081D01*
X554Y2087D01*
X556Y2087D01*
X556Y2091D01*
X558Y2091D01*
X558Y2095D01*
X560Y2095D01*
X560Y2099D01*
X562Y2099D01*
X562Y2101D01*
X564Y2101D01*
X564Y2103D01*
X566Y2103D01*
X566Y2105D01*
X568Y2105D01*
X568Y2107D01*
X570Y2107D01*
X570Y2109D01*
X572Y2109D01*
X572Y2111D01*
X576Y2111D01*
X576Y2113D01*
X580Y2113D01*
X580Y2115D01*
X584Y2115D01*
X584Y2117D01*
X590Y2117D01*
X590Y2119D01*
X312Y2119D01*
G37*
D02*
G36*
X40Y2039D02*
X40Y2037D01*
X184Y2037D01*
X184Y2039D01*
X40Y2039D01*
G37*
D02*
G36*
X40Y2039D02*
X40Y2037D01*
X184Y2037D01*
X184Y2039D01*
X40Y2039D01*
G37*
D02*
G36*
X40Y2037D02*
X40Y763D01*
X158Y763D01*
X158Y779D01*
X160Y779D01*
X160Y785D01*
X162Y785D01*
X162Y789D01*
X164Y789D01*
X164Y793D01*
X166Y793D01*
X166Y797D01*
X168Y797D01*
X168Y799D01*
X170Y799D01*
X170Y801D01*
X172Y801D01*
X172Y803D01*
X174Y803D01*
X174Y805D01*
X178Y805D01*
X178Y807D01*
X182Y807D01*
X182Y809D01*
X184Y809D01*
X184Y831D01*
X180Y831D01*
X180Y833D01*
X176Y833D01*
X176Y835D01*
X174Y835D01*
X174Y837D01*
X172Y837D01*
X172Y839D01*
X170Y839D01*
X170Y841D01*
X168Y841D01*
X168Y843D01*
X166Y843D01*
X166Y847D01*
X164Y847D01*
X164Y849D01*
X162Y849D01*
X162Y853D01*
X160Y853D01*
X160Y861D01*
X158Y861D01*
X158Y879D01*
X160Y879D01*
X160Y885D01*
X162Y885D01*
X162Y889D01*
X164Y889D01*
X164Y893D01*
X166Y893D01*
X166Y897D01*
X168Y897D01*
X168Y899D01*
X170Y899D01*
X170Y901D01*
X172Y901D01*
X172Y903D01*
X174Y903D01*
X174Y905D01*
X178Y905D01*
X178Y907D01*
X182Y907D01*
X182Y909D01*
X184Y909D01*
X184Y931D01*
X180Y931D01*
X180Y933D01*
X176Y933D01*
X176Y935D01*
X174Y935D01*
X174Y937D01*
X172Y937D01*
X172Y939D01*
X170Y939D01*
X170Y941D01*
X168Y941D01*
X168Y943D01*
X166Y943D01*
X166Y947D01*
X164Y947D01*
X164Y949D01*
X162Y949D01*
X162Y953D01*
X160Y953D01*
X160Y961D01*
X158Y961D01*
X158Y979D01*
X160Y979D01*
X160Y985D01*
X162Y985D01*
X162Y989D01*
X164Y989D01*
X164Y993D01*
X166Y993D01*
X166Y997D01*
X168Y997D01*
X168Y999D01*
X170Y999D01*
X170Y1001D01*
X172Y1001D01*
X172Y1003D01*
X174Y1003D01*
X174Y1005D01*
X178Y1005D01*
X178Y1007D01*
X182Y1007D01*
X182Y1009D01*
X184Y1009D01*
X184Y1031D01*
X180Y1031D01*
X180Y1033D01*
X176Y1033D01*
X176Y1035D01*
X174Y1035D01*
X174Y1037D01*
X172Y1037D01*
X172Y1039D01*
X170Y1039D01*
X170Y1041D01*
X168Y1041D01*
X168Y1043D01*
X166Y1043D01*
X166Y1047D01*
X164Y1047D01*
X164Y1049D01*
X162Y1049D01*
X162Y1053D01*
X160Y1053D01*
X160Y1061D01*
X158Y1061D01*
X158Y1079D01*
X160Y1079D01*
X160Y1085D01*
X162Y1085D01*
X162Y1089D01*
X164Y1089D01*
X164Y1093D01*
X166Y1093D01*
X166Y1097D01*
X168Y1097D01*
X168Y1099D01*
X170Y1099D01*
X170Y1101D01*
X172Y1101D01*
X172Y1103D01*
X174Y1103D01*
X174Y1105D01*
X178Y1105D01*
X178Y1107D01*
X182Y1107D01*
X182Y1109D01*
X184Y1109D01*
X184Y1131D01*
X180Y1131D01*
X180Y1133D01*
X176Y1133D01*
X176Y1135D01*
X174Y1135D01*
X174Y1137D01*
X172Y1137D01*
X172Y1139D01*
X170Y1139D01*
X170Y1141D01*
X168Y1141D01*
X168Y1143D01*
X166Y1143D01*
X166Y1147D01*
X164Y1147D01*
X164Y1149D01*
X162Y1149D01*
X162Y1153D01*
X160Y1153D01*
X160Y1161D01*
X158Y1161D01*
X158Y1179D01*
X160Y1179D01*
X160Y1185D01*
X162Y1185D01*
X162Y1189D01*
X164Y1189D01*
X164Y1193D01*
X166Y1193D01*
X166Y1197D01*
X168Y1197D01*
X168Y1199D01*
X170Y1199D01*
X170Y1201D01*
X172Y1201D01*
X172Y1203D01*
X174Y1203D01*
X174Y1205D01*
X178Y1205D01*
X178Y1207D01*
X182Y1207D01*
X182Y1209D01*
X184Y1209D01*
X184Y1231D01*
X180Y1231D01*
X180Y1233D01*
X176Y1233D01*
X176Y1235D01*
X174Y1235D01*
X174Y1237D01*
X172Y1237D01*
X172Y1239D01*
X170Y1239D01*
X170Y1241D01*
X168Y1241D01*
X168Y1243D01*
X166Y1243D01*
X166Y1247D01*
X164Y1247D01*
X164Y1249D01*
X162Y1249D01*
X162Y1253D01*
X160Y1253D01*
X160Y1261D01*
X158Y1261D01*
X158Y1279D01*
X160Y1279D01*
X160Y1285D01*
X162Y1285D01*
X162Y1289D01*
X164Y1289D01*
X164Y1293D01*
X166Y1293D01*
X166Y1297D01*
X168Y1297D01*
X168Y1299D01*
X170Y1299D01*
X170Y1301D01*
X172Y1301D01*
X172Y1303D01*
X174Y1303D01*
X174Y1305D01*
X178Y1305D01*
X178Y1307D01*
X182Y1307D01*
X182Y1309D01*
X184Y1309D01*
X184Y1331D01*
X180Y1331D01*
X180Y1333D01*
X176Y1333D01*
X176Y1335D01*
X174Y1335D01*
X174Y1337D01*
X172Y1337D01*
X172Y1339D01*
X170Y1339D01*
X170Y1341D01*
X168Y1341D01*
X168Y1343D01*
X166Y1343D01*
X166Y1347D01*
X164Y1347D01*
X164Y1349D01*
X162Y1349D01*
X162Y1353D01*
X160Y1353D01*
X160Y1361D01*
X158Y1361D01*
X158Y1379D01*
X160Y1379D01*
X160Y1385D01*
X162Y1385D01*
X162Y1389D01*
X164Y1389D01*
X164Y1393D01*
X166Y1393D01*
X166Y1397D01*
X168Y1397D01*
X168Y1399D01*
X170Y1399D01*
X170Y1401D01*
X172Y1401D01*
X172Y1403D01*
X174Y1403D01*
X174Y1405D01*
X178Y1405D01*
X178Y1407D01*
X182Y1407D01*
X182Y1409D01*
X184Y1409D01*
X184Y1431D01*
X180Y1431D01*
X180Y1433D01*
X176Y1433D01*
X176Y1435D01*
X174Y1435D01*
X174Y1437D01*
X172Y1437D01*
X172Y1439D01*
X170Y1439D01*
X170Y1441D01*
X168Y1441D01*
X168Y1443D01*
X166Y1443D01*
X166Y1447D01*
X164Y1447D01*
X164Y1449D01*
X162Y1449D01*
X162Y1453D01*
X160Y1453D01*
X160Y1461D01*
X158Y1461D01*
X158Y1479D01*
X160Y1479D01*
X160Y1485D01*
X162Y1485D01*
X162Y1489D01*
X164Y1489D01*
X164Y1493D01*
X166Y1493D01*
X166Y1497D01*
X168Y1497D01*
X168Y1499D01*
X170Y1499D01*
X170Y1501D01*
X172Y1501D01*
X172Y1503D01*
X174Y1503D01*
X174Y1505D01*
X178Y1505D01*
X178Y1507D01*
X182Y1507D01*
X182Y1509D01*
X184Y1509D01*
X184Y1531D01*
X180Y1531D01*
X180Y1533D01*
X176Y1533D01*
X176Y1535D01*
X174Y1535D01*
X174Y1537D01*
X172Y1537D01*
X172Y1539D01*
X170Y1539D01*
X170Y1541D01*
X168Y1541D01*
X168Y1543D01*
X166Y1543D01*
X166Y1547D01*
X164Y1547D01*
X164Y1549D01*
X162Y1549D01*
X162Y1553D01*
X160Y1553D01*
X160Y1561D01*
X158Y1561D01*
X158Y1579D01*
X160Y1579D01*
X160Y1585D01*
X162Y1585D01*
X162Y1589D01*
X164Y1589D01*
X164Y1593D01*
X166Y1593D01*
X166Y1597D01*
X168Y1597D01*
X168Y1599D01*
X170Y1599D01*
X170Y1601D01*
X172Y1601D01*
X172Y1603D01*
X174Y1603D01*
X174Y1605D01*
X178Y1605D01*
X178Y1607D01*
X182Y1607D01*
X182Y1609D01*
X184Y1609D01*
X184Y1631D01*
X180Y1631D01*
X180Y1633D01*
X176Y1633D01*
X176Y1635D01*
X174Y1635D01*
X174Y1637D01*
X172Y1637D01*
X172Y1639D01*
X170Y1639D01*
X170Y1641D01*
X168Y1641D01*
X168Y1643D01*
X166Y1643D01*
X166Y1647D01*
X164Y1647D01*
X164Y1649D01*
X162Y1649D01*
X162Y1653D01*
X160Y1653D01*
X160Y1661D01*
X158Y1661D01*
X158Y1679D01*
X160Y1679D01*
X160Y1685D01*
X162Y1685D01*
X162Y1689D01*
X164Y1689D01*
X164Y1693D01*
X166Y1693D01*
X166Y1697D01*
X168Y1697D01*
X168Y1699D01*
X170Y1699D01*
X170Y1701D01*
X172Y1701D01*
X172Y1703D01*
X174Y1703D01*
X174Y1705D01*
X178Y1705D01*
X178Y1707D01*
X182Y1707D01*
X182Y1709D01*
X184Y1709D01*
X184Y1711D01*
X186Y1711D01*
X186Y1823D01*
X184Y1823D01*
X184Y2037D01*
X40Y2037D01*
G37*
D02*
G36*
X338Y2021D02*
X338Y2019D01*
X1182Y2019D01*
X1182Y2021D01*
X338Y2021D01*
G37*
D02*
G36*
X338Y2021D02*
X338Y2019D01*
X1182Y2019D01*
X1182Y2021D01*
X338Y2021D01*
G37*
D02*
G36*
X338Y2019D02*
X338Y2013D01*
X340Y2013D01*
X340Y2007D01*
X342Y2007D01*
X342Y2001D01*
X344Y2001D01*
X344Y1995D01*
X346Y1995D01*
X346Y1989D01*
X348Y1989D01*
X348Y1983D01*
X350Y1983D01*
X350Y1977D01*
X352Y1977D01*
X352Y1971D01*
X354Y1971D01*
X354Y1969D01*
X1008Y1969D01*
X1008Y1967D01*
X1016Y1967D01*
X1016Y1965D01*
X1022Y1965D01*
X1022Y1963D01*
X1026Y1963D01*
X1026Y1961D01*
X1028Y1961D01*
X1028Y1959D01*
X1032Y1959D01*
X1032Y1957D01*
X1034Y1957D01*
X1034Y1955D01*
X1036Y1955D01*
X1036Y1953D01*
X1038Y1953D01*
X1038Y1951D01*
X1040Y1951D01*
X1040Y1949D01*
X1042Y1949D01*
X1042Y1945D01*
X1044Y1945D01*
X1044Y1941D01*
X1046Y1941D01*
X1046Y1937D01*
X1048Y1937D01*
X1048Y1931D01*
X1050Y1931D01*
X1050Y1909D01*
X1048Y1909D01*
X1048Y1903D01*
X1046Y1903D01*
X1046Y1899D01*
X1044Y1899D01*
X1044Y1895D01*
X1042Y1895D01*
X1042Y1891D01*
X1040Y1891D01*
X1040Y1889D01*
X1038Y1889D01*
X1038Y1887D01*
X1036Y1887D01*
X1036Y1885D01*
X1034Y1885D01*
X1034Y1883D01*
X1032Y1883D01*
X1032Y1881D01*
X1030Y1881D01*
X1030Y1879D01*
X1026Y1879D01*
X1026Y1877D01*
X1022Y1877D01*
X1022Y1875D01*
X1018Y1875D01*
X1018Y1873D01*
X1012Y1873D01*
X1012Y1871D01*
X1182Y1871D01*
X1182Y2019D01*
X338Y2019D01*
G37*
D02*
G36*
X354Y1969D02*
X354Y1965D01*
X356Y1965D01*
X356Y1959D01*
X358Y1959D01*
X358Y1953D01*
X360Y1953D01*
X360Y1947D01*
X362Y1947D01*
X362Y1941D01*
X364Y1941D01*
X364Y1935D01*
X366Y1935D01*
X366Y1929D01*
X368Y1929D01*
X368Y1923D01*
X370Y1923D01*
X370Y1915D01*
X372Y1915D01*
X372Y1909D01*
X374Y1909D01*
X374Y1903D01*
X376Y1903D01*
X376Y1897D01*
X378Y1897D01*
X378Y1891D01*
X380Y1891D01*
X380Y1885D01*
X382Y1885D01*
X382Y1879D01*
X384Y1879D01*
X384Y1873D01*
X386Y1873D01*
X386Y1867D01*
X388Y1867D01*
X388Y1861D01*
X390Y1861D01*
X390Y1855D01*
X392Y1855D01*
X392Y1849D01*
X394Y1849D01*
X394Y1843D01*
X396Y1843D01*
X396Y1837D01*
X398Y1837D01*
X398Y1831D01*
X400Y1831D01*
X400Y1825D01*
X402Y1825D01*
X402Y1819D01*
X404Y1819D01*
X404Y1813D01*
X406Y1813D01*
X406Y1807D01*
X408Y1807D01*
X408Y1801D01*
X410Y1801D01*
X410Y1795D01*
X412Y1795D01*
X412Y1789D01*
X414Y1789D01*
X414Y1783D01*
X416Y1783D01*
X416Y1777D01*
X418Y1777D01*
X418Y1431D01*
X420Y1431D01*
X420Y1365D01*
X422Y1365D01*
X422Y1363D01*
X426Y1363D01*
X426Y1361D01*
X430Y1361D01*
X430Y1359D01*
X432Y1359D01*
X432Y1357D01*
X434Y1357D01*
X434Y1355D01*
X436Y1355D01*
X436Y1353D01*
X438Y1353D01*
X438Y1351D01*
X440Y1351D01*
X440Y1349D01*
X442Y1349D01*
X442Y1347D01*
X444Y1347D01*
X444Y1343D01*
X446Y1343D01*
X446Y1339D01*
X448Y1339D01*
X448Y1331D01*
X450Y1331D01*
X450Y1307D01*
X448Y1307D01*
X448Y1301D01*
X446Y1301D01*
X446Y1297D01*
X444Y1297D01*
X444Y1293D01*
X442Y1293D01*
X442Y1291D01*
X440Y1291D01*
X440Y1287D01*
X438Y1287D01*
X438Y1285D01*
X436Y1285D01*
X436Y1283D01*
X434Y1283D01*
X434Y1281D01*
X430Y1281D01*
X430Y1279D01*
X428Y1279D01*
X428Y1277D01*
X424Y1277D01*
X424Y1275D01*
X420Y1275D01*
X420Y1273D01*
X414Y1273D01*
X414Y1271D01*
X552Y1271D01*
X552Y1273D01*
X554Y1273D01*
X554Y1275D01*
X556Y1275D01*
X556Y1277D01*
X558Y1277D01*
X558Y1281D01*
X560Y1281D01*
X560Y1283D01*
X562Y1283D01*
X562Y1285D01*
X564Y1285D01*
X564Y1287D01*
X566Y1287D01*
X566Y1289D01*
X568Y1289D01*
X568Y1293D01*
X570Y1293D01*
X570Y1295D01*
X572Y1295D01*
X572Y1297D01*
X574Y1297D01*
X574Y1299D01*
X576Y1299D01*
X576Y1301D01*
X578Y1301D01*
X578Y1305D01*
X580Y1305D01*
X580Y1307D01*
X582Y1307D01*
X582Y1309D01*
X584Y1309D01*
X584Y1311D01*
X586Y1311D01*
X586Y1313D01*
X588Y1313D01*
X588Y1317D01*
X590Y1317D01*
X590Y1319D01*
X592Y1319D01*
X592Y1321D01*
X594Y1321D01*
X594Y1323D01*
X596Y1323D01*
X596Y1325D01*
X598Y1325D01*
X598Y1329D01*
X600Y1329D01*
X600Y1331D01*
X602Y1331D01*
X602Y1333D01*
X604Y1333D01*
X604Y1359D01*
X602Y1359D01*
X602Y1379D01*
X604Y1379D01*
X604Y1387D01*
X606Y1387D01*
X606Y1391D01*
X608Y1391D01*
X608Y1395D01*
X610Y1395D01*
X610Y1399D01*
X612Y1399D01*
X612Y1401D01*
X614Y1401D01*
X614Y1403D01*
X616Y1403D01*
X616Y1405D01*
X618Y1405D01*
X618Y1407D01*
X620Y1407D01*
X620Y1409D01*
X622Y1409D01*
X622Y1411D01*
X626Y1411D01*
X626Y1413D01*
X630Y1413D01*
X630Y1427D01*
X632Y1427D01*
X632Y1441D01*
X634Y1441D01*
X634Y1455D01*
X636Y1455D01*
X636Y1469D01*
X638Y1469D01*
X638Y1483D01*
X640Y1483D01*
X640Y1497D01*
X642Y1497D01*
X642Y1511D01*
X644Y1511D01*
X644Y1525D01*
X646Y1525D01*
X646Y1539D01*
X648Y1539D01*
X648Y1571D01*
X646Y1571D01*
X646Y1573D01*
X644Y1573D01*
X644Y1575D01*
X642Y1575D01*
X642Y1579D01*
X640Y1579D01*
X640Y1583D01*
X638Y1583D01*
X638Y1589D01*
X636Y1589D01*
X636Y1599D01*
X634Y1599D01*
X634Y1607D01*
X636Y1607D01*
X636Y1617D01*
X638Y1617D01*
X638Y1623D01*
X640Y1623D01*
X640Y1627D01*
X642Y1627D01*
X642Y1629D01*
X644Y1629D01*
X644Y1633D01*
X646Y1633D01*
X646Y1635D01*
X648Y1635D01*
X648Y1637D01*
X650Y1637D01*
X650Y1639D01*
X652Y1639D01*
X652Y1641D01*
X654Y1641D01*
X654Y1643D01*
X658Y1643D01*
X658Y1645D01*
X660Y1645D01*
X660Y1655D01*
X662Y1655D01*
X662Y1677D01*
X664Y1677D01*
X664Y1697D01*
X666Y1697D01*
X666Y1719D01*
X668Y1719D01*
X668Y1741D01*
X670Y1741D01*
X670Y1761D01*
X672Y1761D01*
X672Y1881D01*
X670Y1881D01*
X670Y1883D01*
X668Y1883D01*
X668Y1885D01*
X666Y1885D01*
X666Y1887D01*
X664Y1887D01*
X664Y1889D01*
X662Y1889D01*
X662Y1893D01*
X660Y1893D01*
X660Y1895D01*
X658Y1895D01*
X658Y1899D01*
X656Y1899D01*
X656Y1905D01*
X654Y1905D01*
X654Y1913D01*
X652Y1913D01*
X652Y1927D01*
X654Y1927D01*
X654Y1935D01*
X656Y1935D01*
X656Y1941D01*
X658Y1941D01*
X658Y1943D01*
X660Y1943D01*
X660Y1947D01*
X662Y1947D01*
X662Y1949D01*
X664Y1949D01*
X664Y1953D01*
X666Y1953D01*
X666Y1955D01*
X668Y1955D01*
X668Y1957D01*
X672Y1957D01*
X672Y1959D01*
X674Y1959D01*
X674Y1961D01*
X678Y1961D01*
X678Y1963D01*
X680Y1963D01*
X680Y1965D01*
X686Y1965D01*
X686Y1967D01*
X694Y1967D01*
X694Y1969D01*
X354Y1969D01*
G37*
D02*
G36*
X708Y1969D02*
X708Y1967D01*
X716Y1967D01*
X716Y1965D01*
X722Y1965D01*
X722Y1963D01*
X726Y1963D01*
X726Y1961D01*
X728Y1961D01*
X728Y1959D01*
X732Y1959D01*
X732Y1957D01*
X734Y1957D01*
X734Y1955D01*
X736Y1955D01*
X736Y1953D01*
X738Y1953D01*
X738Y1951D01*
X740Y1951D01*
X740Y1949D01*
X742Y1949D01*
X742Y1947D01*
X762Y1947D01*
X762Y1949D01*
X764Y1949D01*
X764Y1953D01*
X766Y1953D01*
X766Y1955D01*
X768Y1955D01*
X768Y1957D01*
X772Y1957D01*
X772Y1959D01*
X774Y1959D01*
X774Y1961D01*
X778Y1961D01*
X778Y1963D01*
X780Y1963D01*
X780Y1965D01*
X786Y1965D01*
X786Y1967D01*
X794Y1967D01*
X794Y1969D01*
X708Y1969D01*
G37*
D02*
G36*
X808Y1969D02*
X808Y1967D01*
X816Y1967D01*
X816Y1965D01*
X822Y1965D01*
X822Y1963D01*
X826Y1963D01*
X826Y1961D01*
X828Y1961D01*
X828Y1959D01*
X832Y1959D01*
X832Y1957D01*
X834Y1957D01*
X834Y1955D01*
X836Y1955D01*
X836Y1953D01*
X838Y1953D01*
X838Y1951D01*
X840Y1951D01*
X840Y1949D01*
X842Y1949D01*
X842Y1947D01*
X862Y1947D01*
X862Y1949D01*
X864Y1949D01*
X864Y1953D01*
X866Y1953D01*
X866Y1955D01*
X868Y1955D01*
X868Y1957D01*
X872Y1957D01*
X872Y1959D01*
X874Y1959D01*
X874Y1961D01*
X878Y1961D01*
X878Y1963D01*
X880Y1963D01*
X880Y1965D01*
X886Y1965D01*
X886Y1967D01*
X894Y1967D01*
X894Y1969D01*
X808Y1969D01*
G37*
D02*
G36*
X908Y1969D02*
X908Y1967D01*
X916Y1967D01*
X916Y1965D01*
X922Y1965D01*
X922Y1963D01*
X926Y1963D01*
X926Y1961D01*
X928Y1961D01*
X928Y1959D01*
X932Y1959D01*
X932Y1957D01*
X934Y1957D01*
X934Y1955D01*
X936Y1955D01*
X936Y1953D01*
X938Y1953D01*
X938Y1951D01*
X940Y1951D01*
X940Y1949D01*
X942Y1949D01*
X942Y1947D01*
X962Y1947D01*
X962Y1949D01*
X964Y1949D01*
X964Y1953D01*
X966Y1953D01*
X966Y1955D01*
X968Y1955D01*
X968Y1957D01*
X972Y1957D01*
X972Y1959D01*
X974Y1959D01*
X974Y1961D01*
X978Y1961D01*
X978Y1963D01*
X980Y1963D01*
X980Y1965D01*
X986Y1965D01*
X986Y1967D01*
X994Y1967D01*
X994Y1969D01*
X908Y1969D01*
G37*
D02*
G36*
X742Y1893D02*
X742Y1891D01*
X740Y1891D01*
X740Y1889D01*
X738Y1889D01*
X738Y1887D01*
X736Y1887D01*
X736Y1885D01*
X734Y1885D01*
X734Y1883D01*
X732Y1883D01*
X732Y1881D01*
X730Y1881D01*
X730Y1879D01*
X728Y1879D01*
X728Y1759D01*
X726Y1759D01*
X726Y1737D01*
X724Y1737D01*
X724Y1717D01*
X722Y1717D01*
X722Y1695D01*
X720Y1695D01*
X720Y1673D01*
X718Y1673D01*
X718Y1637D01*
X720Y1637D01*
X720Y1635D01*
X722Y1635D01*
X722Y1633D01*
X724Y1633D01*
X724Y1631D01*
X726Y1631D01*
X726Y1627D01*
X728Y1627D01*
X728Y1623D01*
X730Y1623D01*
X730Y1617D01*
X732Y1617D01*
X732Y1609D01*
X734Y1609D01*
X734Y1597D01*
X732Y1597D01*
X732Y1587D01*
X730Y1587D01*
X730Y1583D01*
X728Y1583D01*
X728Y1579D01*
X726Y1579D01*
X726Y1575D01*
X724Y1575D01*
X724Y1573D01*
X722Y1573D01*
X722Y1569D01*
X720Y1569D01*
X720Y1567D01*
X718Y1567D01*
X718Y1565D01*
X714Y1565D01*
X714Y1563D01*
X712Y1563D01*
X712Y1561D01*
X708Y1561D01*
X708Y1559D01*
X706Y1559D01*
X706Y1551D01*
X704Y1551D01*
X704Y1535D01*
X702Y1535D01*
X702Y1521D01*
X700Y1521D01*
X700Y1507D01*
X698Y1507D01*
X698Y1493D01*
X696Y1493D01*
X696Y1479D01*
X694Y1479D01*
X694Y1465D01*
X692Y1465D01*
X692Y1451D01*
X690Y1451D01*
X690Y1437D01*
X688Y1437D01*
X688Y1423D01*
X686Y1423D01*
X686Y1403D01*
X688Y1403D01*
X688Y1401D01*
X690Y1401D01*
X690Y1399D01*
X692Y1399D01*
X692Y1397D01*
X694Y1397D01*
X694Y1393D01*
X696Y1393D01*
X696Y1389D01*
X698Y1389D01*
X698Y1381D01*
X700Y1381D01*
X700Y1357D01*
X698Y1357D01*
X698Y1351D01*
X696Y1351D01*
X696Y1347D01*
X694Y1347D01*
X694Y1343D01*
X692Y1343D01*
X692Y1341D01*
X690Y1341D01*
X690Y1337D01*
X688Y1337D01*
X688Y1335D01*
X686Y1335D01*
X686Y1333D01*
X684Y1333D01*
X684Y1331D01*
X680Y1331D01*
X680Y1329D01*
X678Y1329D01*
X678Y1327D01*
X674Y1327D01*
X674Y1325D01*
X670Y1325D01*
X670Y1323D01*
X664Y1323D01*
X664Y1321D01*
X662Y1321D01*
X662Y1317D01*
X660Y1317D01*
X660Y1313D01*
X658Y1313D01*
X658Y1311D01*
X656Y1311D01*
X656Y1309D01*
X654Y1309D01*
X654Y1305D01*
X652Y1305D01*
X652Y1303D01*
X650Y1303D01*
X650Y1301D01*
X648Y1301D01*
X648Y1299D01*
X646Y1299D01*
X646Y1297D01*
X644Y1297D01*
X644Y1293D01*
X642Y1293D01*
X642Y1291D01*
X640Y1291D01*
X640Y1289D01*
X638Y1289D01*
X638Y1287D01*
X636Y1287D01*
X636Y1285D01*
X634Y1285D01*
X634Y1281D01*
X632Y1281D01*
X632Y1279D01*
X630Y1279D01*
X630Y1277D01*
X628Y1277D01*
X628Y1275D01*
X626Y1275D01*
X626Y1273D01*
X624Y1273D01*
X624Y1269D01*
X622Y1269D01*
X622Y1267D01*
X620Y1267D01*
X620Y1265D01*
X618Y1265D01*
X618Y1263D01*
X616Y1263D01*
X616Y1261D01*
X614Y1261D01*
X614Y1257D01*
X612Y1257D01*
X612Y1255D01*
X610Y1255D01*
X610Y1253D01*
X608Y1253D01*
X608Y1251D01*
X606Y1251D01*
X606Y1249D01*
X604Y1249D01*
X604Y1245D01*
X602Y1245D01*
X602Y1243D01*
X600Y1243D01*
X600Y1241D01*
X598Y1241D01*
X598Y1239D01*
X596Y1239D01*
X596Y1237D01*
X594Y1237D01*
X594Y1233D01*
X592Y1233D01*
X592Y1231D01*
X590Y1231D01*
X590Y1229D01*
X588Y1229D01*
X588Y1227D01*
X586Y1227D01*
X586Y1225D01*
X584Y1225D01*
X584Y1221D01*
X582Y1221D01*
X582Y1219D01*
X580Y1219D01*
X580Y1217D01*
X578Y1217D01*
X578Y1215D01*
X576Y1215D01*
X576Y1213D01*
X574Y1213D01*
X574Y1209D01*
X572Y1209D01*
X572Y1207D01*
X570Y1207D01*
X570Y1205D01*
X568Y1205D01*
X568Y1203D01*
X566Y1203D01*
X566Y1201D01*
X564Y1201D01*
X564Y1197D01*
X562Y1197D01*
X562Y1195D01*
X560Y1195D01*
X560Y1193D01*
X558Y1193D01*
X558Y1191D01*
X556Y1191D01*
X556Y1189D01*
X554Y1189D01*
X554Y1185D01*
X552Y1185D01*
X552Y1183D01*
X550Y1183D01*
X550Y1181D01*
X548Y1181D01*
X548Y1179D01*
X546Y1179D01*
X546Y1177D01*
X544Y1177D01*
X544Y1173D01*
X542Y1173D01*
X542Y1171D01*
X540Y1171D01*
X540Y1169D01*
X538Y1169D01*
X538Y1167D01*
X536Y1167D01*
X536Y1165D01*
X534Y1165D01*
X534Y1161D01*
X532Y1161D01*
X532Y1159D01*
X530Y1159D01*
X530Y1157D01*
X528Y1157D01*
X528Y1155D01*
X526Y1155D01*
X526Y1153D01*
X524Y1153D01*
X524Y1149D01*
X522Y1149D01*
X522Y1147D01*
X520Y1147D01*
X520Y1145D01*
X518Y1145D01*
X518Y1143D01*
X516Y1143D01*
X516Y1141D01*
X514Y1141D01*
X514Y1137D01*
X512Y1137D01*
X512Y1135D01*
X510Y1135D01*
X510Y1133D01*
X508Y1133D01*
X508Y1131D01*
X506Y1131D01*
X506Y1129D01*
X504Y1129D01*
X504Y1125D01*
X502Y1125D01*
X502Y1123D01*
X500Y1123D01*
X500Y1121D01*
X498Y1121D01*
X498Y1119D01*
X496Y1119D01*
X496Y1117D01*
X494Y1117D01*
X494Y1113D01*
X492Y1113D01*
X492Y1111D01*
X490Y1111D01*
X490Y1109D01*
X488Y1109D01*
X488Y1107D01*
X486Y1107D01*
X486Y1105D01*
X484Y1105D01*
X484Y1101D01*
X482Y1101D01*
X482Y1099D01*
X480Y1099D01*
X480Y1097D01*
X478Y1097D01*
X478Y1095D01*
X476Y1095D01*
X476Y1093D01*
X474Y1093D01*
X474Y1089D01*
X472Y1089D01*
X472Y1087D01*
X470Y1087D01*
X470Y1085D01*
X468Y1085D01*
X468Y1083D01*
X466Y1083D01*
X466Y1081D01*
X464Y1081D01*
X464Y1077D01*
X462Y1077D01*
X462Y1075D01*
X460Y1075D01*
X460Y1073D01*
X458Y1073D01*
X458Y1071D01*
X456Y1071D01*
X456Y1069D01*
X454Y1069D01*
X454Y1065D01*
X452Y1065D01*
X452Y1063D01*
X450Y1063D01*
X450Y1061D01*
X448Y1061D01*
X448Y1059D01*
X446Y1059D01*
X446Y1057D01*
X738Y1057D01*
X738Y983D01*
X940Y983D01*
X940Y985D01*
X944Y985D01*
X944Y987D01*
X996Y987D01*
X996Y989D01*
X1064Y989D01*
X1064Y993D01*
X1066Y993D01*
X1066Y997D01*
X1068Y997D01*
X1068Y999D01*
X1070Y999D01*
X1070Y1001D01*
X1072Y1001D01*
X1072Y1003D01*
X1074Y1003D01*
X1074Y1005D01*
X1078Y1005D01*
X1078Y1007D01*
X1082Y1007D01*
X1082Y1009D01*
X1084Y1009D01*
X1084Y1031D01*
X1080Y1031D01*
X1080Y1033D01*
X1076Y1033D01*
X1076Y1035D01*
X1074Y1035D01*
X1074Y1037D01*
X1072Y1037D01*
X1072Y1039D01*
X1070Y1039D01*
X1070Y1041D01*
X1068Y1041D01*
X1068Y1043D01*
X1066Y1043D01*
X1066Y1047D01*
X1064Y1047D01*
X1064Y1049D01*
X1062Y1049D01*
X1062Y1053D01*
X1060Y1053D01*
X1060Y1061D01*
X1058Y1061D01*
X1058Y1079D01*
X1060Y1079D01*
X1060Y1085D01*
X1062Y1085D01*
X1062Y1089D01*
X1064Y1089D01*
X1064Y1093D01*
X1066Y1093D01*
X1066Y1097D01*
X1068Y1097D01*
X1068Y1099D01*
X1070Y1099D01*
X1070Y1101D01*
X1072Y1101D01*
X1072Y1103D01*
X1074Y1103D01*
X1074Y1105D01*
X1078Y1105D01*
X1078Y1107D01*
X1082Y1107D01*
X1082Y1109D01*
X1084Y1109D01*
X1084Y1131D01*
X1080Y1131D01*
X1080Y1133D01*
X1076Y1133D01*
X1076Y1135D01*
X1074Y1135D01*
X1074Y1137D01*
X1072Y1137D01*
X1072Y1139D01*
X1070Y1139D01*
X1070Y1141D01*
X1068Y1141D01*
X1068Y1143D01*
X1066Y1143D01*
X1066Y1147D01*
X1064Y1147D01*
X1064Y1149D01*
X1062Y1149D01*
X1062Y1153D01*
X1060Y1153D01*
X1060Y1161D01*
X1058Y1161D01*
X1058Y1179D01*
X1060Y1179D01*
X1060Y1185D01*
X1062Y1185D01*
X1062Y1189D01*
X1064Y1189D01*
X1064Y1193D01*
X1066Y1193D01*
X1066Y1197D01*
X1068Y1197D01*
X1068Y1199D01*
X1070Y1199D01*
X1070Y1201D01*
X1072Y1201D01*
X1072Y1203D01*
X1074Y1203D01*
X1074Y1205D01*
X1078Y1205D01*
X1078Y1207D01*
X1082Y1207D01*
X1082Y1209D01*
X1084Y1209D01*
X1084Y1231D01*
X1080Y1231D01*
X1080Y1233D01*
X1076Y1233D01*
X1076Y1235D01*
X1074Y1235D01*
X1074Y1237D01*
X1072Y1237D01*
X1072Y1239D01*
X1070Y1239D01*
X1070Y1241D01*
X1068Y1241D01*
X1068Y1243D01*
X1066Y1243D01*
X1066Y1247D01*
X1064Y1247D01*
X1064Y1249D01*
X1062Y1249D01*
X1062Y1253D01*
X996Y1253D01*
X996Y1255D01*
X992Y1255D01*
X992Y1257D01*
X990Y1257D01*
X990Y1259D01*
X988Y1259D01*
X988Y1261D01*
X986Y1261D01*
X986Y1265D01*
X984Y1265D01*
X984Y1269D01*
X982Y1269D01*
X982Y1273D01*
X980Y1273D01*
X980Y1277D01*
X978Y1277D01*
X978Y1281D01*
X976Y1281D01*
X976Y1285D01*
X974Y1285D01*
X974Y1289D01*
X972Y1289D01*
X972Y1293D01*
X970Y1293D01*
X970Y1297D01*
X968Y1297D01*
X968Y1301D01*
X966Y1301D01*
X966Y1305D01*
X964Y1305D01*
X964Y1309D01*
X962Y1309D01*
X962Y1313D01*
X960Y1313D01*
X960Y1317D01*
X958Y1317D01*
X958Y1321D01*
X956Y1321D01*
X956Y1325D01*
X954Y1325D01*
X954Y1329D01*
X952Y1329D01*
X952Y1333D01*
X950Y1333D01*
X950Y1337D01*
X948Y1337D01*
X948Y1341D01*
X946Y1341D01*
X946Y1345D01*
X944Y1345D01*
X944Y1349D01*
X942Y1349D01*
X942Y1353D01*
X940Y1353D01*
X940Y1357D01*
X938Y1357D01*
X938Y1361D01*
X936Y1361D01*
X936Y1365D01*
X934Y1365D01*
X934Y1387D01*
X932Y1387D01*
X932Y1419D01*
X930Y1419D01*
X930Y1449D01*
X928Y1449D01*
X928Y1481D01*
X926Y1481D01*
X926Y1513D01*
X924Y1513D01*
X924Y1543D01*
X922Y1543D01*
X922Y1575D01*
X920Y1575D01*
X920Y1605D01*
X918Y1605D01*
X918Y1607D01*
X914Y1607D01*
X914Y1609D01*
X910Y1609D01*
X910Y1611D01*
X906Y1611D01*
X906Y1613D01*
X904Y1613D01*
X904Y1615D01*
X900Y1615D01*
X900Y1617D01*
X898Y1617D01*
X898Y1621D01*
X896Y1621D01*
X896Y1623D01*
X894Y1623D01*
X894Y1625D01*
X892Y1625D01*
X892Y1629D01*
X890Y1629D01*
X890Y1633D01*
X888Y1633D01*
X888Y1639D01*
X886Y1639D01*
X886Y1649D01*
X884Y1649D01*
X884Y1673D01*
X882Y1673D01*
X882Y1675D01*
X880Y1675D01*
X880Y1677D01*
X878Y1677D01*
X878Y1679D01*
X876Y1679D01*
X876Y1681D01*
X874Y1681D01*
X874Y1683D01*
X870Y1683D01*
X870Y1685D01*
X868Y1685D01*
X868Y1687D01*
X866Y1687D01*
X866Y1689D01*
X864Y1689D01*
X864Y1691D01*
X862Y1691D01*
X862Y1693D01*
X860Y1693D01*
X860Y1695D01*
X858Y1695D01*
X858Y1697D01*
X854Y1697D01*
X854Y1699D01*
X852Y1699D01*
X852Y1701D01*
X850Y1701D01*
X850Y1703D01*
X848Y1703D01*
X848Y1705D01*
X846Y1705D01*
X846Y1707D01*
X844Y1707D01*
X844Y1709D01*
X842Y1709D01*
X842Y1711D01*
X838Y1711D01*
X838Y1713D01*
X836Y1713D01*
X836Y1715D01*
X834Y1715D01*
X834Y1717D01*
X832Y1717D01*
X832Y1719D01*
X830Y1719D01*
X830Y1721D01*
X828Y1721D01*
X828Y1723D01*
X826Y1723D01*
X826Y1725D01*
X822Y1725D01*
X822Y1727D01*
X820Y1727D01*
X820Y1729D01*
X818Y1729D01*
X818Y1731D01*
X816Y1731D01*
X816Y1733D01*
X814Y1733D01*
X814Y1735D01*
X812Y1735D01*
X812Y1737D01*
X810Y1737D01*
X810Y1739D01*
X806Y1739D01*
X806Y1741D01*
X804Y1741D01*
X804Y1743D01*
X802Y1743D01*
X802Y1745D01*
X800Y1745D01*
X800Y1747D01*
X798Y1747D01*
X798Y1749D01*
X796Y1749D01*
X796Y1751D01*
X794Y1751D01*
X794Y1753D01*
X790Y1753D01*
X790Y1755D01*
X788Y1755D01*
X788Y1757D01*
X786Y1757D01*
X786Y1761D01*
X784Y1761D01*
X784Y1765D01*
X782Y1765D01*
X782Y1875D01*
X780Y1875D01*
X780Y1877D01*
X776Y1877D01*
X776Y1879D01*
X774Y1879D01*
X774Y1881D01*
X770Y1881D01*
X770Y1883D01*
X768Y1883D01*
X768Y1885D01*
X766Y1885D01*
X766Y1887D01*
X764Y1887D01*
X764Y1889D01*
X762Y1889D01*
X762Y1893D01*
X742Y1893D01*
G37*
D02*
G36*
X842Y1893D02*
X842Y1891D01*
X840Y1891D01*
X840Y1889D01*
X838Y1889D01*
X838Y1887D01*
X836Y1887D01*
X836Y1885D01*
X834Y1885D01*
X834Y1883D01*
X832Y1883D01*
X832Y1881D01*
X830Y1881D01*
X830Y1879D01*
X826Y1879D01*
X826Y1877D01*
X822Y1877D01*
X822Y1875D01*
X818Y1875D01*
X818Y1871D01*
X892Y1871D01*
X892Y1873D01*
X884Y1873D01*
X884Y1875D01*
X880Y1875D01*
X880Y1877D01*
X876Y1877D01*
X876Y1879D01*
X874Y1879D01*
X874Y1881D01*
X870Y1881D01*
X870Y1883D01*
X868Y1883D01*
X868Y1885D01*
X866Y1885D01*
X866Y1887D01*
X864Y1887D01*
X864Y1889D01*
X862Y1889D01*
X862Y1893D01*
X842Y1893D01*
G37*
D02*
G36*
X942Y1893D02*
X942Y1891D01*
X940Y1891D01*
X940Y1889D01*
X938Y1889D01*
X938Y1887D01*
X936Y1887D01*
X936Y1885D01*
X934Y1885D01*
X934Y1883D01*
X932Y1883D01*
X932Y1881D01*
X930Y1881D01*
X930Y1879D01*
X926Y1879D01*
X926Y1877D01*
X922Y1877D01*
X922Y1875D01*
X918Y1875D01*
X918Y1873D01*
X912Y1873D01*
X912Y1871D01*
X992Y1871D01*
X992Y1873D01*
X984Y1873D01*
X984Y1875D01*
X980Y1875D01*
X980Y1877D01*
X976Y1877D01*
X976Y1879D01*
X974Y1879D01*
X974Y1881D01*
X970Y1881D01*
X970Y1883D01*
X968Y1883D01*
X968Y1885D01*
X966Y1885D01*
X966Y1887D01*
X964Y1887D01*
X964Y1889D01*
X962Y1889D01*
X962Y1893D01*
X942Y1893D01*
G37*
D02*
G36*
X818Y1871D02*
X818Y1869D01*
X1182Y1869D01*
X1182Y1871D01*
X818Y1871D01*
G37*
D02*
G36*
X818Y1871D02*
X818Y1869D01*
X1182Y1869D01*
X1182Y1871D01*
X818Y1871D01*
G37*
D02*
G36*
X818Y1871D02*
X818Y1869D01*
X1182Y1869D01*
X1182Y1871D01*
X818Y1871D01*
G37*
D02*
G36*
X818Y1869D02*
X818Y1777D01*
X820Y1777D01*
X820Y1775D01*
X822Y1775D01*
X822Y1773D01*
X826Y1773D01*
X826Y1771D01*
X828Y1771D01*
X828Y1769D01*
X830Y1769D01*
X830Y1767D01*
X832Y1767D01*
X832Y1765D01*
X834Y1765D01*
X834Y1763D01*
X836Y1763D01*
X836Y1761D01*
X838Y1761D01*
X838Y1759D01*
X842Y1759D01*
X842Y1757D01*
X844Y1757D01*
X844Y1755D01*
X846Y1755D01*
X846Y1753D01*
X848Y1753D01*
X848Y1751D01*
X850Y1751D01*
X850Y1749D01*
X852Y1749D01*
X852Y1747D01*
X854Y1747D01*
X854Y1745D01*
X858Y1745D01*
X858Y1743D01*
X860Y1743D01*
X860Y1741D01*
X862Y1741D01*
X862Y1739D01*
X864Y1739D01*
X864Y1737D01*
X866Y1737D01*
X866Y1735D01*
X868Y1735D01*
X868Y1733D01*
X870Y1733D01*
X870Y1731D01*
X874Y1731D01*
X874Y1729D01*
X876Y1729D01*
X876Y1727D01*
X878Y1727D01*
X878Y1725D01*
X880Y1725D01*
X880Y1723D01*
X882Y1723D01*
X882Y1721D01*
X884Y1721D01*
X884Y1719D01*
X886Y1719D01*
X886Y1717D01*
X890Y1717D01*
X890Y1715D01*
X892Y1715D01*
X892Y1713D01*
X1112Y1713D01*
X1112Y1711D01*
X1118Y1711D01*
X1118Y1709D01*
X1122Y1709D01*
X1122Y1707D01*
X1126Y1707D01*
X1126Y1705D01*
X1128Y1705D01*
X1128Y1703D01*
X1130Y1703D01*
X1130Y1701D01*
X1132Y1701D01*
X1132Y1699D01*
X1134Y1699D01*
X1134Y1697D01*
X1136Y1697D01*
X1136Y1695D01*
X1138Y1695D01*
X1138Y1691D01*
X1140Y1691D01*
X1140Y1687D01*
X1142Y1687D01*
X1142Y1681D01*
X1144Y1681D01*
X1144Y1659D01*
X1142Y1659D01*
X1142Y1653D01*
X1140Y1653D01*
X1140Y1649D01*
X1138Y1649D01*
X1138Y1645D01*
X1136Y1645D01*
X1136Y1643D01*
X1134Y1643D01*
X1134Y1641D01*
X1132Y1641D01*
X1132Y1639D01*
X1130Y1639D01*
X1130Y1637D01*
X1128Y1637D01*
X1128Y1635D01*
X1126Y1635D01*
X1126Y1633D01*
X1122Y1633D01*
X1122Y1631D01*
X1118Y1631D01*
X1118Y1609D01*
X1122Y1609D01*
X1122Y1607D01*
X1126Y1607D01*
X1126Y1605D01*
X1128Y1605D01*
X1128Y1603D01*
X1130Y1603D01*
X1130Y1601D01*
X1132Y1601D01*
X1132Y1599D01*
X1134Y1599D01*
X1134Y1597D01*
X1154Y1597D01*
X1154Y1599D01*
X1156Y1599D01*
X1156Y1601D01*
X1158Y1601D01*
X1158Y1603D01*
X1160Y1603D01*
X1160Y1605D01*
X1162Y1605D01*
X1162Y1607D01*
X1164Y1607D01*
X1164Y1609D01*
X1166Y1609D01*
X1166Y1611D01*
X1168Y1611D01*
X1168Y1615D01*
X1170Y1615D01*
X1170Y1617D01*
X1172Y1617D01*
X1172Y1619D01*
X1174Y1619D01*
X1174Y1621D01*
X1176Y1621D01*
X1176Y1623D01*
X1178Y1623D01*
X1178Y1625D01*
X1180Y1625D01*
X1180Y1627D01*
X1182Y1627D01*
X1182Y1869D01*
X818Y1869D01*
G37*
D02*
G36*
X894Y1713D02*
X894Y1711D01*
X896Y1711D01*
X896Y1709D01*
X898Y1709D01*
X898Y1707D01*
X900Y1707D01*
X900Y1705D01*
X902Y1705D01*
X902Y1703D01*
X936Y1703D01*
X936Y1701D01*
X948Y1701D01*
X948Y1699D01*
X954Y1699D01*
X954Y1697D01*
X958Y1697D01*
X958Y1695D01*
X962Y1695D01*
X962Y1693D01*
X964Y1693D01*
X964Y1691D01*
X966Y1691D01*
X966Y1689D01*
X968Y1689D01*
X968Y1687D01*
X970Y1687D01*
X970Y1685D01*
X972Y1685D01*
X972Y1683D01*
X974Y1683D01*
X974Y1681D01*
X976Y1681D01*
X976Y1677D01*
X978Y1677D01*
X978Y1673D01*
X980Y1673D01*
X980Y1667D01*
X982Y1667D01*
X982Y1659D01*
X984Y1659D01*
X984Y1647D01*
X982Y1647D01*
X982Y1637D01*
X980Y1637D01*
X980Y1633D01*
X978Y1633D01*
X978Y1629D01*
X976Y1629D01*
X976Y1625D01*
X974Y1625D01*
X974Y1623D01*
X972Y1623D01*
X972Y1619D01*
X970Y1619D01*
X970Y1617D01*
X968Y1617D01*
X968Y1615D01*
X964Y1615D01*
X964Y1613D01*
X962Y1613D01*
X962Y1611D01*
X958Y1611D01*
X958Y1609D01*
X956Y1609D01*
X956Y1577D01*
X958Y1577D01*
X958Y1545D01*
X960Y1545D01*
X960Y1513D01*
X962Y1513D01*
X962Y1483D01*
X964Y1483D01*
X964Y1451D01*
X966Y1451D01*
X966Y1419D01*
X968Y1419D01*
X968Y1387D01*
X970Y1387D01*
X970Y1373D01*
X972Y1373D01*
X972Y1369D01*
X974Y1369D01*
X974Y1365D01*
X976Y1365D01*
X976Y1361D01*
X978Y1361D01*
X978Y1357D01*
X980Y1357D01*
X980Y1353D01*
X982Y1353D01*
X982Y1349D01*
X984Y1349D01*
X984Y1345D01*
X986Y1345D01*
X986Y1341D01*
X988Y1341D01*
X988Y1337D01*
X990Y1337D01*
X990Y1333D01*
X992Y1333D01*
X992Y1329D01*
X994Y1329D01*
X994Y1325D01*
X996Y1325D01*
X996Y1321D01*
X998Y1321D01*
X998Y1317D01*
X1000Y1317D01*
X1000Y1313D01*
X1002Y1313D01*
X1002Y1309D01*
X1004Y1309D01*
X1004Y1305D01*
X1006Y1305D01*
X1006Y1301D01*
X1008Y1301D01*
X1008Y1297D01*
X1010Y1297D01*
X1010Y1293D01*
X1012Y1293D01*
X1012Y1289D01*
X1064Y1289D01*
X1064Y1293D01*
X1066Y1293D01*
X1066Y1297D01*
X1068Y1297D01*
X1068Y1299D01*
X1070Y1299D01*
X1070Y1301D01*
X1072Y1301D01*
X1072Y1303D01*
X1074Y1303D01*
X1074Y1305D01*
X1078Y1305D01*
X1078Y1307D01*
X1082Y1307D01*
X1082Y1309D01*
X1084Y1309D01*
X1084Y1331D01*
X1080Y1331D01*
X1080Y1333D01*
X1076Y1333D01*
X1076Y1335D01*
X1074Y1335D01*
X1074Y1337D01*
X1072Y1337D01*
X1072Y1339D01*
X1070Y1339D01*
X1070Y1341D01*
X1068Y1341D01*
X1068Y1343D01*
X1066Y1343D01*
X1066Y1347D01*
X1064Y1347D01*
X1064Y1349D01*
X1062Y1349D01*
X1062Y1353D01*
X1060Y1353D01*
X1060Y1361D01*
X1058Y1361D01*
X1058Y1379D01*
X1060Y1379D01*
X1060Y1385D01*
X1062Y1385D01*
X1062Y1389D01*
X1064Y1389D01*
X1064Y1393D01*
X1066Y1393D01*
X1066Y1397D01*
X1068Y1397D01*
X1068Y1399D01*
X1070Y1399D01*
X1070Y1401D01*
X1072Y1401D01*
X1072Y1403D01*
X1074Y1403D01*
X1074Y1405D01*
X1078Y1405D01*
X1078Y1407D01*
X1082Y1407D01*
X1082Y1409D01*
X1084Y1409D01*
X1084Y1431D01*
X1080Y1431D01*
X1080Y1433D01*
X1076Y1433D01*
X1076Y1435D01*
X1074Y1435D01*
X1074Y1437D01*
X1072Y1437D01*
X1072Y1439D01*
X1070Y1439D01*
X1070Y1441D01*
X1068Y1441D01*
X1068Y1443D01*
X1066Y1443D01*
X1066Y1447D01*
X1064Y1447D01*
X1064Y1449D01*
X1062Y1449D01*
X1062Y1453D01*
X1060Y1453D01*
X1060Y1461D01*
X1058Y1461D01*
X1058Y1479D01*
X1060Y1479D01*
X1060Y1485D01*
X1062Y1485D01*
X1062Y1489D01*
X1064Y1489D01*
X1064Y1493D01*
X1066Y1493D01*
X1066Y1497D01*
X1068Y1497D01*
X1068Y1499D01*
X1070Y1499D01*
X1070Y1501D01*
X1072Y1501D01*
X1072Y1503D01*
X1074Y1503D01*
X1074Y1505D01*
X1078Y1505D01*
X1078Y1507D01*
X1082Y1507D01*
X1082Y1509D01*
X1084Y1509D01*
X1084Y1531D01*
X1080Y1531D01*
X1080Y1533D01*
X1076Y1533D01*
X1076Y1535D01*
X1074Y1535D01*
X1074Y1537D01*
X1072Y1537D01*
X1072Y1539D01*
X1070Y1539D01*
X1070Y1541D01*
X1068Y1541D01*
X1068Y1543D01*
X1066Y1543D01*
X1066Y1547D01*
X1064Y1547D01*
X1064Y1549D01*
X1062Y1549D01*
X1062Y1553D01*
X1060Y1553D01*
X1060Y1561D01*
X1058Y1561D01*
X1058Y1579D01*
X1060Y1579D01*
X1060Y1585D01*
X1062Y1585D01*
X1062Y1589D01*
X1064Y1589D01*
X1064Y1593D01*
X1066Y1593D01*
X1066Y1597D01*
X1068Y1597D01*
X1068Y1599D01*
X1070Y1599D01*
X1070Y1601D01*
X1072Y1601D01*
X1072Y1603D01*
X1074Y1603D01*
X1074Y1605D01*
X1078Y1605D01*
X1078Y1607D01*
X1082Y1607D01*
X1082Y1609D01*
X1084Y1609D01*
X1084Y1631D01*
X1080Y1631D01*
X1080Y1633D01*
X1076Y1633D01*
X1076Y1635D01*
X1074Y1635D01*
X1074Y1637D01*
X1072Y1637D01*
X1072Y1639D01*
X1070Y1639D01*
X1070Y1641D01*
X1068Y1641D01*
X1068Y1643D01*
X1066Y1643D01*
X1066Y1647D01*
X1064Y1647D01*
X1064Y1649D01*
X1062Y1649D01*
X1062Y1653D01*
X1060Y1653D01*
X1060Y1661D01*
X1058Y1661D01*
X1058Y1679D01*
X1060Y1679D01*
X1060Y1685D01*
X1062Y1685D01*
X1062Y1689D01*
X1064Y1689D01*
X1064Y1693D01*
X1066Y1693D01*
X1066Y1697D01*
X1068Y1697D01*
X1068Y1699D01*
X1070Y1699D01*
X1070Y1701D01*
X1072Y1701D01*
X1072Y1703D01*
X1074Y1703D01*
X1074Y1705D01*
X1078Y1705D01*
X1078Y1707D01*
X1082Y1707D01*
X1082Y1709D01*
X1084Y1709D01*
X1084Y1711D01*
X1092Y1711D01*
X1092Y1713D01*
X894Y1713D01*
G37*
D02*
G36*
X906Y1703D02*
X906Y1701D01*
X932Y1701D01*
X932Y1703D01*
X906Y1703D01*
G37*
D02*
G36*
X244Y1271D02*
X244Y1269D01*
X550Y1269D01*
X550Y1271D01*
X244Y1271D01*
G37*
D02*
G36*
X244Y1271D02*
X244Y1269D01*
X550Y1269D01*
X550Y1271D01*
X244Y1271D01*
G37*
D02*
G36*
X244Y1269D02*
X244Y1259D01*
X242Y1259D01*
X242Y1253D01*
X240Y1253D01*
X240Y1249D01*
X238Y1249D01*
X238Y1245D01*
X236Y1245D01*
X236Y1243D01*
X234Y1243D01*
X234Y1241D01*
X232Y1241D01*
X232Y1239D01*
X230Y1239D01*
X230Y1237D01*
X228Y1237D01*
X228Y1235D01*
X226Y1235D01*
X226Y1233D01*
X222Y1233D01*
X222Y1231D01*
X218Y1231D01*
X218Y1209D01*
X222Y1209D01*
X222Y1207D01*
X226Y1207D01*
X226Y1205D01*
X228Y1205D01*
X228Y1203D01*
X230Y1203D01*
X230Y1201D01*
X232Y1201D01*
X232Y1199D01*
X234Y1199D01*
X234Y1197D01*
X236Y1197D01*
X236Y1195D01*
X238Y1195D01*
X238Y1191D01*
X240Y1191D01*
X240Y1187D01*
X242Y1187D01*
X242Y1181D01*
X244Y1181D01*
X244Y1159D01*
X242Y1159D01*
X242Y1153D01*
X240Y1153D01*
X240Y1149D01*
X238Y1149D01*
X238Y1145D01*
X236Y1145D01*
X236Y1143D01*
X234Y1143D01*
X234Y1141D01*
X232Y1141D01*
X232Y1139D01*
X230Y1139D01*
X230Y1137D01*
X228Y1137D01*
X228Y1135D01*
X226Y1135D01*
X226Y1133D01*
X222Y1133D01*
X222Y1131D01*
X218Y1131D01*
X218Y1109D01*
X222Y1109D01*
X222Y1107D01*
X226Y1107D01*
X226Y1105D01*
X228Y1105D01*
X228Y1103D01*
X230Y1103D01*
X230Y1101D01*
X232Y1101D01*
X232Y1099D01*
X234Y1099D01*
X234Y1097D01*
X236Y1097D01*
X236Y1095D01*
X238Y1095D01*
X238Y1091D01*
X240Y1091D01*
X240Y1087D01*
X242Y1087D01*
X242Y1081D01*
X244Y1081D01*
X244Y1059D01*
X242Y1059D01*
X242Y1053D01*
X240Y1053D01*
X240Y1049D01*
X238Y1049D01*
X238Y1045D01*
X236Y1045D01*
X236Y1043D01*
X234Y1043D01*
X234Y1041D01*
X232Y1041D01*
X232Y1039D01*
X230Y1039D01*
X230Y1037D01*
X228Y1037D01*
X228Y1035D01*
X226Y1035D01*
X226Y1033D01*
X222Y1033D01*
X222Y1031D01*
X218Y1031D01*
X218Y1009D01*
X222Y1009D01*
X222Y1007D01*
X226Y1007D01*
X226Y1005D01*
X228Y1005D01*
X228Y1003D01*
X230Y1003D01*
X230Y1001D01*
X232Y1001D01*
X232Y999D01*
X234Y999D01*
X234Y997D01*
X236Y997D01*
X236Y995D01*
X238Y995D01*
X238Y991D01*
X240Y991D01*
X240Y987D01*
X242Y987D01*
X242Y981D01*
X244Y981D01*
X244Y959D01*
X242Y959D01*
X242Y953D01*
X240Y953D01*
X240Y949D01*
X238Y949D01*
X238Y945D01*
X236Y945D01*
X236Y943D01*
X234Y943D01*
X234Y941D01*
X232Y941D01*
X232Y939D01*
X230Y939D01*
X230Y937D01*
X228Y937D01*
X228Y935D01*
X226Y935D01*
X226Y933D01*
X222Y933D01*
X222Y931D01*
X218Y931D01*
X218Y909D01*
X222Y909D01*
X222Y907D01*
X226Y907D01*
X226Y905D01*
X228Y905D01*
X228Y903D01*
X230Y903D01*
X230Y901D01*
X232Y901D01*
X232Y899D01*
X234Y899D01*
X234Y897D01*
X236Y897D01*
X236Y895D01*
X238Y895D01*
X238Y891D01*
X240Y891D01*
X240Y887D01*
X242Y887D01*
X242Y883D01*
X390Y883D01*
X390Y885D01*
X386Y885D01*
X386Y887D01*
X382Y887D01*
X382Y889D01*
X378Y889D01*
X378Y891D01*
X376Y891D01*
X376Y893D01*
X374Y893D01*
X374Y895D01*
X372Y895D01*
X372Y897D01*
X370Y897D01*
X370Y901D01*
X368Y901D01*
X368Y905D01*
X366Y905D01*
X366Y911D01*
X364Y911D01*
X364Y929D01*
X366Y929D01*
X366Y1011D01*
X364Y1011D01*
X364Y1029D01*
X366Y1029D01*
X366Y1035D01*
X368Y1035D01*
X368Y1053D01*
X370Y1053D01*
X370Y1057D01*
X372Y1057D01*
X372Y1061D01*
X374Y1061D01*
X374Y1063D01*
X376Y1063D01*
X376Y1065D01*
X378Y1065D01*
X378Y1067D01*
X382Y1067D01*
X382Y1069D01*
X384Y1069D01*
X384Y1071D01*
X386Y1071D01*
X386Y1073D01*
X388Y1073D01*
X388Y1077D01*
X390Y1077D01*
X390Y1079D01*
X392Y1079D01*
X392Y1081D01*
X394Y1081D01*
X394Y1083D01*
X396Y1083D01*
X396Y1085D01*
X398Y1085D01*
X398Y1089D01*
X400Y1089D01*
X400Y1091D01*
X402Y1091D01*
X402Y1093D01*
X404Y1093D01*
X404Y1095D01*
X406Y1095D01*
X406Y1097D01*
X408Y1097D01*
X408Y1101D01*
X410Y1101D01*
X410Y1103D01*
X412Y1103D01*
X412Y1105D01*
X414Y1105D01*
X414Y1107D01*
X416Y1107D01*
X416Y1109D01*
X418Y1109D01*
X418Y1113D01*
X420Y1113D01*
X420Y1115D01*
X422Y1115D01*
X422Y1117D01*
X424Y1117D01*
X424Y1119D01*
X426Y1119D01*
X426Y1121D01*
X428Y1121D01*
X428Y1125D01*
X430Y1125D01*
X430Y1127D01*
X432Y1127D01*
X432Y1129D01*
X434Y1129D01*
X434Y1131D01*
X436Y1131D01*
X436Y1133D01*
X438Y1133D01*
X438Y1137D01*
X440Y1137D01*
X440Y1139D01*
X442Y1139D01*
X442Y1141D01*
X444Y1141D01*
X444Y1143D01*
X446Y1143D01*
X446Y1145D01*
X448Y1145D01*
X448Y1149D01*
X450Y1149D01*
X450Y1151D01*
X452Y1151D01*
X452Y1153D01*
X454Y1153D01*
X454Y1155D01*
X456Y1155D01*
X456Y1157D01*
X458Y1157D01*
X458Y1161D01*
X460Y1161D01*
X460Y1163D01*
X462Y1163D01*
X462Y1165D01*
X464Y1165D01*
X464Y1167D01*
X466Y1167D01*
X466Y1169D01*
X468Y1169D01*
X468Y1173D01*
X470Y1173D01*
X470Y1175D01*
X472Y1175D01*
X472Y1177D01*
X474Y1177D01*
X474Y1179D01*
X476Y1179D01*
X476Y1181D01*
X478Y1181D01*
X478Y1185D01*
X480Y1185D01*
X480Y1187D01*
X482Y1187D01*
X482Y1189D01*
X484Y1189D01*
X484Y1191D01*
X486Y1191D01*
X486Y1193D01*
X488Y1193D01*
X488Y1197D01*
X490Y1197D01*
X490Y1199D01*
X492Y1199D01*
X492Y1201D01*
X494Y1201D01*
X494Y1203D01*
X496Y1203D01*
X496Y1205D01*
X498Y1205D01*
X498Y1209D01*
X500Y1209D01*
X500Y1211D01*
X502Y1211D01*
X502Y1213D01*
X504Y1213D01*
X504Y1215D01*
X506Y1215D01*
X506Y1217D01*
X508Y1217D01*
X508Y1221D01*
X510Y1221D01*
X510Y1223D01*
X512Y1223D01*
X512Y1225D01*
X514Y1225D01*
X514Y1227D01*
X516Y1227D01*
X516Y1229D01*
X518Y1229D01*
X518Y1233D01*
X520Y1233D01*
X520Y1235D01*
X522Y1235D01*
X522Y1237D01*
X524Y1237D01*
X524Y1239D01*
X526Y1239D01*
X526Y1241D01*
X528Y1241D01*
X528Y1245D01*
X530Y1245D01*
X530Y1247D01*
X532Y1247D01*
X532Y1249D01*
X534Y1249D01*
X534Y1251D01*
X536Y1251D01*
X536Y1253D01*
X538Y1253D01*
X538Y1257D01*
X540Y1257D01*
X540Y1259D01*
X542Y1259D01*
X542Y1261D01*
X544Y1261D01*
X544Y1263D01*
X546Y1263D01*
X546Y1265D01*
X548Y1265D01*
X548Y1269D01*
X244Y1269D01*
G37*
D02*
G36*
X444Y1057D02*
X444Y1053D01*
X442Y1053D01*
X442Y1051D01*
X440Y1051D01*
X440Y1049D01*
X438Y1049D01*
X438Y983D01*
X664Y983D01*
X664Y1057D01*
X444Y1057D01*
G37*
D02*
G36*
X438Y983D02*
X438Y981D01*
X938Y981D01*
X938Y983D01*
X438Y983D01*
G37*
D02*
G36*
X438Y983D02*
X438Y981D01*
X938Y981D01*
X938Y983D01*
X438Y983D01*
G37*
D02*
G36*
X438Y981D02*
X438Y957D01*
X710Y957D01*
X710Y955D01*
X716Y955D01*
X716Y953D01*
X720Y953D01*
X720Y951D01*
X724Y951D01*
X724Y949D01*
X726Y949D01*
X726Y947D01*
X728Y947D01*
X728Y945D01*
X730Y945D01*
X730Y943D01*
X732Y943D01*
X732Y939D01*
X734Y939D01*
X734Y937D01*
X736Y937D01*
X736Y931D01*
X738Y931D01*
X738Y909D01*
X736Y909D01*
X736Y903D01*
X734Y903D01*
X734Y899D01*
X732Y899D01*
X732Y897D01*
X730Y897D01*
X730Y895D01*
X728Y895D01*
X728Y893D01*
X726Y893D01*
X726Y891D01*
X724Y891D01*
X724Y889D01*
X722Y889D01*
X722Y887D01*
X718Y887D01*
X718Y885D01*
X712Y885D01*
X712Y883D01*
X918Y883D01*
X918Y887D01*
X920Y887D01*
X920Y899D01*
X922Y899D01*
X922Y911D01*
X924Y911D01*
X924Y925D01*
X926Y925D01*
X926Y937D01*
X928Y937D01*
X928Y949D01*
X930Y949D01*
X930Y961D01*
X932Y961D01*
X932Y973D01*
X934Y973D01*
X934Y979D01*
X936Y979D01*
X936Y981D01*
X438Y981D01*
G37*
D02*
G36*
X438Y957D02*
X438Y909D01*
X436Y909D01*
X436Y903D01*
X434Y903D01*
X434Y899D01*
X432Y899D01*
X432Y897D01*
X430Y897D01*
X430Y895D01*
X428Y895D01*
X428Y893D01*
X426Y893D01*
X426Y891D01*
X424Y891D01*
X424Y889D01*
X422Y889D01*
X422Y887D01*
X418Y887D01*
X418Y885D01*
X412Y885D01*
X412Y883D01*
X690Y883D01*
X690Y885D01*
X686Y885D01*
X686Y887D01*
X682Y887D01*
X682Y889D01*
X678Y889D01*
X678Y891D01*
X676Y891D01*
X676Y893D01*
X674Y893D01*
X674Y895D01*
X672Y895D01*
X672Y897D01*
X670Y897D01*
X670Y901D01*
X668Y901D01*
X668Y905D01*
X666Y905D01*
X666Y911D01*
X664Y911D01*
X664Y929D01*
X666Y929D01*
X666Y935D01*
X668Y935D01*
X668Y939D01*
X670Y939D01*
X670Y941D01*
X672Y941D01*
X672Y945D01*
X674Y945D01*
X674Y947D01*
X676Y947D01*
X676Y949D01*
X680Y949D01*
X680Y951D01*
X682Y951D01*
X682Y953D01*
X686Y953D01*
X686Y955D01*
X692Y955D01*
X692Y957D01*
X438Y957D01*
G37*
D02*
G36*
X242Y883D02*
X242Y881D01*
X918Y881D01*
X918Y883D01*
X242Y883D01*
G37*
D02*
G36*
X242Y883D02*
X242Y881D01*
X918Y881D01*
X918Y883D01*
X242Y883D01*
G37*
D02*
G36*
X242Y883D02*
X242Y881D01*
X918Y881D01*
X918Y883D01*
X242Y883D01*
G37*
D02*
G36*
X244Y881D02*
X244Y859D01*
X242Y859D01*
X242Y857D01*
X710Y857D01*
X710Y855D01*
X716Y855D01*
X716Y853D01*
X720Y853D01*
X720Y851D01*
X724Y851D01*
X724Y849D01*
X726Y849D01*
X726Y847D01*
X728Y847D01*
X728Y845D01*
X730Y845D01*
X730Y843D01*
X732Y843D01*
X732Y839D01*
X734Y839D01*
X734Y837D01*
X736Y837D01*
X736Y831D01*
X738Y831D01*
X738Y809D01*
X736Y809D01*
X736Y803D01*
X734Y803D01*
X734Y799D01*
X732Y799D01*
X732Y797D01*
X730Y797D01*
X730Y795D01*
X728Y795D01*
X728Y793D01*
X726Y793D01*
X726Y791D01*
X724Y791D01*
X724Y789D01*
X722Y789D01*
X722Y787D01*
X718Y787D01*
X718Y785D01*
X712Y785D01*
X712Y783D01*
X902Y783D01*
X902Y791D01*
X904Y791D01*
X904Y803D01*
X906Y803D01*
X906Y815D01*
X908Y815D01*
X908Y827D01*
X910Y827D01*
X910Y839D01*
X912Y839D01*
X912Y851D01*
X914Y851D01*
X914Y863D01*
X916Y863D01*
X916Y875D01*
X918Y875D01*
X918Y881D01*
X244Y881D01*
G37*
D02*
G36*
X242Y857D02*
X242Y853D01*
X240Y853D01*
X240Y849D01*
X238Y849D01*
X238Y845D01*
X236Y845D01*
X236Y843D01*
X234Y843D01*
X234Y841D01*
X232Y841D01*
X232Y839D01*
X230Y839D01*
X230Y837D01*
X228Y837D01*
X228Y835D01*
X226Y835D01*
X226Y833D01*
X222Y833D01*
X222Y831D01*
X218Y831D01*
X218Y809D01*
X222Y809D01*
X222Y807D01*
X226Y807D01*
X226Y805D01*
X228Y805D01*
X228Y803D01*
X230Y803D01*
X230Y801D01*
X232Y801D01*
X232Y799D01*
X234Y799D01*
X234Y797D01*
X236Y797D01*
X236Y795D01*
X238Y795D01*
X238Y791D01*
X240Y791D01*
X240Y787D01*
X242Y787D01*
X242Y783D01*
X390Y783D01*
X390Y785D01*
X386Y785D01*
X386Y787D01*
X382Y787D01*
X382Y789D01*
X378Y789D01*
X378Y791D01*
X376Y791D01*
X376Y793D01*
X374Y793D01*
X374Y795D01*
X372Y795D01*
X372Y797D01*
X370Y797D01*
X370Y801D01*
X368Y801D01*
X368Y805D01*
X366Y805D01*
X366Y811D01*
X364Y811D01*
X364Y829D01*
X366Y829D01*
X366Y835D01*
X368Y835D01*
X368Y839D01*
X370Y839D01*
X370Y841D01*
X372Y841D01*
X372Y845D01*
X374Y845D01*
X374Y847D01*
X376Y847D01*
X376Y849D01*
X380Y849D01*
X380Y851D01*
X382Y851D01*
X382Y853D01*
X386Y853D01*
X386Y855D01*
X392Y855D01*
X392Y857D01*
X242Y857D01*
G37*
D02*
G36*
X410Y857D02*
X410Y855D01*
X416Y855D01*
X416Y853D01*
X420Y853D01*
X420Y851D01*
X424Y851D01*
X424Y849D01*
X426Y849D01*
X426Y847D01*
X428Y847D01*
X428Y845D01*
X430Y845D01*
X430Y843D01*
X432Y843D01*
X432Y839D01*
X434Y839D01*
X434Y837D01*
X436Y837D01*
X436Y831D01*
X438Y831D01*
X438Y809D01*
X436Y809D01*
X436Y803D01*
X434Y803D01*
X434Y799D01*
X432Y799D01*
X432Y797D01*
X430Y797D01*
X430Y795D01*
X428Y795D01*
X428Y793D01*
X426Y793D01*
X426Y791D01*
X424Y791D01*
X424Y789D01*
X422Y789D01*
X422Y787D01*
X418Y787D01*
X418Y785D01*
X412Y785D01*
X412Y783D01*
X690Y783D01*
X690Y785D01*
X686Y785D01*
X686Y787D01*
X682Y787D01*
X682Y789D01*
X678Y789D01*
X678Y791D01*
X676Y791D01*
X676Y793D01*
X674Y793D01*
X674Y795D01*
X672Y795D01*
X672Y797D01*
X670Y797D01*
X670Y801D01*
X668Y801D01*
X668Y805D01*
X666Y805D01*
X666Y811D01*
X664Y811D01*
X664Y829D01*
X666Y829D01*
X666Y835D01*
X668Y835D01*
X668Y839D01*
X670Y839D01*
X670Y841D01*
X672Y841D01*
X672Y845D01*
X674Y845D01*
X674Y847D01*
X676Y847D01*
X676Y849D01*
X680Y849D01*
X680Y851D01*
X682Y851D01*
X682Y853D01*
X686Y853D01*
X686Y855D01*
X692Y855D01*
X692Y857D01*
X410Y857D01*
G37*
D02*
G36*
X242Y783D02*
X242Y781D01*
X902Y781D01*
X902Y783D01*
X242Y783D01*
G37*
D02*
G36*
X242Y783D02*
X242Y781D01*
X902Y781D01*
X902Y783D01*
X242Y783D01*
G37*
D02*
G36*
X242Y783D02*
X242Y781D01*
X902Y781D01*
X902Y783D01*
X242Y783D01*
G37*
D02*
G36*
X244Y781D02*
X244Y759D01*
X242Y759D01*
X242Y757D01*
X710Y757D01*
X710Y755D01*
X716Y755D01*
X716Y753D01*
X720Y753D01*
X720Y751D01*
X724Y751D01*
X724Y749D01*
X726Y749D01*
X726Y747D01*
X728Y747D01*
X728Y745D01*
X730Y745D01*
X730Y743D01*
X732Y743D01*
X732Y739D01*
X734Y739D01*
X734Y737D01*
X736Y737D01*
X736Y731D01*
X738Y731D01*
X738Y709D01*
X736Y709D01*
X736Y703D01*
X734Y703D01*
X734Y699D01*
X732Y699D01*
X732Y697D01*
X730Y697D01*
X730Y695D01*
X728Y695D01*
X728Y693D01*
X726Y693D01*
X726Y691D01*
X724Y691D01*
X724Y689D01*
X722Y689D01*
X722Y687D01*
X718Y687D01*
X718Y685D01*
X712Y685D01*
X712Y683D01*
X886Y683D01*
X886Y693D01*
X888Y693D01*
X888Y705D01*
X890Y705D01*
X890Y717D01*
X892Y717D01*
X892Y729D01*
X894Y729D01*
X894Y741D01*
X896Y741D01*
X896Y753D01*
X898Y753D01*
X898Y765D01*
X900Y765D01*
X900Y777D01*
X902Y777D01*
X902Y781D01*
X244Y781D01*
G37*
D02*
G36*
X242Y757D02*
X242Y753D01*
X240Y753D01*
X240Y749D01*
X238Y749D01*
X238Y745D01*
X236Y745D01*
X236Y743D01*
X234Y743D01*
X234Y741D01*
X232Y741D01*
X232Y739D01*
X230Y739D01*
X230Y737D01*
X228Y737D01*
X228Y735D01*
X226Y735D01*
X226Y733D01*
X222Y733D01*
X222Y731D01*
X218Y731D01*
X218Y709D01*
X222Y709D01*
X222Y707D01*
X226Y707D01*
X226Y705D01*
X228Y705D01*
X228Y703D01*
X230Y703D01*
X230Y701D01*
X232Y701D01*
X232Y699D01*
X234Y699D01*
X234Y697D01*
X236Y697D01*
X236Y695D01*
X238Y695D01*
X238Y691D01*
X240Y691D01*
X240Y687D01*
X242Y687D01*
X242Y683D01*
X390Y683D01*
X390Y685D01*
X386Y685D01*
X386Y687D01*
X382Y687D01*
X382Y689D01*
X378Y689D01*
X378Y691D01*
X376Y691D01*
X376Y693D01*
X374Y693D01*
X374Y695D01*
X372Y695D01*
X372Y697D01*
X370Y697D01*
X370Y701D01*
X368Y701D01*
X368Y705D01*
X366Y705D01*
X366Y711D01*
X364Y711D01*
X364Y729D01*
X366Y729D01*
X366Y735D01*
X368Y735D01*
X368Y739D01*
X370Y739D01*
X370Y741D01*
X372Y741D01*
X372Y745D01*
X374Y745D01*
X374Y747D01*
X376Y747D01*
X376Y749D01*
X380Y749D01*
X380Y751D01*
X382Y751D01*
X382Y753D01*
X386Y753D01*
X386Y755D01*
X392Y755D01*
X392Y757D01*
X242Y757D01*
G37*
D02*
G36*
X410Y757D02*
X410Y755D01*
X416Y755D01*
X416Y753D01*
X420Y753D01*
X420Y751D01*
X424Y751D01*
X424Y749D01*
X426Y749D01*
X426Y747D01*
X428Y747D01*
X428Y745D01*
X430Y745D01*
X430Y743D01*
X432Y743D01*
X432Y739D01*
X434Y739D01*
X434Y737D01*
X454Y737D01*
X454Y735D01*
X460Y735D01*
X460Y733D01*
X462Y733D01*
X462Y731D01*
X464Y731D01*
X464Y727D01*
X466Y727D01*
X466Y725D01*
X468Y725D01*
X468Y721D01*
X470Y721D01*
X470Y717D01*
X472Y717D01*
X472Y713D01*
X474Y713D01*
X474Y709D01*
X476Y709D01*
X476Y705D01*
X478Y705D01*
X478Y701D01*
X480Y701D01*
X480Y697D01*
X482Y697D01*
X482Y693D01*
X484Y693D01*
X484Y689D01*
X486Y689D01*
X486Y685D01*
X488Y685D01*
X488Y683D01*
X690Y683D01*
X690Y685D01*
X686Y685D01*
X686Y687D01*
X682Y687D01*
X682Y689D01*
X678Y689D01*
X678Y691D01*
X676Y691D01*
X676Y693D01*
X674Y693D01*
X674Y695D01*
X672Y695D01*
X672Y697D01*
X670Y697D01*
X670Y701D01*
X668Y701D01*
X668Y705D01*
X666Y705D01*
X666Y711D01*
X664Y711D01*
X664Y729D01*
X666Y729D01*
X666Y735D01*
X668Y735D01*
X668Y739D01*
X670Y739D01*
X670Y741D01*
X672Y741D01*
X672Y745D01*
X674Y745D01*
X674Y747D01*
X676Y747D01*
X676Y749D01*
X680Y749D01*
X680Y751D01*
X682Y751D01*
X682Y753D01*
X686Y753D01*
X686Y755D01*
X692Y755D01*
X692Y757D01*
X410Y757D01*
G37*
D02*
G36*
X424Y691D02*
X424Y689D01*
X422Y689D01*
X422Y687D01*
X418Y687D01*
X418Y685D01*
X412Y685D01*
X412Y683D01*
X446Y683D01*
X446Y687D01*
X444Y687D01*
X444Y691D01*
X424Y691D01*
G37*
D02*
G36*
X242Y683D02*
X242Y681D01*
X448Y681D01*
X448Y683D01*
X242Y683D01*
G37*
D02*
G36*
X242Y683D02*
X242Y681D01*
X448Y681D01*
X448Y683D01*
X242Y683D01*
G37*
D02*
G36*
X488Y683D02*
X488Y681D01*
X886Y681D01*
X886Y683D01*
X488Y683D01*
G37*
D02*
G36*
X488Y683D02*
X488Y681D01*
X886Y681D01*
X886Y683D01*
X488Y683D01*
G37*
D02*
G36*
X244Y681D02*
X244Y659D01*
X242Y659D01*
X242Y657D01*
X410Y657D01*
X410Y655D01*
X416Y655D01*
X416Y653D01*
X420Y653D01*
X420Y651D01*
X424Y651D01*
X424Y649D01*
X426Y649D01*
X426Y647D01*
X428Y647D01*
X428Y645D01*
X430Y645D01*
X430Y643D01*
X432Y643D01*
X432Y639D01*
X466Y639D01*
X466Y649D01*
X464Y649D01*
X464Y653D01*
X462Y653D01*
X462Y657D01*
X460Y657D01*
X460Y661D01*
X458Y661D01*
X458Y665D01*
X456Y665D01*
X456Y669D01*
X454Y669D01*
X454Y673D01*
X452Y673D01*
X452Y677D01*
X450Y677D01*
X450Y681D01*
X244Y681D01*
G37*
D02*
G36*
X490Y681D02*
X490Y677D01*
X492Y677D01*
X492Y673D01*
X494Y673D01*
X494Y669D01*
X496Y669D01*
X496Y665D01*
X498Y665D01*
X498Y661D01*
X500Y661D01*
X500Y657D01*
X710Y657D01*
X710Y655D01*
X716Y655D01*
X716Y653D01*
X720Y653D01*
X720Y651D01*
X724Y651D01*
X724Y649D01*
X726Y649D01*
X726Y647D01*
X728Y647D01*
X728Y645D01*
X730Y645D01*
X730Y643D01*
X732Y643D01*
X732Y639D01*
X734Y639D01*
X734Y637D01*
X736Y637D01*
X736Y631D01*
X738Y631D01*
X738Y609D01*
X736Y609D01*
X736Y603D01*
X734Y603D01*
X734Y599D01*
X732Y599D01*
X732Y597D01*
X730Y597D01*
X730Y595D01*
X728Y595D01*
X728Y593D01*
X726Y593D01*
X726Y591D01*
X724Y591D01*
X724Y589D01*
X722Y589D01*
X722Y587D01*
X718Y587D01*
X718Y585D01*
X712Y585D01*
X712Y583D01*
X874Y583D01*
X874Y597D01*
X876Y597D01*
X876Y615D01*
X878Y615D01*
X878Y631D01*
X880Y631D01*
X880Y649D01*
X882Y649D01*
X882Y667D01*
X884Y667D01*
X884Y681D01*
X490Y681D01*
G37*
D02*
G36*
X242Y657D02*
X242Y653D01*
X240Y653D01*
X240Y649D01*
X238Y649D01*
X238Y645D01*
X236Y645D01*
X236Y643D01*
X234Y643D01*
X234Y641D01*
X232Y641D01*
X232Y639D01*
X230Y639D01*
X230Y637D01*
X228Y637D01*
X228Y635D01*
X226Y635D01*
X226Y633D01*
X222Y633D01*
X222Y631D01*
X218Y631D01*
X218Y609D01*
X222Y609D01*
X222Y607D01*
X226Y607D01*
X226Y605D01*
X228Y605D01*
X228Y603D01*
X230Y603D01*
X230Y601D01*
X232Y601D01*
X232Y599D01*
X234Y599D01*
X234Y597D01*
X236Y597D01*
X236Y595D01*
X238Y595D01*
X238Y591D01*
X240Y591D01*
X240Y587D01*
X242Y587D01*
X242Y583D01*
X390Y583D01*
X390Y585D01*
X386Y585D01*
X386Y587D01*
X382Y587D01*
X382Y589D01*
X378Y589D01*
X378Y591D01*
X376Y591D01*
X376Y593D01*
X374Y593D01*
X374Y595D01*
X372Y595D01*
X372Y597D01*
X370Y597D01*
X370Y601D01*
X368Y601D01*
X368Y605D01*
X366Y605D01*
X366Y611D01*
X364Y611D01*
X364Y629D01*
X366Y629D01*
X366Y635D01*
X368Y635D01*
X368Y639D01*
X370Y639D01*
X370Y641D01*
X372Y641D01*
X372Y645D01*
X374Y645D01*
X374Y647D01*
X376Y647D01*
X376Y649D01*
X380Y649D01*
X380Y651D01*
X382Y651D01*
X382Y653D01*
X386Y653D01*
X386Y655D01*
X392Y655D01*
X392Y657D01*
X242Y657D01*
G37*
D02*
G36*
X502Y657D02*
X502Y653D01*
X504Y653D01*
X504Y649D01*
X506Y649D01*
X506Y645D01*
X508Y645D01*
X508Y641D01*
X510Y641D01*
X510Y637D01*
X512Y637D01*
X512Y633D01*
X514Y633D01*
X514Y629D01*
X516Y629D01*
X516Y625D01*
X518Y625D01*
X518Y621D01*
X520Y621D01*
X520Y617D01*
X522Y617D01*
X522Y613D01*
X524Y613D01*
X524Y609D01*
X526Y609D01*
X526Y605D01*
X528Y605D01*
X528Y601D01*
X530Y601D01*
X530Y597D01*
X532Y597D01*
X532Y593D01*
X534Y593D01*
X534Y589D01*
X536Y589D01*
X536Y585D01*
X538Y585D01*
X538Y583D01*
X690Y583D01*
X690Y585D01*
X686Y585D01*
X686Y587D01*
X682Y587D01*
X682Y589D01*
X678Y589D01*
X678Y591D01*
X676Y591D01*
X676Y593D01*
X674Y593D01*
X674Y595D01*
X672Y595D01*
X672Y597D01*
X670Y597D01*
X670Y601D01*
X668Y601D01*
X668Y605D01*
X666Y605D01*
X666Y611D01*
X664Y611D01*
X664Y629D01*
X666Y629D01*
X666Y635D01*
X668Y635D01*
X668Y639D01*
X670Y639D01*
X670Y641D01*
X672Y641D01*
X672Y645D01*
X674Y645D01*
X674Y647D01*
X676Y647D01*
X676Y649D01*
X680Y649D01*
X680Y651D01*
X682Y651D01*
X682Y653D01*
X686Y653D01*
X686Y655D01*
X692Y655D01*
X692Y657D01*
X502Y657D01*
G37*
D02*
G36*
X424Y591D02*
X424Y589D01*
X422Y589D01*
X422Y587D01*
X418Y587D01*
X418Y585D01*
X412Y585D01*
X412Y583D01*
X448Y583D01*
X448Y587D01*
X446Y587D01*
X446Y589D01*
X444Y589D01*
X444Y591D01*
X424Y591D01*
G37*
D02*
G36*
X242Y583D02*
X242Y581D01*
X450Y581D01*
X450Y583D01*
X242Y583D01*
G37*
D02*
G36*
X242Y583D02*
X242Y581D01*
X450Y581D01*
X450Y583D01*
X242Y583D01*
G37*
D02*
G36*
X538Y583D02*
X538Y581D01*
X874Y581D01*
X874Y583D01*
X538Y583D01*
G37*
D02*
G36*
X538Y583D02*
X538Y581D01*
X874Y581D01*
X874Y583D01*
X538Y583D01*
G37*
D02*
G36*
X244Y581D02*
X244Y559D01*
X242Y559D01*
X242Y557D01*
X410Y557D01*
X410Y555D01*
X416Y555D01*
X416Y553D01*
X420Y553D01*
X420Y551D01*
X424Y551D01*
X424Y549D01*
X426Y549D01*
X426Y547D01*
X428Y547D01*
X428Y545D01*
X430Y545D01*
X430Y543D01*
X432Y543D01*
X432Y539D01*
X434Y539D01*
X434Y537D01*
X472Y537D01*
X472Y539D01*
X470Y539D01*
X470Y543D01*
X468Y543D01*
X468Y547D01*
X466Y547D01*
X466Y551D01*
X464Y551D01*
X464Y555D01*
X462Y555D01*
X462Y559D01*
X460Y559D01*
X460Y563D01*
X458Y563D01*
X458Y567D01*
X456Y567D01*
X456Y571D01*
X454Y571D01*
X454Y575D01*
X452Y575D01*
X452Y579D01*
X450Y579D01*
X450Y581D01*
X244Y581D01*
G37*
D02*
G36*
X540Y581D02*
X540Y577D01*
X542Y577D01*
X542Y573D01*
X544Y573D01*
X544Y571D01*
X546Y571D01*
X546Y567D01*
X548Y567D01*
X548Y563D01*
X550Y563D01*
X550Y559D01*
X552Y559D01*
X552Y557D01*
X710Y557D01*
X710Y555D01*
X716Y555D01*
X716Y553D01*
X720Y553D01*
X720Y551D01*
X724Y551D01*
X724Y549D01*
X726Y549D01*
X726Y547D01*
X728Y547D01*
X728Y545D01*
X730Y545D01*
X730Y543D01*
X732Y543D01*
X732Y539D01*
X734Y539D01*
X734Y537D01*
X736Y537D01*
X736Y531D01*
X738Y531D01*
X738Y509D01*
X736Y509D01*
X736Y503D01*
X734Y503D01*
X734Y499D01*
X732Y499D01*
X732Y497D01*
X730Y497D01*
X730Y495D01*
X728Y495D01*
X728Y493D01*
X726Y493D01*
X726Y491D01*
X724Y491D01*
X724Y489D01*
X722Y489D01*
X722Y487D01*
X718Y487D01*
X718Y485D01*
X712Y485D01*
X712Y483D01*
X862Y483D01*
X862Y493D01*
X864Y493D01*
X864Y509D01*
X866Y509D01*
X866Y527D01*
X868Y527D01*
X868Y545D01*
X870Y545D01*
X870Y563D01*
X872Y563D01*
X872Y579D01*
X874Y579D01*
X874Y581D01*
X540Y581D01*
G37*
D02*
G36*
X40Y577D02*
X40Y265D01*
X42Y265D01*
X42Y227D01*
X190Y227D01*
X190Y229D01*
X184Y229D01*
X184Y231D01*
X180Y231D01*
X180Y233D01*
X176Y233D01*
X176Y235D01*
X174Y235D01*
X174Y237D01*
X172Y237D01*
X172Y239D01*
X170Y239D01*
X170Y241D01*
X168Y241D01*
X168Y243D01*
X166Y243D01*
X166Y247D01*
X164Y247D01*
X164Y249D01*
X162Y249D01*
X162Y253D01*
X160Y253D01*
X160Y261D01*
X158Y261D01*
X158Y279D01*
X160Y279D01*
X160Y285D01*
X162Y285D01*
X162Y289D01*
X164Y289D01*
X164Y293D01*
X166Y293D01*
X166Y297D01*
X168Y297D01*
X168Y299D01*
X170Y299D01*
X170Y301D01*
X172Y301D01*
X172Y303D01*
X174Y303D01*
X174Y305D01*
X178Y305D01*
X178Y307D01*
X182Y307D01*
X182Y309D01*
X184Y309D01*
X184Y331D01*
X180Y331D01*
X180Y333D01*
X176Y333D01*
X176Y335D01*
X174Y335D01*
X174Y337D01*
X172Y337D01*
X172Y339D01*
X170Y339D01*
X170Y341D01*
X168Y341D01*
X168Y343D01*
X166Y343D01*
X166Y347D01*
X164Y347D01*
X164Y349D01*
X162Y349D01*
X162Y353D01*
X160Y353D01*
X160Y361D01*
X158Y361D01*
X158Y379D01*
X160Y379D01*
X160Y385D01*
X162Y385D01*
X162Y389D01*
X164Y389D01*
X164Y393D01*
X166Y393D01*
X166Y397D01*
X168Y397D01*
X168Y399D01*
X170Y399D01*
X170Y401D01*
X172Y401D01*
X172Y403D01*
X174Y403D01*
X174Y405D01*
X178Y405D01*
X178Y407D01*
X182Y407D01*
X182Y409D01*
X184Y409D01*
X184Y431D01*
X180Y431D01*
X180Y433D01*
X176Y433D01*
X176Y435D01*
X174Y435D01*
X174Y437D01*
X172Y437D01*
X172Y439D01*
X170Y439D01*
X170Y441D01*
X168Y441D01*
X168Y443D01*
X166Y443D01*
X166Y447D01*
X164Y447D01*
X164Y449D01*
X162Y449D01*
X162Y453D01*
X160Y453D01*
X160Y461D01*
X158Y461D01*
X158Y479D01*
X160Y479D01*
X160Y485D01*
X162Y485D01*
X162Y489D01*
X164Y489D01*
X164Y493D01*
X166Y493D01*
X166Y497D01*
X168Y497D01*
X168Y499D01*
X170Y499D01*
X170Y501D01*
X172Y501D01*
X172Y503D01*
X174Y503D01*
X174Y505D01*
X178Y505D01*
X178Y507D01*
X182Y507D01*
X182Y509D01*
X184Y509D01*
X184Y531D01*
X180Y531D01*
X180Y533D01*
X176Y533D01*
X176Y535D01*
X174Y535D01*
X174Y537D01*
X172Y537D01*
X172Y539D01*
X170Y539D01*
X170Y541D01*
X168Y541D01*
X168Y543D01*
X166Y543D01*
X166Y547D01*
X164Y547D01*
X164Y549D01*
X162Y549D01*
X162Y553D01*
X160Y553D01*
X160Y561D01*
X158Y561D01*
X158Y577D01*
X40Y577D01*
G37*
D02*
G36*
X242Y557D02*
X242Y553D01*
X240Y553D01*
X240Y549D01*
X238Y549D01*
X238Y545D01*
X236Y545D01*
X236Y543D01*
X234Y543D01*
X234Y541D01*
X232Y541D01*
X232Y539D01*
X230Y539D01*
X230Y537D01*
X228Y537D01*
X228Y535D01*
X226Y535D01*
X226Y533D01*
X222Y533D01*
X222Y531D01*
X218Y531D01*
X218Y509D01*
X222Y509D01*
X222Y507D01*
X226Y507D01*
X226Y505D01*
X228Y505D01*
X228Y503D01*
X230Y503D01*
X230Y501D01*
X232Y501D01*
X232Y499D01*
X234Y499D01*
X234Y497D01*
X236Y497D01*
X236Y495D01*
X238Y495D01*
X238Y491D01*
X240Y491D01*
X240Y487D01*
X242Y487D01*
X242Y483D01*
X390Y483D01*
X390Y485D01*
X386Y485D01*
X386Y487D01*
X382Y487D01*
X382Y489D01*
X378Y489D01*
X378Y491D01*
X376Y491D01*
X376Y493D01*
X374Y493D01*
X374Y495D01*
X372Y495D01*
X372Y497D01*
X370Y497D01*
X370Y501D01*
X368Y501D01*
X368Y505D01*
X366Y505D01*
X366Y511D01*
X364Y511D01*
X364Y529D01*
X366Y529D01*
X366Y535D01*
X368Y535D01*
X368Y539D01*
X370Y539D01*
X370Y541D01*
X372Y541D01*
X372Y545D01*
X374Y545D01*
X374Y547D01*
X376Y547D01*
X376Y549D01*
X380Y549D01*
X380Y551D01*
X382Y551D01*
X382Y553D01*
X386Y553D01*
X386Y555D01*
X392Y555D01*
X392Y557D01*
X242Y557D01*
G37*
D02*
G36*
X552Y557D02*
X552Y555D01*
X554Y555D01*
X554Y551D01*
X556Y551D01*
X556Y547D01*
X558Y547D01*
X558Y543D01*
X560Y543D01*
X560Y539D01*
X562Y539D01*
X562Y535D01*
X564Y535D01*
X564Y531D01*
X566Y531D01*
X566Y527D01*
X568Y527D01*
X568Y523D01*
X570Y523D01*
X570Y519D01*
X572Y519D01*
X572Y515D01*
X574Y515D01*
X574Y511D01*
X576Y511D01*
X576Y507D01*
X578Y507D01*
X578Y503D01*
X580Y503D01*
X580Y499D01*
X582Y499D01*
X582Y495D01*
X584Y495D01*
X584Y491D01*
X586Y491D01*
X586Y487D01*
X588Y487D01*
X588Y483D01*
X690Y483D01*
X690Y485D01*
X686Y485D01*
X686Y487D01*
X682Y487D01*
X682Y489D01*
X678Y489D01*
X678Y491D01*
X676Y491D01*
X676Y493D01*
X674Y493D01*
X674Y495D01*
X672Y495D01*
X672Y497D01*
X670Y497D01*
X670Y501D01*
X668Y501D01*
X668Y505D01*
X666Y505D01*
X666Y511D01*
X664Y511D01*
X664Y529D01*
X666Y529D01*
X666Y535D01*
X668Y535D01*
X668Y539D01*
X670Y539D01*
X670Y541D01*
X672Y541D01*
X672Y545D01*
X674Y545D01*
X674Y547D01*
X676Y547D01*
X676Y549D01*
X680Y549D01*
X680Y551D01*
X682Y551D01*
X682Y553D01*
X686Y553D01*
X686Y555D01*
X692Y555D01*
X692Y557D01*
X552Y557D01*
G37*
D02*
G36*
X424Y491D02*
X424Y489D01*
X422Y489D01*
X422Y487D01*
X418Y487D01*
X418Y485D01*
X412Y485D01*
X412Y483D01*
X448Y483D01*
X448Y485D01*
X446Y485D01*
X446Y489D01*
X444Y489D01*
X444Y491D01*
X424Y491D01*
G37*
D02*
G36*
X242Y483D02*
X242Y481D01*
X448Y481D01*
X448Y483D01*
X242Y483D01*
G37*
D02*
G36*
X242Y483D02*
X242Y481D01*
X448Y481D01*
X448Y483D01*
X242Y483D01*
G37*
D02*
G36*
X590Y483D02*
X590Y481D01*
X862Y481D01*
X862Y483D01*
X590Y483D01*
G37*
D02*
G36*
X590Y483D02*
X590Y481D01*
X862Y481D01*
X862Y483D01*
X590Y483D01*
G37*
D02*
G36*
X244Y481D02*
X244Y459D01*
X242Y459D01*
X242Y457D01*
X410Y457D01*
X410Y455D01*
X416Y455D01*
X416Y453D01*
X420Y453D01*
X420Y451D01*
X424Y451D01*
X424Y449D01*
X426Y449D01*
X426Y447D01*
X428Y447D01*
X428Y445D01*
X430Y445D01*
X430Y443D01*
X432Y443D01*
X432Y439D01*
X472Y439D01*
X472Y441D01*
X470Y441D01*
X470Y445D01*
X468Y445D01*
X468Y449D01*
X466Y449D01*
X466Y453D01*
X464Y453D01*
X464Y455D01*
X462Y455D01*
X462Y459D01*
X460Y459D01*
X460Y463D01*
X458Y463D01*
X458Y467D01*
X456Y467D01*
X456Y471D01*
X454Y471D01*
X454Y475D01*
X452Y475D01*
X452Y479D01*
X450Y479D01*
X450Y481D01*
X244Y481D01*
G37*
D02*
G36*
X590Y481D02*
X590Y479D01*
X592Y479D01*
X592Y475D01*
X594Y475D01*
X594Y471D01*
X596Y471D01*
X596Y467D01*
X598Y467D01*
X598Y463D01*
X600Y463D01*
X600Y459D01*
X602Y459D01*
X602Y457D01*
X710Y457D01*
X710Y455D01*
X716Y455D01*
X716Y453D01*
X720Y453D01*
X720Y451D01*
X724Y451D01*
X724Y449D01*
X726Y449D01*
X726Y447D01*
X728Y447D01*
X728Y445D01*
X730Y445D01*
X730Y443D01*
X732Y443D01*
X732Y439D01*
X734Y439D01*
X734Y437D01*
X736Y437D01*
X736Y431D01*
X738Y431D01*
X738Y409D01*
X736Y409D01*
X736Y403D01*
X734Y403D01*
X734Y399D01*
X732Y399D01*
X732Y397D01*
X730Y397D01*
X730Y395D01*
X728Y395D01*
X728Y393D01*
X726Y393D01*
X726Y391D01*
X724Y391D01*
X724Y389D01*
X722Y389D01*
X722Y387D01*
X718Y387D01*
X718Y385D01*
X712Y385D01*
X712Y383D01*
X850Y383D01*
X850Y387D01*
X852Y387D01*
X852Y405D01*
X854Y405D01*
X854Y423D01*
X856Y423D01*
X856Y441D01*
X858Y441D01*
X858Y457D01*
X860Y457D01*
X860Y475D01*
X862Y475D01*
X862Y481D01*
X590Y481D01*
G37*
D02*
G36*
X242Y457D02*
X242Y453D01*
X240Y453D01*
X240Y449D01*
X238Y449D01*
X238Y445D01*
X236Y445D01*
X236Y443D01*
X234Y443D01*
X234Y441D01*
X232Y441D01*
X232Y439D01*
X230Y439D01*
X230Y437D01*
X228Y437D01*
X228Y435D01*
X226Y435D01*
X226Y433D01*
X222Y433D01*
X222Y431D01*
X218Y431D01*
X218Y409D01*
X222Y409D01*
X222Y407D01*
X226Y407D01*
X226Y405D01*
X228Y405D01*
X228Y403D01*
X230Y403D01*
X230Y401D01*
X232Y401D01*
X232Y399D01*
X234Y399D01*
X234Y397D01*
X236Y397D01*
X236Y395D01*
X238Y395D01*
X238Y391D01*
X240Y391D01*
X240Y387D01*
X242Y387D01*
X242Y383D01*
X390Y383D01*
X390Y385D01*
X386Y385D01*
X386Y387D01*
X382Y387D01*
X382Y389D01*
X378Y389D01*
X378Y391D01*
X376Y391D01*
X376Y393D01*
X374Y393D01*
X374Y395D01*
X372Y395D01*
X372Y397D01*
X370Y397D01*
X370Y401D01*
X368Y401D01*
X368Y405D01*
X366Y405D01*
X366Y411D01*
X364Y411D01*
X364Y429D01*
X366Y429D01*
X366Y435D01*
X368Y435D01*
X368Y439D01*
X370Y439D01*
X370Y441D01*
X372Y441D01*
X372Y445D01*
X374Y445D01*
X374Y447D01*
X376Y447D01*
X376Y449D01*
X380Y449D01*
X380Y451D01*
X382Y451D01*
X382Y453D01*
X386Y453D01*
X386Y455D01*
X392Y455D01*
X392Y457D01*
X242Y457D01*
G37*
D02*
G36*
X602Y457D02*
X602Y455D01*
X604Y455D01*
X604Y451D01*
X606Y451D01*
X606Y447D01*
X608Y447D01*
X608Y443D01*
X610Y443D01*
X610Y439D01*
X612Y439D01*
X612Y435D01*
X614Y435D01*
X614Y431D01*
X616Y431D01*
X616Y427D01*
X618Y427D01*
X618Y421D01*
X620Y421D01*
X620Y413D01*
X622Y413D01*
X622Y405D01*
X624Y405D01*
X624Y397D01*
X626Y397D01*
X626Y391D01*
X628Y391D01*
X628Y383D01*
X690Y383D01*
X690Y385D01*
X686Y385D01*
X686Y387D01*
X682Y387D01*
X682Y389D01*
X678Y389D01*
X678Y391D01*
X676Y391D01*
X676Y393D01*
X674Y393D01*
X674Y395D01*
X672Y395D01*
X672Y397D01*
X670Y397D01*
X670Y401D01*
X668Y401D01*
X668Y405D01*
X666Y405D01*
X666Y411D01*
X664Y411D01*
X664Y429D01*
X666Y429D01*
X666Y435D01*
X668Y435D01*
X668Y439D01*
X670Y439D01*
X670Y441D01*
X672Y441D01*
X672Y445D01*
X674Y445D01*
X674Y447D01*
X676Y447D01*
X676Y449D01*
X680Y449D01*
X680Y451D01*
X682Y451D01*
X682Y453D01*
X686Y453D01*
X686Y455D01*
X692Y455D01*
X692Y457D01*
X602Y457D01*
G37*
D02*
G36*
X412Y385D02*
X412Y383D01*
X436Y383D01*
X436Y385D01*
X412Y385D01*
G37*
D02*
G36*
X242Y383D02*
X242Y381D01*
X438Y381D01*
X438Y383D01*
X242Y383D01*
G37*
D02*
G36*
X242Y383D02*
X242Y381D01*
X438Y381D01*
X438Y383D01*
X242Y383D01*
G37*
D02*
G36*
X630Y383D02*
X630Y381D01*
X850Y381D01*
X850Y383D01*
X630Y383D01*
G37*
D02*
G36*
X630Y383D02*
X630Y381D01*
X850Y381D01*
X850Y383D01*
X630Y383D01*
G37*
D02*
G36*
X244Y381D02*
X244Y359D01*
X242Y359D01*
X242Y357D01*
X410Y357D01*
X410Y355D01*
X416Y355D01*
X416Y353D01*
X420Y353D01*
X420Y351D01*
X442Y351D01*
X442Y357D01*
X440Y357D01*
X440Y371D01*
X438Y371D01*
X438Y381D01*
X244Y381D01*
G37*
D02*
G36*
X630Y381D02*
X630Y375D01*
X632Y375D01*
X632Y367D01*
X634Y367D01*
X634Y359D01*
X636Y359D01*
X636Y357D01*
X710Y357D01*
X710Y355D01*
X716Y355D01*
X716Y353D01*
X720Y353D01*
X720Y351D01*
X724Y351D01*
X724Y349D01*
X726Y349D01*
X726Y347D01*
X728Y347D01*
X728Y345D01*
X730Y345D01*
X730Y343D01*
X732Y343D01*
X732Y339D01*
X734Y339D01*
X734Y337D01*
X736Y337D01*
X736Y331D01*
X738Y331D01*
X738Y309D01*
X736Y309D01*
X736Y303D01*
X734Y303D01*
X734Y299D01*
X732Y299D01*
X732Y297D01*
X730Y297D01*
X730Y295D01*
X728Y295D01*
X728Y293D01*
X726Y293D01*
X726Y291D01*
X724Y291D01*
X724Y289D01*
X722Y289D01*
X722Y287D01*
X718Y287D01*
X718Y285D01*
X712Y285D01*
X712Y283D01*
X840Y283D01*
X840Y301D01*
X842Y301D01*
X842Y319D01*
X844Y319D01*
X844Y335D01*
X846Y335D01*
X846Y353D01*
X848Y353D01*
X848Y371D01*
X850Y371D01*
X850Y381D01*
X630Y381D01*
G37*
D02*
G36*
X242Y357D02*
X242Y353D01*
X240Y353D01*
X240Y349D01*
X238Y349D01*
X238Y345D01*
X236Y345D01*
X236Y343D01*
X234Y343D01*
X234Y341D01*
X232Y341D01*
X232Y339D01*
X230Y339D01*
X230Y337D01*
X228Y337D01*
X228Y335D01*
X226Y335D01*
X226Y333D01*
X222Y333D01*
X222Y331D01*
X218Y331D01*
X218Y309D01*
X222Y309D01*
X222Y307D01*
X226Y307D01*
X226Y305D01*
X228Y305D01*
X228Y303D01*
X230Y303D01*
X230Y301D01*
X232Y301D01*
X232Y299D01*
X234Y299D01*
X234Y297D01*
X236Y297D01*
X236Y295D01*
X238Y295D01*
X238Y291D01*
X240Y291D01*
X240Y287D01*
X242Y287D01*
X242Y283D01*
X390Y283D01*
X390Y285D01*
X386Y285D01*
X386Y287D01*
X382Y287D01*
X382Y289D01*
X378Y289D01*
X378Y291D01*
X376Y291D01*
X376Y293D01*
X374Y293D01*
X374Y295D01*
X372Y295D01*
X372Y297D01*
X370Y297D01*
X370Y301D01*
X368Y301D01*
X368Y305D01*
X366Y305D01*
X366Y311D01*
X364Y311D01*
X364Y329D01*
X366Y329D01*
X366Y335D01*
X368Y335D01*
X368Y339D01*
X370Y339D01*
X370Y341D01*
X372Y341D01*
X372Y345D01*
X374Y345D01*
X374Y347D01*
X376Y347D01*
X376Y349D01*
X380Y349D01*
X380Y351D01*
X382Y351D01*
X382Y353D01*
X386Y353D01*
X386Y355D01*
X392Y355D01*
X392Y357D01*
X242Y357D01*
G37*
D02*
G36*
X636Y357D02*
X636Y353D01*
X638Y353D01*
X638Y345D01*
X640Y345D01*
X640Y337D01*
X642Y337D01*
X642Y329D01*
X644Y329D01*
X644Y321D01*
X664Y321D01*
X664Y329D01*
X666Y329D01*
X666Y335D01*
X668Y335D01*
X668Y339D01*
X670Y339D01*
X670Y341D01*
X672Y341D01*
X672Y345D01*
X674Y345D01*
X674Y347D01*
X676Y347D01*
X676Y349D01*
X680Y349D01*
X680Y351D01*
X682Y351D01*
X682Y353D01*
X686Y353D01*
X686Y355D01*
X692Y355D01*
X692Y357D01*
X636Y357D01*
G37*
D02*
G36*
X430Y297D02*
X430Y295D01*
X428Y295D01*
X428Y293D01*
X426Y293D01*
X426Y291D01*
X424Y291D01*
X424Y289D01*
X422Y289D01*
X422Y287D01*
X418Y287D01*
X418Y285D01*
X412Y285D01*
X412Y283D01*
X452Y283D01*
X452Y291D01*
X450Y291D01*
X450Y297D01*
X430Y297D01*
G37*
D02*
G36*
X652Y297D02*
X652Y291D01*
X654Y291D01*
X654Y283D01*
X690Y283D01*
X690Y285D01*
X686Y285D01*
X686Y287D01*
X682Y287D01*
X682Y289D01*
X678Y289D01*
X678Y291D01*
X676Y291D01*
X676Y293D01*
X674Y293D01*
X674Y295D01*
X672Y295D01*
X672Y297D01*
X652Y297D01*
G37*
D02*
G36*
X242Y283D02*
X242Y281D01*
X452Y281D01*
X452Y283D01*
X242Y283D01*
G37*
D02*
G36*
X242Y283D02*
X242Y281D01*
X452Y281D01*
X452Y283D01*
X242Y283D01*
G37*
D02*
G36*
X656Y283D02*
X656Y281D01*
X838Y281D01*
X838Y283D01*
X656Y283D01*
G37*
D02*
G36*
X656Y283D02*
X656Y281D01*
X838Y281D01*
X838Y283D01*
X656Y283D01*
G37*
D02*
G36*
X244Y281D02*
X244Y259D01*
X242Y259D01*
X242Y253D01*
X240Y253D01*
X240Y249D01*
X238Y249D01*
X238Y245D01*
X236Y245D01*
X236Y243D01*
X234Y243D01*
X234Y241D01*
X232Y241D01*
X232Y239D01*
X230Y239D01*
X230Y237D01*
X228Y237D01*
X228Y235D01*
X226Y235D01*
X226Y233D01*
X222Y233D01*
X222Y231D01*
X218Y231D01*
X218Y229D01*
X212Y229D01*
X212Y227D01*
X460Y227D01*
X460Y237D01*
X458Y237D01*
X458Y251D01*
X456Y251D01*
X456Y263D01*
X454Y263D01*
X454Y277D01*
X452Y277D01*
X452Y281D01*
X244Y281D01*
G37*
D02*
G36*
X656Y281D02*
X656Y277D01*
X658Y277D01*
X658Y269D01*
X660Y269D01*
X660Y261D01*
X662Y261D01*
X662Y253D01*
X664Y253D01*
X664Y245D01*
X666Y245D01*
X666Y239D01*
X834Y239D01*
X834Y249D01*
X836Y249D01*
X836Y267D01*
X838Y267D01*
X838Y281D01*
X656Y281D01*
G37*
D02*
G36*
X42Y227D02*
X42Y225D01*
X460Y225D01*
X460Y227D01*
X42Y227D01*
G37*
D02*
G36*
X42Y227D02*
X42Y225D01*
X460Y225D01*
X460Y227D01*
X42Y227D01*
G37*
D02*
G36*
X42Y225D02*
X42Y89D01*
X44Y89D01*
X44Y59D01*
X46Y59D01*
X46Y55D01*
X48Y55D01*
X48Y51D01*
X50Y51D01*
X50Y49D01*
X52Y49D01*
X52Y47D01*
X56Y47D01*
X56Y45D01*
X58Y45D01*
X58Y43D01*
X90Y43D01*
X90Y41D01*
X488Y41D01*
X488Y61D01*
X486Y61D01*
X486Y65D01*
X484Y65D01*
X484Y77D01*
X482Y77D01*
X482Y91D01*
X480Y91D01*
X480Y103D01*
X478Y103D01*
X478Y117D01*
X476Y117D01*
X476Y131D01*
X474Y131D01*
X474Y143D01*
X472Y143D01*
X472Y157D01*
X470Y157D01*
X470Y171D01*
X468Y171D01*
X468Y183D01*
X466Y183D01*
X466Y197D01*
X464Y197D01*
X464Y211D01*
X462Y211D01*
X462Y223D01*
X460Y223D01*
X460Y225D01*
X42Y225D01*
G37*
D02*
G36*
X978Y1973D02*
X1021Y1973D01*
X1021Y1945D01*
X978Y1945D01*
X978Y1973D01*
G37*
D02*
G36*
X978Y1899D02*
X1021Y1899D01*
X1021Y1871D01*
X978Y1871D01*
X978Y1899D01*
G37*
D02*
G36*
X1022Y1943D02*
X1050Y1943D01*
X1050Y1900D01*
X1022Y1900D01*
X1022Y1943D01*
G37*
D02*
G36*
X154Y390D02*
X180Y390D01*
X180Y353D01*
X154Y353D01*
X154Y390D01*
G37*
D02*
G36*
X154Y790D02*
X180Y790D01*
X180Y753D01*
X154Y753D01*
X154Y790D01*
G37*
D02*
G36*
X578Y2123D02*
X621Y2123D01*
X621Y2089D01*
X578Y2089D01*
X578Y2123D01*
G37*
D02*
G36*
X578Y2055D02*
X621Y2055D01*
X621Y2021D01*
X578Y2021D01*
X578Y2055D01*
G37*
D02*
G36*
X548Y2093D02*
X582Y2093D01*
X582Y2050D01*
X548Y2050D01*
X548Y2093D01*
G37*
D02*
G36*
X616Y2093D02*
X650Y2093D01*
X650Y2050D01*
X616Y2050D01*
X616Y2093D01*
G37*
D02*
G36*
X384Y309D02*
X415Y309D01*
X415Y283D01*
X384Y283D01*
X384Y309D01*
G37*
D02*
G36*
X1054Y2640D02*
X1080Y2640D01*
X1080Y2603D01*
X1054Y2603D01*
X1054Y2640D01*
G37*
D02*
G36*
X1118Y2640D02*
X1144Y2640D01*
X1144Y2603D01*
X1118Y2603D01*
X1118Y2640D01*
G37*
D02*
G36*
X1118Y390D02*
X1144Y390D01*
X1144Y353D01*
X1118Y353D01*
X1118Y390D01*
G37*
D02*
G36*
X412Y837D02*
X438Y837D01*
X438Y806D01*
X412Y806D01*
X412Y837D01*
G37*
D02*
G36*
X268Y2390D02*
X294Y2390D01*
X294Y2353D01*
X268Y2353D01*
X268Y2390D01*
G37*
D02*
G36*
X1054Y1090D02*
X1080Y1090D01*
X1080Y1053D01*
X1054Y1053D01*
X1054Y1090D01*
G37*
D02*
G36*
X1118Y1090D02*
X1144Y1090D01*
X1144Y1053D01*
X1118Y1053D01*
X1118Y1090D01*
G37*
D02*
G04 End of Copper0*
M02*