; NON-PLATED HOLES START AT T1
; THROUGH (PLATED) HOLES START AT T100
M48
INCH
T1C0.098425
T100C0.046111
T101C0.022334
T102C0.027559
T103C0.039370
T104C0.015748
T105C0.035000
%
T1
X001049Y006703
X012341Y022552
T100
X010012Y019199
X009012Y019199
X008012Y019199
X007012Y019199
T101
X002039Y012705
X011012Y013704
X002039Y006715
X011012Y007713
X011012Y010708
X002039Y014702
X002039Y003719
X011012Y015701
X011012Y004717
X002039Y008711
X002039Y011707
X011012Y002721
X002039Y016699
X011012Y009710
X011012Y012705
X002039Y005716
X011012Y006715
X002039Y013704
X011012Y014702
X011012Y003719
X002039Y007713
X002039Y010708
X011012Y008711
X011012Y011707
X002039Y015701
X002039Y004717
X011012Y016699
X002039Y002721
X011012Y005716
X002039Y009710
T102
X004012Y003199
X007012Y008199
X007012Y005199
X004012Y008199
X004012Y005199
X007012Y007199
X007012Y004199
X004012Y007199
X004012Y004199
X007012Y009199
X007012Y006199
X004012Y009199
X007012Y010199
X007012Y003199
X004012Y006199
X004012Y010199
T103
X002012Y009699
X002512Y024699
X011012Y014699
X002012Y010699
X011012Y006699
X002012Y002699
X002012Y015699
X011012Y024199
X002012Y007699
X002512Y022699
X011012Y012699
X011012Y004699
X002012Y013699
X011012Y009699
X002012Y005699
X011012Y027199
X011012Y010699
X011012Y002699
X002512Y025699
X011012Y015699
X002012Y011699
X011012Y007699
X002012Y003699
X002012Y016699
X011012Y025199
X002012Y008699
X002512Y023699
X011012Y013699
X011012Y005699
X002012Y014699
X002012Y006699
X011012Y028199
X011012Y011699
X011012Y003699
X011012Y016699
X002012Y012699
X011012Y008699
X002012Y004699
X011012Y026199
T104
X009012Y024699
X001012Y020699
X005012Y022699
T105
X003012Y020699
X006512Y013699
X006012Y020699
X006841Y016028
X004012Y013199
X009341Y016528
T00
M30
