G04 MADE WITH FRITZING*
G04 WWW.FRITZING.ORG*
G04 DOUBLE SIDED*
G04 HOLES PLATED*
G04 CONTOUR ON CENTER OF CONTOUR VECTOR*
%ASAXBY*%
%FSLAX23Y23*%
%MOIN*%
%OFA0B0*%
%SFA1.0B1.0*%
%ADD10C,0.057829*%
%ADD11C,0.061181*%
%ADD12C,0.049370*%
%ADD13C,0.072992*%
%ADD14C,0.085000*%
%ADD15C,0.083889*%
%ADD16C,0.108425*%
%ADD17R,0.061181X0.061181*%
%LNMASK0*%
G90*
G70*
G54D10*
X1101Y1470D03*
X204Y1670D03*
X204Y1570D03*
X204Y1470D03*
X204Y1370D03*
X204Y1271D03*
X1101Y1570D03*
X1101Y1670D03*
X1101Y1370D03*
X204Y1171D03*
X204Y1071D03*
X204Y971D03*
X204Y871D03*
X204Y771D03*
X204Y672D03*
X204Y572D03*
X204Y472D03*
X204Y372D03*
X204Y272D03*
X1101Y971D03*
X1101Y871D03*
X1101Y771D03*
X1101Y672D03*
X1101Y572D03*
X1101Y472D03*
X1101Y372D03*
X1101Y272D03*
X1101Y1271D03*
X1101Y1171D03*
X1101Y1071D03*
G54D11*
X701Y1020D03*
X401Y1020D03*
X701Y920D03*
X401Y920D03*
X701Y820D03*
X401Y820D03*
X701Y720D03*
X401Y720D03*
X701Y620D03*
X401Y620D03*
X701Y520D03*
X401Y520D03*
X701Y420D03*
X401Y420D03*
X701Y320D03*
X401Y320D03*
X701Y1020D03*
X401Y1020D03*
X701Y920D03*
X401Y920D03*
X701Y820D03*
X401Y820D03*
X701Y720D03*
X401Y720D03*
X701Y620D03*
X401Y620D03*
X701Y520D03*
X401Y520D03*
X701Y420D03*
X401Y420D03*
X701Y320D03*
X401Y320D03*
G54D12*
X901Y2470D03*
X501Y2270D03*
G54D13*
X201Y1670D03*
X201Y1570D03*
X201Y1470D03*
X201Y1370D03*
X201Y1270D03*
X201Y1170D03*
X201Y1070D03*
X201Y970D03*
X201Y870D03*
X201Y770D03*
X201Y670D03*
X201Y570D03*
X201Y470D03*
X201Y370D03*
X201Y270D03*
X1101Y270D03*
X1101Y370D03*
X1101Y470D03*
X1101Y570D03*
X1101Y670D03*
X1101Y770D03*
X1101Y870D03*
X1101Y970D03*
X1101Y1070D03*
X1101Y1170D03*
X1101Y2420D03*
X1101Y1270D03*
X1101Y2520D03*
X1101Y1370D03*
X251Y2370D03*
X1101Y2620D03*
X1101Y1470D03*
X251Y2470D03*
X1101Y2720D03*
X1101Y1570D03*
X251Y2570D03*
X1101Y2820D03*
X1101Y1670D03*
G54D14*
X401Y1320D03*
X684Y1603D03*
X651Y1370D03*
X934Y1653D03*
X601Y2070D03*
X301Y2070D03*
G54D15*
X1001Y1920D03*
X901Y1920D03*
X801Y1920D03*
X701Y1920D03*
G54D12*
X101Y2070D03*
G54D13*
X251Y2270D03*
G54D16*
X105Y670D03*
X1234Y2255D03*
G54D17*
X701Y1020D03*
X701Y1020D03*
G04 End of Mask0*
M02*