<?xml version="1.0" encoding="UTF-8" standalone="no"?>
<svg
   xmlns:dc="http://purl.org/dc/elements/1.1/"
   xmlns:cc="http://creativecommons.org/ns#"
   xmlns:rdf="http://www.w3.org/1999/02/22-rdf-syntax-ns#"
   xmlns:svg="http://www.w3.org/2000/svg"
   xmlns="http://www.w3.org/2000/svg"
   xmlns:sodipodi="http://sodipodi.sourceforge.net/DTD/sodipodi-0.dtd"
   xmlns:inkscape="http://www.inkscape.org/namespaces/inkscape"
   version="1.1"
   id="svg11583"
   viewBox="0 0 95.711922 209.1016"
   height="59.013119mm"
   width="27.012032mm"
   inkscape:version="0.91 r13725"
   sodipodi:docname="PCB2.svg">
  <sodipodi:namedview
     pagecolor="#ffffff"
     bordercolor="#666666"
     borderopacity="1"
     objecttolerance="10"
     gridtolerance="10"
     guidetolerance="10"
     inkscape:pageopacity="0"
     inkscape:pageshadow="2"
     inkscape:window-width="640"
     inkscape:window-height="480"
     id="namedview11"
     showgrid="false"
     inkscape:zoom="1.1286379"
     inkscape:cx="47.855961"
     inkscape:cy="104.5508"
     inkscape:window-x="0"
     inkscape:window-y="31"
     inkscape:window-maximized="0"
     inkscape:current-layer="svg11583" />
  <defs
     id="defs11585" />
  <metadata
     id="metadata11588">
    <rdf:RDF>
      <cc:Work
         rdf:about="">
        <dc:format>image/svg+xml</dc:format>
        <dc:type
           rdf:resource="http://purl.org/dc/dcmitype/StillImage" />
        <dc:title />
      </cc:Work>
    </rdf:RDF>
  </metadata>
  <g
     style="display:inline"
     transform="translate(-300.74605,-87.822439)"
     id="board">
    <path
       id="path12328"
       d="m 306.24533,105.45464 5.49932,-0.0808 1.68742,-0.83136 c 2.53494,-1.24891 4.12038,-3.29058 4.70796,-6.062735 0.15601,-0.73604 0.28366,-3.435042 0.28366,-5.99778 l 0,-4.659526 38.14986,0 c 25.68254,0 38.30863,0.08498 38.63572,0.260025 0.26722,0.143011 0.6575,0.591936 0.86728,0.997609 0.33821,0.654033 0.38142,11.464977 0.38142,95.434567 l 0,94.69699 -5.61897,0.0871 c -5.07085,0.0786 -5.72983,0.1388 -6.7554,0.61737 -1.7159,0.8007 -3.46399,2.49192 -4.36656,4.22449 l -0.80511,1.5455 -0.0868,5.61897 -0.0868,5.61898 -37.96954,0 c -23.56557,0 -38.2107,-0.0917 -38.60524,-0.24169 -0.34963,-0.13293 -0.8116,-0.58185 -1.02659,-0.99761 -0.35081,-0.67839 -0.39091,-10.46941 -0.39091,-95.45261 l 0,-94.69669 5.49932,-0.0808 z m -1.48298,145.15275 c 0.92098,2.0279 3.53779,2.80157 5.45924,1.61405 1.28142,-0.79195 1.71399,-1.7794 1.58156,-3.61023 -0.0945,-1.30647 -0.21701,-1.60844 -0.90023,-2.21889 -0.43496,-0.38864 -1.24665,-0.84319 -1.80376,-1.0101 -2.22493,-0.66661 -4.6666,1.21506 -4.78277,3.68583 -0.0131,0.27779 0.18762,0.9705 0.44596,1.53934 z m 81.11181,-112.75038 c 0.81841,1.14934 1.48716,1.48322 2.97091,1.48322 2.17371,0 3.5514,-1.14826 3.93895,-3.283 0.33979,-1.87165 -1.74836,-4.27735 -3.72285,-4.28899 -0.83106,-0.005 -2.38948,0.74328 -3.03498,1.45706 -1.02806,1.1368 -1.09912,3.30165 -0.15203,4.63171 z"
       style="fill:#008000" />
  </g>
</svg>
