<?xml version="1.0" encoding="UTF-8" standalone="no"?>
<svg
   xmlns:dc="http://purl.org/dc/elements/1.1/"
   xmlns:cc="http://creativecommons.org/ns#"
   xmlns:rdf="http://www.w3.org/1999/02/22-rdf-syntax-ns#"
   xmlns:svg="http://www.w3.org/2000/svg"
   xmlns="http://www.w3.org/2000/svg"
   version="1.1"
   id="svg11583"
   viewBox="0 0 95.711922 209.1016"
   height="59.013119mm"
   width="27.012032mm">
  <defs
     id="defs11585" />
  <metadata
     id="metadata11588">
    <rdf:RDF>
      <cc:Work
         rdf:about="">
        <dc:format>image/svg+xml</dc:format>
        <dc:type
           rdf:resource="http://purl.org/dc/dcmitype/StillImage" />
        <dc:title></dc:title>
      </cc:Work>
    </rdf:RDF>
  </metadata>
  <g
     style="display:inline"
     transform="translate(-300.74605,-87.822439)"
     id="board">
    <path
       id="path12328"
       d="m 306.24533,105.45464 5.49932,-0.0808 1.68742,-0.83136 c 2.53494,-1.24891 4.12038,-3.29058 4.70796,-6.062735 0.15601,-0.73604 0.28366,-3.435042 0.28366,-5.99778 l 0,-4.659526 38.14986,0 c 25.68254,0 38.30863,0.08498 38.63572,0.260025 0.26722,0.143011 0.6575,0.591936 0.86728,0.997609 0.33821,0.654033 0.38142,11.464977 0.38142,95.434567 l 0,94.69699 -5.61897,0.0871 c -5.07085,0.0786 -5.72983,0.1388 -6.7554,0.61737 -1.7159,0.8007 -3.46399,2.49192 -4.36656,4.22449 l -0.80511,1.5455 -0.0868,5.61897 -0.0868,5.61898 -37.96954,0 c -23.56557,0 -38.2107,-0.0917 -38.60524,-0.24169 -0.34963,-0.13293 -0.8116,-0.58185 -1.02659,-0.99761 -0.35081,-0.67839 -0.39091,-10.46941 -0.39091,-95.45261 l 0,-94.69669 5.49932,-0.0808 z m -1.48298,145.15275 c 0.92098,2.0279 3.53779,2.80157 5.45924,1.61405 1.28142,-0.79195 1.71399,-1.7794 1.58156,-3.61023 -0.0945,-1.30647 -0.21701,-1.60844 -0.90023,-2.21889 -0.43496,-0.38864 -1.24665,-0.84319 -1.80376,-1.0101 -2.22493,-0.66661 -4.6666,1.21506 -4.78277,3.68583 -0.0131,0.27779 0.18762,0.9705 0.44596,1.53934 z m 81.11181,-112.75038 c 0.81841,1.14934 1.48716,1.48322 2.97091,1.48322 2.17371,0 3.5514,-1.14826 3.93895,-3.283 0.33979,-1.87165 -1.74836,-4.27735 -3.72285,-4.28899 -0.83106,-0.005 -2.38948,0.74328 -3.03498,1.45706 -1.02806,1.1368 -1.09912,3.30165 -0.15203,4.63171 z"
       style="fill:#008000" />
  </g>
  <g
     style="display:inline"
     stroke="8 mil"
     id="silkscreen"
     transform="translate(-300.74605,-87.822439)">
    <g
       id="layer1"
       transform="matrix(-0.23139279,0.06200151,-0.06200151,-0.23139279,454.45815,216.04315)">
      <g
         transform="translate(-286.212,168.08154)"
         id="g3895">
        <path
           style="clip-rule:evenodd;fill-rule:evenodd"
           d="m 661.708,452.735 c -2.961,-0.599 -9.681,3.625 -11.487,5.452 -0.217,-0.021 -0.435,-0.044 -0.651,-0.065 2.472,-3.086 5.908,-5.59 9.368,-7.101 2.468,-1.078 3.518,-1.224 5.609,-3.05 0.294,-1.222 0.617,-3.174 -0.038,-3.837 -1.409,-1.206 -6.052,-0.535 -8.363,-0.579 -6.485,-0.128 -12.832,-2.136 -20.043,-3.75 -1.056,-3.758 1.005,-5.219 3.611,-7.418 4.799,-4.045 9.177,-6.593 15.244,-8.756 -0.009,-0.085 -0.017,-0.169 -0.027,-0.258 -0.063,-0.207 -0.127,-0.416 -0.189,-0.623 -3.715,-0.99 -7.431,-1.979 -11.145,-2.967 -1.236,-0.311 -2.469,-0.62 -3.703,-0.928 -3.26,-0.238 -10.083,-0.619 -13.298,-2.296 10e-4,0.114 0.003,0.228 0.008,0.335 -2.949,-1.031 -6.785,-1.227 -9.687,-2.794 -4.684,-2.529 -10.791,-7.836 -13.567,-11.68 -0.558,-0.771 -0.887,-2.344 -1.268,-3.203 -2.458,-0.734 -4.812,-1.124 -7.053,-1.198 -0.731,-0.083 -1.463,-0.166 -2.192,-0.249 -0.829,0.587 -1.658,1.175 -2.486,1.761 -2.005,1.582 -3.986,3.429 -5.799,5.337 -2.885,3.046 -5.407,7.815 -10,8.04 -3.892,0.189 -6.385,-2.779 -8.435,-4.261 -1.547,-1.116 -2.975,-1.979 -4.725,-2.997 -1.043,-0.603 -2.71,-2.073 -4.351,-1.741 -1.967,2.783 -9.486,6.375 -12.68,7.762 -0.026,-0.257 -0.05,-0.515 -0.077,-0.771 2.374,-1.963 5.284,-3.643 8.053,-4.986 0.434,-0.21 2.398,-1.235 1.771,-1.925 -3.183,0.686 -6.365,1.374 -9.547,2.063 -1.27,0.317 -2.596,0.985 -4.1,0.811 2.263,-2.662 8.413,-1.803 11.328,-3.657 0.005,-0.023 0.011,-0.051 0.017,-0.076 -2.859,-1.34 -9.724,-0.542 -12.93,-0.625 -0.036,-0.093 -0.072,-0.184 -0.105,-0.274 1.463,-1.146 3.545,-0.383 5.76,-0.432 2.301,-0.048 6.777,-0.232 8.663,-1.101 -0.013,-0.061 -0.029,-0.116 -0.042,-0.174 -0.401,-0.314 -0.803,-0.629 -1.201,-0.942 -1.342,-0.195 -2.687,-0.393 -4.03,-0.588 -1.906,-0.882 -3.816,-1.763 -5.724,-2.643 -0.808,-0.396 -3.031,-0.765 -3.495,-1.464 0.003,-0.027 0.012,-0.055 0.018,-0.079 2.401,0.033 4.349,1.012 6.742,1.457 1.2,0.22 2.4,0.438 3.597,0.656 1.569,0.636 3.818,1.202 5.36,0.978 1.57,-4.533 -0.156,-4.238 -0.924,-7.624 2.823,0.715 2.365,2.891 3.033,4.94 0.377,1.16 1.061,1.529 1.862,2.426 0.497,0.86 0.992,1.724 1.49,2.588 1.424,1.432 7.799,3.859 10.547,4.493 1.366,0.339 2.732,0.678 4.096,1.02 2.002,-0.268 2.805,-2.405 3.996,-4 2.315,-3.099 5.771,-4.342 6.827,-9.098 -1.443,-1.132 -3.114,-2.407 -4.99,-3.308 -3.973,-1.073 -7.946,-2.147 -11.918,-3.224 -8.512,-3.896 -17.844,-9.808 -18.998,-18.167 1.615,-1.418 4.983,-1.242 7.273,-1.583 5.095,-0.753 10.437,-1.667 16.451,1.263 6.443,3.139 9.737,8.288 19.458,8.863 1.551,0.241 3.108,0.485 4.662,0.731 2.902,-0.447 2.974,-3.134 4.744,-3.996 2.819,-1.373 8.388,-1.255 9.469,-4.994 -0.418,-0.845 -0.836,-1.689 -1.254,-2.537 -2.744,-3.434 -5.752,-6.599 -8.725,-9.904 -1.026,-1.14 -2.879,-4.114 -5.869,-3.84 -1.047,0.344 -2.098,0.687 -3.148,1.03 -3.623,0.418 -7.243,0.841 -10.865,1.261 -0.06,-0.099 -0.122,-0.193 -0.182,-0.291 3.262,-2.496 9.835,-1.046 13.097,-3.749 -0.179,-0.321 -0.354,-0.637 -0.531,-0.954 -1.822,-1.036 -9.786,-7.503 -10.362,-8.948 1.635,0.36 2.736,1.652 3.85,2.463 2.63,1.736 5.257,3.477 7.884,5.214 -0.041,-1.79 -1.206,-3.498 -1.755,-5.063 -0.807,-2.294 -1.617,-4.588 -2.424,-6.883 0.124,-0.055 0.248,-0.109 0.371,-0.166 0.168,0.234 0.336,0.468 0.506,0.701 0.41,0.759 0.82,1.52 1.228,2.277 1.382,2.967 2.344,6.776 4.458,9.262 0.237,-0.056 0.472,-0.113 0.709,-0.167 -0.279,-3.77 -0.338,-5.766 0.729,-10.494 1.455,0.293 0.52,2.673 0.479,4.104 -0.088,3.011 -0.605,6.143 2.138,7.402 0.505,-2.115 0.057,-3.306 0.479,-5.386 0.085,-0.009 0.174,-0.015 0.257,-0.024 0.275,-0.052 0.045,-0.1 0.319,0.072 0.158,0.396 0.316,0.796 0.474,1.192 -0.114,1.722 -0.233,3.443 -0.346,5.165 0.501,1.5 2.038,2.906 3.056,4.114 1.561,1.91 3.123,3.821 4.685,5.731 1.836,2.048 7.916,7.48 8.331,9.819 0.56,3.147 -5.316,6.356 -7.109,7.783 -0.997,0.79 -2.948,1.804 -2.44,3.022 4.072,2.346 8.143,4.692 12.214,7.039 3.718,1.822 7.44,3.646 11.158,5.466 1.547,0.521 3.093,1.04 4.639,1.562 4.245,2.181 7.934,5.086 11.736,7.677 2.848,1.941 7.292,4.456 11.36,3.848 0.568,-0.087 1.322,0.064 1.726,-0.273 0.471,-0.474 0.94,-0.95 1.411,-1.426 0.791,-1.407 -0.203,-3.458 -0.502,-4.36 -1.001,-3.009 -1.401,-6.047 -1.551,-9.597 -0.038,-0.828 -0.152,-4.531 0.406,-5.068 0.836,-1.169 4.496,-1.062 6.182,-1.171 1.87,-0.046 3.74,-0.09 5.61,-0.133 1.508,0.319 3.02,0.636 4.528,0.953 2.172,0.327 4.346,0.66 6.519,0.988 2.114,0.344 4.229,0.691 6.343,1.035 0.181,-0.181 0.359,-0.358 0.538,-0.543 -0.811,-3.403 -3.067,-6.292 -5.218,-8.857 -0.873,-1.033 -2.084,-2.061 -2.473,-3.395 0.186,0.044 0.371,0.084 0.556,0.128 1.416,1.409 5.282,6.398 6.992,6.929 0.013,-0.054 0.024,-0.105 0.036,-0.158 1.592,-1.801 -2.105,-7.698 -2.467,-9.974 0.162,-0.212 0.321,-0.428 0.481,-0.639 0.074,0.044 0.144,0.087 0.217,0.133 0.159,0.646 0.316,1.294 0.474,1.939 0.927,2.346 3.501,3.869 3.427,6.862 0.156,-0.076 0.313,-0.152 0.47,-0.227 0.347,-0.31 0.697,-0.617 1.043,-0.926 0.935,-1.428 1.225,-3.17 2.315,-4.304 0.912,-0.705 1.822,-1.412 2.734,-2.119 0.638,-0.546 2.015,-1.944 2.772,-1.201 0.029,0.118 0.058,0.237 0.083,0.354 -1.211,1.769 -2.89,2.112 -4.281,3.436 -1.301,1.235 -1.406,3.363 -2.253,5.479 -0.481,1.214 -1.31,4.187 -0.629,4.938 0.279,0.263 0.31,0.262 0.619,0.222 1.167,-1.605 3.538,-1.362 5.352,-1.941 1.87,-0.591 3.563,-1.328 4.95,-2.695 0.106,0.133 0.215,0.269 0.321,0.405 -0.004,0.024 -0.01,0.053 -0.014,0.079 -1.5,3.849 -6.578,2.709 -9.117,4.91 -0.472,0.476 -0.939,0.951 -1.41,1.426 -0.895,1.305 -0.801,3.468 -1.841,4.408 -4.527,-0.34 -9.062,-0.683 -13.59,-1.024 -1.934,-0.132 -5.649,-1.812 -7.027,-0.938 0.487,5.974 0.5,11.57 1.506,17.08 0.189,1.238 0.379,2.475 0.567,3.71 0.455,0.439 0.912,0.876 1.367,1.311 4.783,1.762 8.189,2.058 12.518,1.226 1.821,-0.351 4.462,-0.365 5.929,-1.444 2.732,-0.706 38.884,-16.283 43.629,-17.505 2.242,-1.318 4.945,-2.4 7.19,-3.718 10.259,-4.239 22.216,-4.458 35.323,-4.026 1.35,0.139 2.881,0.337 4.031,0.52 1.339,0.208 2.236,0.541 3.553,0.87 0.928,0.35 2.362,0.665 3.733,1.18 -0.046,0.073 -0.092,0.146 -0.136,0.219 -0.76,-0.202 -1.516,-0.399 -2.275,-0.604 -1.693,-0.249 -4.223,-0.904 -5.912,-1.152 -5.739,-0.258 -13.174,-0.647 -17.662,0.573 -2.202,0.239 -3.147,0.146 -5.102,0.621 -8.055,0.698 -15.607,6.387 -22.003,9.5 -1.978,1.353 -4.844,2.739 -6.819,4.092 -3.06,1.128 -37.171,17.689 -40.544,18.181 -3.692,0.485 -7.384,0.975 -11.078,1.465 -2.286,-0.19 -4.577,-0.381 -6.863,-0.572 -2.881,0.519 -4.703,2.616 -6.826,4.352 -2.451,1.745 -4.902,3.487 -7.357,5.231 -0.878,0.439 -1.753,0.873 -2.632,1.314 0.179,0.067 0.359,0.137 0.538,0.206 -0.136,0.106 -0.271,0.215 -0.407,0.321 -0.821,0.424 -1.638,0.848 -2.457,1.271 -2.146,0.648 -4.292,1.296 -6.438,1.941 -0.079,0.346 -0.157,0.687 -0.234,1.03 1.789,2.235 3.945,1.807 6.81,1.889 2.111,0.484 4.223,0.967 6.333,1.449 1.073,0.02 4.822,0.385 5.89,1.182 1.891,1.41 0.635,6.476 2.742,8.036 1.222,0.909 3.994,1.889 6.063,1.886 1.205,0 3.301,-0.971 4.359,0.248 -1.507,0.155 -3.013,0.311 -4.52,0.464 -2.78,0.077 -6.163,-0.691 -8.916,-0.703 -2.609,4.939 0.41,8.185 -0.362,13.239 -0.177,0.042 -0.354,0.085 -0.528,0.128 -0.027,-0.009 -0.053,-0.012 -0.081,-0.018 -0.42,-3.12 -1.787,-5.659 -2.652,-8.435 -0.23,-0.737 -0.083,-2.873 -0.724,-2.666 -2.182,0.487 -6.725,7.08 -8.061,9.403 -0.775,1.344 -1.191,3.511 -2.499,4.008 1.534,-7.236 4.372,-9.915 8.182,-13.204 0.053,-0.346 0.108,-0.695 0.157,-1.046 z"
           id="path3897" />
      </g>
    </g>
  </g>
</svg>
